<svg width="32" height="33" viewBox="0 0 32 33" fill="none" xmlns="http://www.w3.org/2000/svg">
<path d="M28 16.5C28 23.1274 22.6274 28.5 16 28.5C9.37258 28.5 4 23.1274 4 16.5C4 9.87258 9.37258 4.5 16 4.5C22.6274 4.5 28 9.87258 28 16.5Z" fill="#FADDC4"/>
<path d="M19.0573 12.8906C19.578 12.3699 20.422 12.3699 20.9427 12.8906C21.4634 13.4113 21.4634 14.2554 20.9427 14.7761L15.6094 20.1094C15.0887 20.6301 14.2446 20.6301 13.7239 20.1094L11.0573 17.4427C10.5366 16.922 10.5366 16.078 11.0573 15.5573C11.578 15.0366 12.422 15.0366 12.9427 15.5573L14.6666 17.2813L19.0573 12.8906Z" fill="#EE8E39"/>
</svg>
