<svg width="150" height="38" viewBox="0 0 150 38" fill="none" xmlns="http://www.w3.org/2000/svg">
<path d="M13.8921 23.1363C15.6384 21.3901 18.47 21.39 20.2163 23.1363L21.4136 24.3336C23.3778 26.298 23.3779 29.4835 21.4136 31.4479L21.0181 31.8424C19.2717 33.5885 16.4401 33.5887 14.6938 31.8424L9.93994 27.0885L13.8921 23.1363ZM82.4663 13.5846C86.8189 13.5847 90.0161 16.8843 90.0161 20.9352V20.9889C90.016 25.0128 86.7919 28.3657 82.4126 28.3658C78.0869 28.3658 74.8893 25.0666 74.8892 21.0426V20.9889C74.8892 16.938 78.1136 13.5846 82.4663 13.5846ZM55.9243 13.7184C56.8109 13.7185 57.563 14.443 57.563 15.3551V26.569C57.5629 27.4541 56.8376 28.1782 55.9243 28.1783C55.0377 28.1783 54.2848 27.481 54.2847 26.569V25.8444C53.3712 27.1856 52.055 28.3394 49.8521 28.3395C46.6547 28.3395 44.8003 26.193 44.8003 22.8932V15.3551C44.8003 14.443 45.526 13.7184 46.4126 13.7184C47.3261 13.7184 48.0513 14.443 48.0513 15.3551V21.9274C48.0513 24.1271 49.1531 25.3618 51.0874 25.3619C52.9682 25.3619 54.2847 24.0735 54.2847 21.8736V15.3551C54.2847 14.443 55.0108 13.7184 55.9243 13.7184ZM71.936 8.3258C72.8494 8.326 73.5747 9.02416 73.5747 9.93615V26.569C73.5746 27.481 72.849 28.1783 71.9624 28.1783C71.049 28.1783 70.3239 27.481 70.3237 26.569V25.6832C69.2759 27.1587 67.7975 28.3395 65.4868 28.3395C62.1554 28.3393 58.9049 25.6834 58.9048 20.9889V20.9352C58.9048 16.2406 62.1016 13.5848 65.4868 13.5846C67.8244 13.5846 69.3027 14.7383 70.3237 16.0797V9.93615C70.3237 9.02403 71.0494 8.3258 71.936 8.3258ZM92.9429 8.3258C93.8563 8.32588 94.5815 9.02408 94.5815 9.93615V16.2399C95.6294 14.7644 97.1078 13.5846 99.4185 13.5846C102.75 13.5848 106 16.2138 106 20.9352V20.9889C106 25.6833 102.777 28.3392 99.4185 28.3395C97.054 28.3395 95.5757 27.1589 94.5815 25.8444V26.569C94.5814 27.4541 93.8562 28.1782 92.9429 28.1783C92.0563 28.1783 91.3307 27.4542 91.3306 26.569V9.93615C91.3306 9.02403 92.0294 8.3258 92.9429 8.3258ZM118.332 13.7184C119.218 13.7185 119.97 14.4431 119.97 15.3551V26.569C119.97 27.4541 119.245 28.1782 118.332 28.1783C117.445 28.1783 116.693 27.481 116.693 26.569V25.8444C115.779 27.1857 114.462 28.3394 112.259 28.3395C109.062 28.3395 107.208 26.193 107.208 22.8932V15.3551C107.208 14.443 107.933 13.7184 108.82 13.7184C109.733 13.7184 110.458 14.443 110.458 15.3551V21.9274C110.458 24.1271 111.56 25.3618 113.495 25.3619C115.375 25.3619 116.693 24.0735 116.693 21.8736V15.3551C116.693 14.443 117.418 13.7184 118.332 13.7184ZM33.1685 8.3258C34.082 8.3258 34.8071 9.05083 34.8071 9.93615V20.3981L40.9067 14.4156C41.3366 13.9865 41.74 13.7184 42.3042 13.7184C43.1638 13.7186 43.728 14.4161 43.728 15.194C43.728 15.7305 43.4592 16.1329 43.0024 16.5621L39.2407 20.0231L43.5396 25.6295C43.8351 26.0319 43.9692 26.3272 43.9692 26.7027C43.9692 27.588 43.2709 28.1783 42.438 28.1783C41.7933 28.1783 41.4172 27.9634 41.0142 27.4537L36.9565 22.0621L34.8071 24.1002V26.569C34.807 27.481 34.0819 28.1783 33.1685 28.1783C32.2819 28.1783 31.5563 27.4809 31.5562 26.569V9.93615C31.5562 9.05088 32.255 8.32587 33.1685 8.3258ZM132.248 13.8795C133.134 13.8797 133.805 14.4158 133.805 15.1666V15.2477C133.805 15.8646 133.591 16.2669 133.107 16.8033L125.53 25.3883H132.516C133.268 25.3884 133.859 25.979 133.859 26.7301C133.859 27.4542 133.268 28.0444 132.516 28.0445H122.897C121.983 28.0445 121.312 27.4811 121.312 26.7301V26.6764C121.312 26.0593 121.527 25.6563 122.038 25.1197L129.587 16.5348H122.897C122.145 16.5348 121.553 15.9447 121.553 15.2203C121.553 14.4693 122.145 13.8795 122.897 13.8795H132.248ZM145.303 13.8795C146.19 13.8796 146.862 14.4157 146.862 15.1666V15.2477C146.862 15.8645 146.647 16.267 146.164 16.8033L138.586 25.3883H145.572C146.324 25.3883 146.916 25.9789 146.916 26.7301C146.915 27.4542 146.324 28.0445 145.572 28.0445H135.953C135.04 28.0445 134.368 27.481 134.368 26.7301V26.6764C134.368 26.0593 134.583 25.6563 135.093 25.1197L142.643 16.5348H135.953C135.201 16.5347 134.61 15.9446 134.61 15.2203C134.61 14.4694 135.201 13.8796 135.953 13.8795H145.303ZM66.2661 16.401C64.0362 16.4011 62.1821 18.1184 62.1821 20.9352V20.9889C62.1823 23.725 64.0631 25.5219 66.2661 25.5221C68.4424 25.5221 70.3773 23.6983 70.3774 20.9889V20.9352C70.3774 18.1988 68.4425 16.401 66.2661 16.401ZM82.4126 16.4283C79.8064 16.4283 78.1401 18.4671 78.1401 20.9352V20.9889C78.1403 23.4569 79.9408 25.5221 82.4663 25.5221C85.0991 25.5219 86.765 23.4837 86.7651 21.0426V20.9889C86.7651 18.494 84.9649 16.4285 82.4126 16.4283ZM98.6392 16.401C96.4359 16.401 94.5015 18.2256 94.5015 20.9352V20.9889C94.5016 23.6983 96.436 25.5221 98.6392 25.5221C100.869 25.5219 102.696 23.7786 102.696 20.9889V20.9352C102.696 18.1989 100.842 16.4012 98.6392 16.401ZM14.269 5.34435C16.2364 3.37695 19.4257 3.37695 21.3931 5.34435C23.3604 7.31176 23.3604 10.501 21.3931 12.4684L8.35693 25.5045L4.39404 21.5426C2.64785 19.7963 2.64798 16.9647 4.39404 15.2184L14.269 5.34435Z" fill="#EE8E39"/>
</svg>
