<svg width="800" height="600" viewBox="0 0 800 600" fill="none" xmlns="http://www.w3.org/2000/svg">
<g filter="url(#filter0_dd_1270_24898)">
<rect x="199.5" y="35" width="401" height="510" rx="8" fill="white" shape-rendering="crispEdges"/>
<rect x="200" y="35.5" width="400" height="509" rx="7.5" stroke="#E9EDF2" shape-rendering="crispEdges"/>
<path d="M216.889 67.0693C217.01 66.7417 217.473 66.7417 217.594 67.0693L218.11 68.4639C218.148 68.5668 218.23 68.6475 218.333 68.6855L219.728 69.2021C220.055 69.3234 220.055 69.787 219.728 69.9082L218.333 70.4238C218.23 70.4619 218.148 70.5435 218.11 70.6465L217.594 72.041C217.473 72.3686 217.01 72.3686 216.889 72.041L216.372 70.6465C216.334 70.5436 216.253 70.462 216.15 70.4238L214.755 69.9082C214.427 69.7869 214.428 69.3235 214.755 69.2021L216.15 68.6855C216.253 68.6474 216.334 68.5666 216.372 68.4639L216.889 67.0693ZM222.183 58.915C222.431 58.2454 223.378 58.2452 223.626 58.915L224.682 61.7686C224.76 61.9789 224.925 62.1447 225.136 62.2227L227.989 63.2783C228.659 63.5264 228.659 64.4735 227.989 64.7217L225.136 65.7773C224.925 65.8553 224.76 66.0218 224.682 66.2324L223.626 69.085C223.378 69.755 222.431 69.7549 222.183 69.085L221.127 66.2324C221.049 66.0218 220.883 65.8553 220.672 65.7773L217.819 64.7217C217.149 64.4737 217.149 63.5263 217.819 63.2783L220.672 62.2227C220.882 62.1447 221.049 61.979 221.127 61.7686L222.183 58.915ZM216.889 55.6055C217.01 55.2779 217.473 55.2779 217.594 55.6055L218.11 57C218.148 57.103 218.23 57.1845 218.333 57.2227L219.728 57.7383C220.055 57.8595 220.055 58.3231 219.728 58.4443L218.333 58.96C218.23 58.9981 218.148 59.0797 218.11 59.1826L217.594 60.5771C217.473 60.9047 217.01 60.9047 216.889 60.5771L216.372 59.1826C216.334 59.0798 216.253 58.9981 216.15 58.96L214.755 58.4443C214.428 58.323 214.428 57.8596 214.755 57.7383L216.15 57.2227C216.253 57.1845 216.334 57.1029 216.372 57L216.889 55.6055Z" fill="#FC871F"/>
<path d="M247.452 67.872H243.004L242.268 70H239.916L243.932 58.816H246.54L250.556 70H248.188L247.452 67.872ZM246.844 66.08L245.228 61.408L243.612 66.08H246.844ZM254.137 58.832V70H251.897V58.832H254.137ZM262.083 58.832V70H259.843V58.832H262.083ZM269.048 61.008C270.104 61.008 270.957 61.344 271.608 62.016C272.259 62.6773 272.584 63.6053 272.584 64.8V70H270.344V65.104C270.344 64.4 270.168 63.8613 269.816 63.488C269.464 63.104 268.984 62.912 268.376 62.912C267.757 62.912 267.267 63.104 266.904 63.488C266.552 63.8613 266.376 64.4 266.376 65.104V70H264.136V61.136H266.376V62.24C266.675 61.856 267.053 61.5573 267.512 61.344C267.981 61.12 268.493 61.008 269.048 61.008ZM277.946 70.144C277.221 70.144 276.57 70.016 275.994 69.76C275.418 69.4933 274.959 69.136 274.618 68.688C274.287 68.24 274.106 67.744 274.074 67.2H276.33C276.373 67.5413 276.538 67.824 276.826 68.048C277.125 68.272 277.493 68.384 277.93 68.384C278.357 68.384 278.687 68.2987 278.922 68.128C279.167 67.9573 279.29 67.7387 279.29 67.472C279.29 67.184 279.141 66.9707 278.842 66.832C278.554 66.6827 278.09 66.5227 277.45 66.352C276.789 66.192 276.245 66.0267 275.818 65.856C275.402 65.6853 275.039 65.424 274.73 65.072C274.431 64.72 274.282 64.2453 274.282 63.648C274.282 63.1573 274.421 62.7093 274.698 62.304C274.986 61.8987 275.391 61.5787 275.914 61.344C276.447 61.1093 277.071 60.992 277.786 60.992C278.842 60.992 279.685 61.2587 280.314 61.792C280.943 62.3147 281.29 63.024 281.354 63.92H279.21C279.178 63.568 279.029 63.2907 278.762 63.088C278.506 62.8747 278.159 62.768 277.722 62.768C277.317 62.768 277.002 62.8427 276.778 62.992C276.565 63.1413 276.458 63.3493 276.458 63.616C276.458 63.9147 276.607 64.144 276.906 64.304C277.205 64.4533 277.669 64.608 278.298 64.768C278.938 64.928 279.466 65.0933 279.882 65.264C280.298 65.4347 280.655 65.7013 280.954 66.064C281.263 66.416 281.423 66.8853 281.434 67.472C281.434 67.984 281.29 68.4427 281.002 68.848C280.725 69.2533 280.319 69.5733 279.786 69.808C279.263 70.032 278.65 70.144 277.946 70.144ZM284.249 60.08C283.854 60.08 283.523 59.9573 283.257 59.712C283.001 59.456 282.873 59.1413 282.873 58.768C282.873 58.3947 283.001 58.0853 283.257 57.84C283.523 57.584 283.854 57.456 284.249 57.456C284.643 57.456 284.969 57.584 285.225 57.84C285.491 58.0853 285.625 58.3947 285.625 58.768C285.625 59.1413 285.491 59.456 285.225 59.712C284.969 59.9573 284.643 60.08 284.249 60.08ZM285.353 61.136V70H283.113V61.136H285.353ZM290.878 60.992C291.539 60.992 292.121 61.1253 292.622 61.392C293.123 61.648 293.518 61.984 293.806 62.4V61.136H296.062V70.064C296.062 70.8853 295.897 71.616 295.566 72.256C295.235 72.9067 294.739 73.4187 294.078 73.792C293.417 74.176 292.617 74.368 291.678 74.368C290.419 74.368 289.385 74.0747 288.574 73.488C287.774 72.9013 287.321 72.1013 287.214 71.088H289.438C289.555 71.4933 289.806 71.8133 290.19 72.048C290.585 72.2933 291.059 72.416 291.614 72.416C292.265 72.416 292.793 72.2187 293.198 71.824C293.603 71.44 293.806 70.8533 293.806 70.064V68.688C293.518 69.104 293.118 69.4507 292.606 69.728C292.105 70.0053 291.529 70.144 290.878 70.144C290.131 70.144 289.449 69.952 288.83 69.568C288.211 69.184 287.721 68.6453 287.358 67.952C287.006 67.248 286.83 66.4427 286.83 65.536C286.83 64.64 287.006 63.8453 287.358 63.152C287.721 62.4587 288.206 61.9253 288.814 61.552C289.433 61.1787 290.121 60.992 290.878 60.992ZM293.806 65.568C293.806 65.024 293.699 64.56 293.486 64.176C293.273 63.7813 292.985 63.4827 292.622 63.28C292.259 63.0667 291.87 62.96 291.454 62.96C291.038 62.96 290.654 63.0613 290.302 63.264C289.95 63.4667 289.662 63.7653 289.438 64.16C289.225 64.544 289.118 65.0027 289.118 65.536C289.118 66.0693 289.225 66.5387 289.438 66.944C289.662 67.3387 289.95 67.6427 290.302 67.856C290.665 68.0693 291.049 68.176 291.454 68.176C291.87 68.176 292.259 68.0747 292.622 67.872C292.985 67.6587 293.273 67.36 293.486 66.976C293.699 66.5813 293.806 66.112 293.806 65.568ZM303.082 61.008C303.754 61.008 304.351 61.1573 304.874 61.456C305.396 61.744 305.802 62.176 306.09 62.752C306.388 63.3173 306.538 64 306.538 64.8V70H304.298V65.104C304.298 64.4 304.122 63.8613 303.77 63.488C303.418 63.104 302.938 62.912 302.33 62.912C301.711 62.912 301.22 63.104 300.858 63.488C300.506 63.8613 300.33 64.4 300.33 65.104V70H298.09V58.16H300.33V62.24C300.618 61.856 301.002 61.5573 301.482 61.344C301.962 61.12 302.495 61.008 303.082 61.008ZM311.116 62.976V67.264C311.116 67.5627 311.185 67.7813 311.324 67.92C311.473 68.048 311.718 68.112 312.06 68.112H313.1V70H311.692C309.804 70 308.86 69.0827 308.86 67.248V62.976H307.804V61.136H308.86V58.944H311.116V61.136H313.1V62.976H311.116Z" fill="#0A0F3B"/>
<path d="M218.875 95C218.908 95 218.94 95.0127 218.964 95.0361C218.987 95.0596 219 95.0918 219 95.125V99.5C219 99.8978 219.158 100.279 219.439 100.561C219.721 100.842 220.102 101 220.5 101H224.875C224.908 101 224.94 101.013 224.964 101.036C224.987 101.06 225 101.092 225 101.125V107C225 107.53 224.789 108.039 224.414 108.414C224.039 108.789 223.53 109 223 109H216C215.47 109 214.961 108.789 214.586 108.414C214.211 108.039 214 107.53 214 107V97C214 96.4696 214.211 95.961 214.586 95.5859C214.961 95.2109 215.47 95 216 95H218.875ZM217 105C216.867 105 216.74 105.053 216.646 105.146C216.553 105.24 216.5 105.367 216.5 105.5C216.5 105.633 216.553 105.76 216.646 105.854C216.74 105.947 216.867 106 217 106H222C222.133 106 222.26 105.947 222.354 105.854C222.447 105.76 222.5 105.633 222.5 105.5C222.5 105.367 222.447 105.24 222.354 105.146C222.26 105.053 222.133 105 222 105H217ZM217 102.5C216.867 102.5 216.74 102.553 216.646 102.646C216.553 102.74 216.5 102.867 216.5 103C216.5 103.133 216.553 103.26 216.646 103.354C216.74 103.447 216.867 103.5 217 103.5H222C222.133 103.5 222.26 103.447 222.354 103.354C222.447 103.26 222.5 103.133 222.5 103C222.5 102.867 222.447 102.74 222.354 102.646C222.26 102.553 222.133 102.5 222 102.5H217ZM220.106 95.3994L224.601 99.8936C224.609 99.9023 224.615 99.9137 224.617 99.9258C224.619 99.9376 224.619 99.9498 224.614 99.9609C224.61 99.9723 224.601 99.9824 224.591 99.9893C224.581 99.996 224.569 99.9999 224.557 100H220.5C220.367 100 220.24 99.9473 220.146 99.8535C220.053 99.7598 220 99.6326 220 99.5V95.4434C220 95.4311 220.004 95.4194 220.011 95.4092C220.018 95.3989 220.028 95.3905 220.039 95.3857C220.05 95.3812 220.062 95.3805 220.074 95.3828C220.086 95.3852 220.098 95.3907 220.106 95.3994Z" fill="#FC871F"/>
<path d="M241.84 107.098C241.159 107.098 240.543 106.981 239.992 106.748C239.451 106.515 239.021 106.179 238.704 105.74C238.387 105.301 238.223 104.783 238.214 104.186H240.314C240.342 104.587 240.482 104.905 240.734 105.138C240.995 105.371 241.35 105.488 241.798 105.488C242.255 105.488 242.615 105.381 242.876 105.166C243.137 104.942 243.268 104.653 243.268 104.298C243.268 104.009 243.179 103.771 243.002 103.584C242.825 103.397 242.601 103.253 242.33 103.15C242.069 103.038 241.705 102.917 241.238 102.786C240.603 102.599 240.085 102.417 239.684 102.24C239.292 102.053 238.951 101.778 238.662 101.414C238.382 101.041 238.242 100.546 238.242 99.93C238.242 99.3513 238.387 98.8473 238.676 98.418C238.965 97.9887 239.371 97.662 239.894 97.438C240.417 97.2047 241.014 97.088 241.686 97.088C242.694 97.088 243.511 97.3353 244.136 97.83C244.771 98.3153 245.121 98.9967 245.186 99.874H243.03C243.011 99.538 242.867 99.2627 242.596 99.048C242.335 98.824 241.985 98.712 241.546 98.712C241.163 98.712 240.855 98.81 240.622 99.006C240.398 99.202 240.286 99.4867 240.286 99.86C240.286 100.121 240.37 100.341 240.538 100.518C240.715 100.686 240.93 100.826 241.182 100.938C241.443 101.041 241.807 101.162 242.274 101.302C242.909 101.489 243.427 101.675 243.828 101.862C244.229 102.049 244.575 102.329 244.864 102.702C245.153 103.075 245.298 103.565 245.298 104.172C245.298 104.695 245.163 105.18 244.892 105.628C244.621 106.076 244.225 106.435 243.702 106.706C243.179 106.967 242.559 107.098 241.84 107.098ZM254.067 102.954C254.067 103.234 254.049 103.486 254.011 103.71H248.341C248.388 104.27 248.584 104.709 248.929 105.026C249.275 105.343 249.699 105.502 250.203 105.502C250.931 105.502 251.449 105.189 251.757 104.564H253.871C253.647 105.311 253.218 105.927 252.583 106.412C251.949 106.888 251.169 107.126 250.245 107.126C249.499 107.126 248.827 106.963 248.229 106.636C247.641 106.3 247.179 105.829 246.843 105.222C246.517 104.615 246.353 103.915 246.353 103.122C246.353 102.319 246.517 101.615 246.843 101.008C247.17 100.401 247.627 99.9347 248.215 99.608C248.803 99.2813 249.48 99.118 250.245 99.118C250.983 99.118 251.641 99.2767 252.219 99.594C252.807 99.9113 253.26 100.364 253.577 100.952C253.904 101.531 254.067 102.198 254.067 102.954ZM252.037 102.394C252.028 101.89 251.846 101.489 251.491 101.19C251.137 100.882 250.703 100.728 250.189 100.728C249.704 100.728 249.293 100.877 248.957 101.176C248.631 101.465 248.43 101.871 248.355 102.394H252.037ZM258.326 107.126C257.691 107.126 257.122 107.014 256.618 106.79C256.114 106.557 255.713 106.244 255.414 105.852C255.125 105.46 254.966 105.026 254.938 104.55H256.912C256.949 104.849 257.094 105.096 257.346 105.292C257.607 105.488 257.929 105.586 258.312 105.586C258.685 105.586 258.975 105.511 259.18 105.362C259.395 105.213 259.502 105.021 259.502 104.788C259.502 104.536 259.371 104.349 259.11 104.228C258.858 104.097 258.452 103.957 257.892 103.808C257.313 103.668 256.837 103.523 256.464 103.374C256.1 103.225 255.783 102.996 255.512 102.688C255.251 102.38 255.12 101.965 255.12 101.442C255.12 101.013 255.241 100.621 255.484 100.266C255.736 99.9113 256.091 99.6313 256.548 99.426C257.015 99.2207 257.561 99.118 258.186 99.118C259.11 99.118 259.847 99.3513 260.398 99.818C260.949 100.275 261.252 100.896 261.308 101.68H259.432C259.404 101.372 259.273 101.129 259.04 100.952C258.816 100.765 258.513 100.672 258.13 100.672C257.775 100.672 257.5 100.737 257.304 100.868C257.117 100.999 257.024 101.181 257.024 101.414C257.024 101.675 257.155 101.876 257.416 102.016C257.677 102.147 258.083 102.282 258.634 102.422C259.194 102.562 259.656 102.707 260.02 102.856C260.384 103.005 260.697 103.239 260.958 103.556C261.229 103.864 261.369 104.275 261.378 104.788C261.378 105.236 261.252 105.637 261 105.992C260.757 106.347 260.403 106.627 259.936 106.832C259.479 107.028 258.942 107.126 258.326 107.126ZM265.815 107.126C265.18 107.126 264.611 107.014 264.107 106.79C263.603 106.557 263.201 106.244 262.903 105.852C262.613 105.46 262.455 105.026 262.427 104.55H264.401C264.438 104.849 264.583 105.096 264.835 105.292C265.096 105.488 265.418 105.586 265.801 105.586C266.174 105.586 266.463 105.511 266.669 105.362C266.883 105.213 266.991 105.021 266.991 104.788C266.991 104.536 266.86 104.349 266.599 104.228C266.347 104.097 265.941 103.957 265.381 103.808C264.802 103.668 264.326 103.523 263.953 103.374C263.589 103.225 263.271 102.996 263.001 102.688C262.739 102.38 262.609 101.965 262.609 101.442C262.609 101.013 262.73 100.621 262.973 100.266C263.225 99.9113 263.579 99.6313 264.037 99.426C264.503 99.2207 265.049 99.118 265.675 99.118C266.599 99.118 267.336 99.3513 267.887 99.818C268.437 100.275 268.741 100.896 268.797 101.68H266.921C266.893 101.372 266.762 101.129 266.529 100.952C266.305 100.765 266.001 100.672 265.619 100.672C265.264 100.672 264.989 100.737 264.793 100.868C264.606 100.999 264.513 101.181 264.513 101.414C264.513 101.675 264.643 101.876 264.905 102.016C265.166 102.147 265.572 102.282 266.123 102.422C266.683 102.562 267.145 102.707 267.509 102.856C267.873 103.005 268.185 103.239 268.447 103.556C268.717 103.864 268.857 104.275 268.867 104.788C268.867 105.236 268.741 105.637 268.489 105.992C268.246 106.347 267.891 106.627 267.425 106.832C266.967 107.028 266.431 107.126 265.815 107.126ZM271.33 98.32C270.984 98.32 270.695 98.2127 270.462 97.998C270.238 97.774 270.126 97.4987 270.126 97.172C270.126 96.8453 270.238 96.5747 270.462 96.36C270.695 96.136 270.984 96.024 271.33 96.024C271.675 96.024 271.96 96.136 272.184 96.36C272.417 96.5747 272.534 96.8453 272.534 97.172C272.534 97.4987 272.417 97.774 272.184 97.998C271.96 98.2127 271.675 98.32 271.33 98.32ZM272.296 99.244V107H270.336V99.244H272.296ZM277.536 107.126C276.79 107.126 276.118 106.963 275.52 106.636C274.923 106.3 274.452 105.829 274.106 105.222C273.77 104.615 273.602 103.915 273.602 103.122C273.602 102.329 273.775 101.629 274.12 101.022C274.475 100.415 274.956 99.9487 275.562 99.622C276.169 99.286 276.846 99.118 277.592 99.118C278.339 99.118 279.016 99.286 279.622 99.622C280.229 99.9487 280.705 100.415 281.05 101.022C281.405 101.629 281.582 102.329 281.582 103.122C281.582 103.915 281.4 104.615 281.036 105.222C280.682 105.829 280.196 106.3 279.58 106.636C278.974 106.963 278.292 107.126 277.536 107.126ZM277.536 105.418C277.891 105.418 278.222 105.334 278.53 105.166C278.848 104.989 279.1 104.727 279.286 104.382C279.473 104.037 279.566 103.617 279.566 103.122C279.566 102.385 279.37 101.82 278.978 101.428C278.596 101.027 278.124 100.826 277.564 100.826C277.004 100.826 276.533 101.027 276.15 101.428C275.777 101.82 275.59 102.385 275.59 103.122C275.59 103.859 275.772 104.429 276.136 104.83C276.51 105.222 276.976 105.418 277.536 105.418ZM287.178 99.132C288.102 99.132 288.849 99.426 289.418 100.014C289.987 100.593 290.272 101.405 290.272 102.45V107H288.312V102.716C288.312 102.1 288.158 101.629 287.85 101.302C287.542 100.966 287.122 100.798 286.59 100.798C286.049 100.798 285.619 100.966 285.302 101.302C284.994 101.629 284.84 102.1 284.84 102.716V107H282.88V99.244H284.84V100.21C285.101 99.874 285.433 99.6127 285.834 99.426C286.245 99.23 286.693 99.132 287.178 99.132ZM298.566 107.098C297.884 107.098 297.268 106.981 296.718 106.748C296.176 106.515 295.747 106.179 295.43 105.74C295.112 105.301 294.949 104.783 294.94 104.186H297.04C297.068 104.587 297.208 104.905 297.46 105.138C297.721 105.371 298.076 105.488 298.524 105.488C298.981 105.488 299.34 105.381 299.602 105.166C299.863 104.942 299.994 104.653 299.994 104.298C299.994 104.009 299.905 103.771 299.728 103.584C299.55 103.397 299.326 103.253 299.056 103.15C298.794 103.038 298.43 102.917 297.964 102.786C297.329 102.599 296.811 102.417 296.41 102.24C296.018 102.053 295.677 101.778 295.388 101.414C295.108 101.041 294.968 100.546 294.968 99.93C294.968 99.3513 295.112 98.8473 295.402 98.418C295.691 97.9887 296.097 97.662 296.62 97.438C297.142 97.2047 297.74 97.088 298.412 97.088C299.42 97.088 300.236 97.3353 300.862 97.83C301.496 98.3153 301.846 98.9967 301.912 99.874H299.756C299.737 99.538 299.592 99.2627 299.322 99.048C299.06 98.824 298.71 98.712 298.272 98.712C297.889 98.712 297.581 98.81 297.348 99.006C297.124 99.202 297.012 99.4867 297.012 99.86C297.012 100.121 297.096 100.341 297.264 100.518C297.441 100.686 297.656 100.826 297.908 100.938C298.169 101.041 298.533 101.162 299 101.302C299.634 101.489 300.152 101.675 300.554 101.862C300.955 102.049 301.3 102.329 301.59 102.702C301.879 103.075 302.024 103.565 302.024 104.172C302.024 104.695 301.888 105.18 301.618 105.628C301.347 106.076 300.95 106.435 300.428 106.706C299.905 106.967 299.284 107.098 298.566 107.098ZM310.905 99.244V107H308.931V106.02C308.679 106.356 308.348 106.622 307.937 106.818C307.536 107.005 307.097 107.098 306.621 107.098C306.014 107.098 305.478 106.972 305.011 106.72C304.544 106.459 304.176 106.081 303.905 105.586C303.644 105.082 303.513 104.485 303.513 103.794V99.244H305.473V103.514C305.473 104.13 305.627 104.606 305.935 104.942C306.243 105.269 306.663 105.432 307.195 105.432C307.736 105.432 308.161 105.269 308.469 104.942C308.777 104.606 308.931 104.13 308.931 103.514V99.244H310.905ZM322.331 99.132C323.283 99.132 324.048 99.426 324.627 100.014C325.215 100.593 325.509 101.405 325.509 102.45V107H323.549V102.716C323.549 102.109 323.395 101.647 323.087 101.33C322.779 101.003 322.359 100.84 321.827 100.84C321.295 100.84 320.87 101.003 320.553 101.33C320.245 101.647 320.091 102.109 320.091 102.716V107H318.131V102.716C318.131 102.109 317.977 101.647 317.669 101.33C317.361 101.003 316.941 100.84 316.409 100.84C315.867 100.84 315.438 101.003 315.121 101.33C314.813 101.647 314.659 102.109 314.659 102.716V107H312.699V99.244H314.659V100.182C314.911 99.8553 315.233 99.5987 315.625 99.412C316.026 99.2253 316.465 99.132 316.941 99.132C317.547 99.132 318.089 99.2627 318.565 99.524C319.041 99.776 319.409 100.14 319.671 100.616C319.923 100.168 320.287 99.8087 320.763 99.538C321.248 99.2673 321.771 99.132 322.331 99.132ZM336.861 99.132C337.813 99.132 338.578 99.426 339.157 100.014C339.745 100.593 340.039 101.405 340.039 102.45V107H338.079V102.716C338.079 102.109 337.925 101.647 337.617 101.33C337.309 101.003 336.889 100.84 336.357 100.84C335.825 100.84 335.4 101.003 335.083 101.33C334.775 101.647 334.621 102.109 334.621 102.716V107H332.661V102.716C332.661 102.109 332.507 101.647 332.199 101.33C331.891 101.003 331.471 100.84 330.939 100.84C330.397 100.84 329.968 101.003 329.651 101.33C329.343 101.647 329.189 102.109 329.189 102.716V107H327.229V99.244H329.189V100.182C329.441 99.8553 329.763 99.5987 330.155 99.412C330.556 99.2253 330.995 99.132 331.471 99.132C332.077 99.132 332.619 99.2627 333.095 99.524C333.571 99.776 333.939 100.14 334.201 100.616C334.453 100.168 334.817 99.8087 335.293 99.538C335.778 99.2673 336.301 99.132 336.861 99.132ZM341.255 103.094C341.255 102.31 341.409 101.615 341.717 101.008C342.034 100.401 342.459 99.9347 342.991 99.608C343.532 99.2813 344.134 99.118 344.797 99.118C345.375 99.118 345.879 99.2347 346.309 99.468C346.747 99.7013 347.097 99.9953 347.359 100.35V99.244H349.333V107H347.359V105.866C347.107 106.23 346.757 106.533 346.309 106.776C345.87 107.009 345.361 107.126 344.783 107.126C344.129 107.126 343.532 106.958 342.991 106.622C342.459 106.286 342.034 105.815 341.717 105.208C341.409 104.592 341.255 103.887 341.255 103.094ZM347.359 103.122C347.359 102.646 347.265 102.24 347.079 101.904C346.892 101.559 346.64 101.297 346.323 101.12C346.005 100.933 345.665 100.84 345.301 100.84C344.937 100.84 344.601 100.929 344.293 101.106C343.985 101.283 343.733 101.545 343.537 101.89C343.35 102.226 343.257 102.627 343.257 103.094C343.257 103.561 343.35 103.971 343.537 104.326C343.733 104.671 343.985 104.937 344.293 105.124C344.61 105.311 344.946 105.404 345.301 105.404C345.665 105.404 346.005 105.315 346.323 105.138C346.64 104.951 346.892 104.69 347.079 104.354C347.265 104.009 347.359 103.598 347.359 103.122ZM353.067 100.448C353.319 100.037 353.646 99.7153 354.047 99.482C354.458 99.2487 354.924 99.132 355.447 99.132V101.19H354.929C354.313 101.19 353.846 101.335 353.529 101.624C353.221 101.913 353.067 102.417 353.067 103.136V107H351.107V99.244H353.067V100.448ZM364.047 99.244L359.245 110.668H357.159L358.839 106.804L355.731 99.244H357.929L359.931 104.662L361.961 99.244H364.047Z" fill="black"/>
<mask id="path-7-inside-1_1270_24898" fill="white">
<path d="M211.5 125C211.5 121.686 214.186 119 217.5 119H582.5C585.814 119 588.5 121.686 588.5 125V211C588.5 214.314 585.814 217 582.5 217H217.5C214.186 217 211.5 214.314 211.5 211V125Z"/>
</mask>
<path d="M211.5 119H588.5H211.5ZM588.5 217H211.5H588.5ZM217.5 217C210.873 217 205.5 211.627 205.5 205V131C205.5 124.373 210.873 119 217.5 119C217.5 119 217.5 121.686 217.5 125V211C217.5 214.314 217.5 217 217.5 217ZM588.5 119V217V119Z" fill="#E9EDF2" mask="url(#path-7-inside-1_1270_24898)"/>
<rect x="212" y="119.5" width="376" height="97" rx="7.5" stroke="#E9EDF2"/>
<rect x="231.5" y="139" width="104.572" height="7" rx="3.5" fill="#D9D9D9"/>
<rect x="231.5" y="156" width="132.26" height="7" rx="3.5" fill="#D9D9D9"/>
<rect x="231.5" y="173" width="53.9463" height="7" rx="3.5" fill="#D9D9D9"/>
<rect x="231.5" y="190" width="88.501" height="7" rx="3.5" fill="#D9D9D9"/>
<path d="M218.547 252.683C219.798 252.682 221.013 252.264 221.998 251.493L225.095 254.591L226.092 253.594L222.994 250.497C223.765 249.512 224.184 248.297 224.184 247.046C224.184 243.938 221.655 241.409 218.547 241.409C215.439 241.409 212.91 243.938 212.91 247.046C212.91 250.154 215.439 252.683 218.547 252.683ZM218.547 242.818C220.879 242.818 222.775 244.714 222.775 247.046C222.775 249.377 220.879 251.274 218.547 251.274C216.216 251.274 214.319 249.377 214.319 247.046C214.319 244.714 216.216 242.818 218.547 242.818Z" fill="#FC871F"/>
<path d="M242.458 251.138H238.566L237.922 253H235.864L239.378 243.214H241.66L245.174 253H243.102L242.458 251.138ZM241.926 249.57L240.512 245.482L239.098 249.57H241.926ZM248.307 243.228V253H246.347V243.228H248.307ZM257.836 253.098C256.921 253.098 256.081 252.883 255.316 252.454C254.551 252.025 253.944 251.432 253.496 250.676C253.048 249.911 252.824 249.047 252.824 248.086C252.824 247.134 253.048 246.28 253.496 245.524C253.944 244.759 254.551 244.161 255.316 243.732C256.081 243.303 256.921 243.088 257.836 243.088C258.76 243.088 259.6 243.303 260.356 243.732C261.121 244.161 261.723 244.759 262.162 245.524C262.61 246.28 262.834 247.134 262.834 248.086C262.834 249.047 262.61 249.911 262.162 250.676C261.723 251.432 261.121 252.025 260.356 252.454C259.591 252.883 258.751 253.098 257.836 253.098ZM257.836 251.348C258.424 251.348 258.942 251.217 259.39 250.956C259.838 250.685 260.188 250.303 260.44 249.808C260.692 249.313 260.818 248.739 260.818 248.086C260.818 247.433 260.692 246.863 260.44 246.378C260.188 245.883 259.838 245.505 259.39 245.244C258.942 244.983 258.424 244.852 257.836 244.852C257.248 244.852 256.725 244.983 256.268 245.244C255.82 245.505 255.47 245.883 255.218 246.378C254.966 246.863 254.84 247.433 254.84 248.086C254.84 248.739 254.966 249.313 255.218 249.808C255.47 250.303 255.82 250.685 256.268 250.956C256.725 251.217 257.248 251.348 257.836 251.348ZM266.112 246.378C266.364 246.005 266.709 245.701 267.148 245.468C267.596 245.235 268.105 245.118 268.674 245.118C269.337 245.118 269.934 245.281 270.466 245.608C271.007 245.935 271.432 246.401 271.74 247.008C272.057 247.605 272.216 248.301 272.216 249.094C272.216 249.887 272.057 250.592 271.74 251.208C271.432 251.815 271.007 252.286 270.466 252.622C269.934 252.958 269.337 253.126 268.674 253.126C268.095 253.126 267.587 253.014 267.148 252.79C266.719 252.557 266.373 252.258 266.112 251.894V253H264.152V242.64H266.112V246.378ZM270.214 249.094C270.214 248.627 270.116 248.226 269.92 247.89C269.733 247.545 269.481 247.283 269.164 247.106C268.856 246.929 268.52 246.84 268.156 246.84C267.801 246.84 267.465 246.933 267.148 247.12C266.84 247.297 266.588 247.559 266.392 247.904C266.205 248.249 266.112 248.655 266.112 249.122C266.112 249.589 266.205 249.995 266.392 250.34C266.588 250.685 266.84 250.951 267.148 251.138C267.465 251.315 267.801 251.404 268.156 251.404C268.52 251.404 268.856 251.311 269.164 251.124C269.481 250.937 269.733 250.671 269.92 250.326C270.116 249.981 270.214 249.57 270.214 249.094ZM276.468 253.126C275.834 253.126 275.264 253.014 274.76 252.79C274.256 252.557 273.855 252.244 273.556 251.852C273.267 251.46 273.108 251.026 273.08 250.55H275.054C275.092 250.849 275.236 251.096 275.488 251.292C275.75 251.488 276.072 251.586 276.454 251.586C276.828 251.586 277.117 251.511 277.322 251.362C277.537 251.213 277.644 251.021 277.644 250.788C277.644 250.536 277.514 250.349 277.252 250.228C277 250.097 276.594 249.957 276.034 249.808C275.456 249.668 274.98 249.523 274.606 249.374C274.242 249.225 273.925 248.996 273.654 248.688C273.393 248.38 273.262 247.965 273.262 247.442C273.262 247.013 273.384 246.621 273.626 246.266C273.878 245.911 274.233 245.631 274.69 245.426C275.157 245.221 275.703 245.118 276.328 245.118C277.252 245.118 277.99 245.351 278.54 245.818C279.091 246.275 279.394 246.896 279.45 247.68H277.574C277.546 247.372 277.416 247.129 277.182 246.952C276.958 246.765 276.655 246.672 276.272 246.672C275.918 246.672 275.642 246.737 275.446 246.868C275.26 246.999 275.166 247.181 275.166 247.414C275.166 247.675 275.297 247.876 275.558 248.016C275.82 248.147 276.226 248.282 276.776 248.422C277.336 248.562 277.798 248.707 278.162 248.856C278.526 249.005 278.839 249.239 279.1 249.556C279.371 249.864 279.511 250.275 279.52 250.788C279.52 251.236 279.394 251.637 279.142 251.992C278.9 252.347 278.545 252.627 278.078 252.832C277.621 253.028 277.084 253.126 276.468 253.126ZM288.199 248.954C288.199 249.234 288.181 249.486 288.143 249.71H282.473C282.52 250.27 282.716 250.709 283.061 251.026C283.407 251.343 283.831 251.502 284.335 251.502C285.063 251.502 285.581 251.189 285.889 250.564H288.003C287.779 251.311 287.35 251.927 286.715 252.412C286.081 252.888 285.301 253.126 284.377 253.126C283.631 253.126 282.959 252.963 282.361 252.636C281.773 252.3 281.311 251.829 280.975 251.222C280.649 250.615 280.485 249.915 280.485 249.122C280.485 248.319 280.649 247.615 280.975 247.008C281.302 246.401 281.759 245.935 282.347 245.608C282.935 245.281 283.612 245.118 284.377 245.118C285.115 245.118 285.773 245.277 286.351 245.594C286.939 245.911 287.392 246.364 287.709 246.952C288.036 247.531 288.199 248.198 288.199 248.954ZM286.169 248.394C286.16 247.89 285.978 247.489 285.623 247.19C285.269 246.882 284.835 246.728 284.321 246.728C283.836 246.728 283.425 246.877 283.089 247.176C282.763 247.465 282.562 247.871 282.487 248.394H286.169ZM291.45 246.448C291.702 246.037 292.029 245.715 292.43 245.482C292.841 245.249 293.307 245.132 293.83 245.132V247.19H293.312C292.696 247.19 292.229 247.335 291.912 247.624C291.604 247.913 291.45 248.417 291.45 249.136V253H289.49V245.244H291.45V246.448ZM298.244 251.194L300.204 245.244H302.29L299.42 253H297.04L294.184 245.244H296.284L298.244 251.194ZM302.747 249.094C302.747 248.31 302.901 247.615 303.209 247.008C303.526 246.401 303.951 245.935 304.483 245.608C305.024 245.281 305.626 245.118 306.289 245.118C306.868 245.118 307.372 245.235 307.801 245.468C308.24 245.701 308.59 245.995 308.851 246.35V245.244H310.825V253H308.851V251.866C308.599 252.23 308.249 252.533 307.801 252.776C307.362 253.009 306.854 253.126 306.275 253.126C305.622 253.126 305.024 252.958 304.483 252.622C303.951 252.286 303.526 251.815 303.209 251.208C302.901 250.592 302.747 249.887 302.747 249.094ZM308.851 249.122C308.851 248.646 308.758 248.24 308.571 247.904C308.384 247.559 308.132 247.297 307.815 247.12C307.498 246.933 307.157 246.84 306.793 246.84C306.429 246.84 306.093 246.929 305.785 247.106C305.477 247.283 305.225 247.545 305.029 247.89C304.842 248.226 304.749 248.627 304.749 249.094C304.749 249.561 304.842 249.971 305.029 250.326C305.225 250.671 305.477 250.937 305.785 251.124C306.102 251.311 306.438 251.404 306.793 251.404C307.157 251.404 307.498 251.315 307.815 251.138C308.132 250.951 308.384 250.69 308.571 250.354C308.758 250.009 308.851 249.598 308.851 249.122ZM314.881 246.854V250.606C314.881 250.867 314.942 251.059 315.063 251.18C315.194 251.292 315.409 251.348 315.707 251.348H316.617V253H315.385C313.733 253 312.907 252.197 312.907 250.592V246.854H311.983V245.244H312.907V243.326H314.881V245.244H316.617V246.854H314.881ZM318.881 244.32C318.536 244.32 318.246 244.213 318.013 243.998C317.789 243.774 317.677 243.499 317.677 243.172C317.677 242.845 317.789 242.575 318.013 242.36C318.246 242.136 318.536 242.024 318.881 242.024C319.226 242.024 319.511 242.136 319.735 242.36C319.968 242.575 320.085 242.845 320.085 243.172C320.085 243.499 319.968 243.774 319.735 243.998C319.511 244.213 319.226 244.32 318.881 244.32ZM319.847 245.244V253H317.887V245.244H319.847ZM325.087 253.126C324.341 253.126 323.669 252.963 323.071 252.636C322.474 252.3 322.003 251.829 321.657 251.222C321.321 250.615 321.153 249.915 321.153 249.122C321.153 248.329 321.326 247.629 321.671 247.022C322.026 246.415 322.507 245.949 323.113 245.622C323.72 245.286 324.397 245.118 325.143 245.118C325.89 245.118 326.567 245.286 327.173 245.622C327.78 245.949 328.256 246.415 328.601 247.022C328.956 247.629 329.133 248.329 329.133 249.122C329.133 249.915 328.951 250.615 328.587 251.222C328.233 251.829 327.747 252.3 327.131 252.636C326.525 252.963 325.843 253.126 325.087 253.126ZM325.087 251.418C325.442 251.418 325.773 251.334 326.081 251.166C326.399 250.989 326.651 250.727 326.837 250.382C327.024 250.037 327.117 249.617 327.117 249.122C327.117 248.385 326.921 247.82 326.529 247.428C326.147 247.027 325.675 246.826 325.115 246.826C324.555 246.826 324.084 247.027 323.701 247.428C323.328 247.82 323.141 248.385 323.141 249.122C323.141 249.859 323.323 250.429 323.687 250.83C324.061 251.222 324.527 251.418 325.087 251.418ZM334.729 245.132C335.653 245.132 336.4 245.426 336.969 246.014C337.538 246.593 337.823 247.405 337.823 248.45V253H335.863V248.716C335.863 248.1 335.709 247.629 335.401 247.302C335.093 246.966 334.673 246.798 334.141 246.798C333.6 246.798 333.17 246.966 332.853 247.302C332.545 247.629 332.391 248.1 332.391 248.716V253H330.431V245.244H332.391V246.21C332.652 245.874 332.984 245.613 333.385 245.426C333.796 245.23 334.244 245.132 334.729 245.132ZM342.515 253.126C341.88 253.126 341.311 253.014 340.807 252.79C340.303 252.557 339.902 252.244 339.603 251.852C339.314 251.46 339.155 251.026 339.127 250.55H341.101C341.138 250.849 341.283 251.096 341.535 251.292C341.796 251.488 342.118 251.586 342.501 251.586C342.874 251.586 343.164 251.511 343.369 251.362C343.584 251.213 343.691 251.021 343.691 250.788C343.691 250.536 343.56 250.349 343.299 250.228C343.047 250.097 342.641 249.957 342.081 249.808C341.502 249.668 341.026 249.523 340.653 249.374C340.289 249.225 339.972 248.996 339.701 248.688C339.44 248.38 339.309 247.965 339.309 247.442C339.309 247.013 339.43 246.621 339.673 246.266C339.925 245.911 340.28 245.631 340.737 245.426C341.204 245.221 341.75 245.118 342.375 245.118C343.299 245.118 344.036 245.351 344.587 245.818C345.138 246.275 345.441 246.896 345.497 247.68H343.621C343.593 247.372 343.462 247.129 343.229 246.952C343.005 246.765 342.702 246.672 342.319 246.672C341.964 246.672 341.689 246.737 341.493 246.868C341.306 246.999 341.213 247.181 341.213 247.414C341.213 247.675 341.344 247.876 341.605 248.016C341.866 248.147 342.272 248.282 342.823 248.422C343.383 248.562 343.845 248.707 344.209 248.856C344.573 249.005 344.886 249.239 345.147 249.556C345.418 249.864 345.558 250.275 345.567 250.788C345.567 251.236 345.441 251.637 345.189 251.992C344.946 252.347 344.592 252.627 344.125 252.832C343.668 253.028 343.131 253.126 342.515 253.126Z" fill="black"/>
<mask id="path-16-inside-2_1270_24898" fill="white">
<path d="M211.5 271C211.5 267.686 214.186 265 217.5 265H582.5C585.814 265 588.5 267.686 588.5 271V351C588.5 354.314 585.814 357 582.5 357H217.5C214.186 357 211.5 354.314 211.5 351V271Z"/>
</mask>
<path d="M211.5 265H588.5H211.5ZM588.5 357H211.5H588.5ZM217.5 357C210.873 357 205.5 351.627 205.5 345V277C205.5 270.373 210.873 265 217.5 265C217.5 265 217.5 267.686 217.5 271V351C217.5 354.314 217.5 357 217.5 357ZM588.5 265V357V265Z" fill="#E9EDF2" mask="url(#path-16-inside-2_1270_24898)"/>
<rect x="212" y="265.5" width="376" height="91" rx="7.5" stroke="#E9EDF2"/>
<rect x="231.5" y="285" width="93.0664" height="7" rx="3.5" fill="#D9D9D9"/>
<rect x="231.5" y="300" width="132.26" height="7" rx="3.5" fill="#D9D9D9"/>
<rect x="231.5" y="315" width="167.472" height="7" rx="3.5" fill="#D9D9D9"/>
<rect x="231.5" y="330" width="88.501" height="7" rx="3.5" fill="#D9D9D9"/>
<path d="M225.842 384.074L223.249 386.667L220.892 384.31L223.485 381.717C222.694 381.392 221.824 381.308 220.985 381.476C220.147 381.644 219.377 382.056 218.772 382.661C218.167 383.266 217.755 384.037 217.587 384.875C217.419 385.714 217.503 386.583 217.829 387.374L213.645 391.558C213.583 391.62 213.534 391.693 213.5 391.774C213.466 391.855 213.449 391.942 213.449 392.029C213.449 392.117 213.466 392.203 213.5 392.284C213.534 392.365 213.583 392.439 213.645 392.5L215.059 393.915C215.121 393.977 215.195 394.026 215.276 394.06C215.356 394.093 215.443 394.111 215.531 394.111C215.618 394.111 215.705 394.093 215.786 394.06C215.867 394.026 215.94 393.977 216.002 393.915L220.185 389.731C220.976 390.057 221.846 390.141 222.685 389.973C223.524 389.806 224.294 389.393 224.899 388.788C225.504 388.183 225.916 387.413 226.084 386.574C226.252 385.735 226.167 384.866 225.842 384.074Z" fill="#FC871F"/>
<path d="M239.84 393.098C239.159 393.098 238.543 392.981 237.992 392.748C237.451 392.515 237.021 392.179 236.704 391.74C236.387 391.301 236.223 390.783 236.214 390.186H238.314C238.342 390.587 238.482 390.905 238.734 391.138C238.995 391.371 239.35 391.488 239.798 391.488C240.255 391.488 240.615 391.381 240.876 391.166C241.137 390.942 241.268 390.653 241.268 390.298C241.268 390.009 241.179 389.771 241.002 389.584C240.825 389.397 240.601 389.253 240.33 389.15C240.069 389.038 239.705 388.917 239.238 388.786C238.603 388.599 238.085 388.417 237.684 388.24C237.292 388.053 236.951 387.778 236.662 387.414C236.382 387.041 236.242 386.546 236.242 385.93C236.242 385.351 236.387 384.847 236.676 384.418C236.965 383.989 237.371 383.662 237.894 383.438C238.417 383.205 239.014 383.088 239.686 383.088C240.694 383.088 241.511 383.335 242.136 383.83C242.771 384.315 243.121 384.997 243.186 385.874H241.03C241.011 385.538 240.867 385.263 240.596 385.048C240.335 384.824 239.985 384.712 239.546 384.712C239.163 384.712 238.855 384.81 238.622 385.006C238.398 385.202 238.286 385.487 238.286 385.86C238.286 386.121 238.37 386.341 238.538 386.518C238.715 386.686 238.93 386.826 239.182 386.938C239.443 387.041 239.807 387.162 240.274 387.302C240.909 387.489 241.427 387.675 241.828 387.862C242.229 388.049 242.575 388.329 242.864 388.702C243.153 389.075 243.298 389.565 243.298 390.172C243.298 390.695 243.163 391.18 242.892 391.628C242.621 392.076 242.225 392.435 241.702 392.706C241.179 392.967 240.559 393.098 239.84 393.098ZM252.179 385.244V393H250.205V392.02C249.953 392.356 249.622 392.622 249.211 392.818C248.81 393.005 248.371 393.098 247.895 393.098C247.289 393.098 246.752 392.972 246.285 392.72C245.819 392.459 245.45 392.081 245.179 391.586C244.918 391.082 244.787 390.485 244.787 389.794V385.244H246.747V389.514C246.747 390.13 246.901 390.606 247.209 390.942C247.517 391.269 247.937 391.432 248.469 391.432C249.011 391.432 249.435 391.269 249.743 390.942C250.051 390.606 250.205 390.13 250.205 389.514V385.244H252.179ZM257.011 385.118C257.59 385.118 258.098 385.235 258.537 385.468C258.976 385.692 259.321 385.986 259.573 386.35V385.244H261.547V393.056C261.547 393.775 261.402 394.414 261.113 394.974C260.824 395.543 260.39 395.991 259.811 396.318C259.232 396.654 258.532 396.822 257.711 396.822C256.61 396.822 255.704 396.565 254.995 396.052C254.295 395.539 253.898 394.839 253.805 393.952H255.751C255.854 394.307 256.073 394.587 256.409 394.792C256.754 395.007 257.17 395.114 257.655 395.114C258.224 395.114 258.686 394.941 259.041 394.596C259.396 394.26 259.573 393.747 259.573 393.056V391.852C259.321 392.216 258.971 392.519 258.523 392.762C258.084 393.005 257.58 393.126 257.011 393.126C256.358 393.126 255.76 392.958 255.219 392.622C254.678 392.286 254.248 391.815 253.931 391.208C253.623 390.592 253.469 389.887 253.469 389.094C253.469 388.31 253.623 387.615 253.931 387.008C254.248 386.401 254.673 385.935 255.205 385.608C255.746 385.281 256.348 385.118 257.011 385.118ZM259.573 389.122C259.573 388.646 259.48 388.24 259.293 387.904C259.106 387.559 258.854 387.297 258.537 387.12C258.22 386.933 257.879 386.84 257.515 386.84C257.151 386.84 256.815 386.929 256.507 387.106C256.199 387.283 255.947 387.545 255.751 387.89C255.564 388.226 255.471 388.627 255.471 389.094C255.471 389.561 255.564 389.971 255.751 390.326C255.947 390.671 256.199 390.937 256.507 391.124C256.824 391.311 257.16 391.404 257.515 391.404C257.879 391.404 258.22 391.315 258.537 391.138C258.854 390.951 259.106 390.69 259.293 390.354C259.48 390.009 259.573 389.598 259.573 389.122ZM266.359 385.118C266.938 385.118 267.447 385.235 267.885 385.468C268.324 385.692 268.669 385.986 268.921 386.35V385.244H270.895V393.056C270.895 393.775 270.751 394.414 270.461 394.974C270.172 395.543 269.738 395.991 269.159 396.318C268.581 396.654 267.881 396.822 267.059 396.822C265.958 396.822 265.053 396.565 264.343 396.052C263.643 395.539 263.247 394.839 263.153 393.952H265.099C265.202 394.307 265.421 394.587 265.757 394.792C266.103 395.007 266.518 395.114 267.003 395.114C267.573 395.114 268.035 394.941 268.389 394.596C268.744 394.26 268.921 393.747 268.921 393.056V391.852C268.669 392.216 268.319 392.519 267.871 392.762C267.433 393.005 266.929 393.126 266.359 393.126C265.706 393.126 265.109 392.958 264.567 392.622C264.026 392.286 263.597 391.815 263.279 391.208C262.971 390.592 262.817 389.887 262.817 389.094C262.817 388.31 262.971 387.615 263.279 387.008C263.597 386.401 264.021 385.935 264.553 385.608C265.095 385.281 265.697 385.118 266.359 385.118ZM268.921 389.122C268.921 388.646 268.828 388.24 268.641 387.904C268.455 387.559 268.203 387.297 267.885 387.12C267.568 386.933 267.227 386.84 266.863 386.84C266.499 386.84 266.163 386.929 265.855 387.106C265.547 387.283 265.295 387.545 265.099 387.89C264.913 388.226 264.819 388.627 264.819 389.094C264.819 389.561 264.913 389.971 265.099 390.326C265.295 390.671 265.547 390.937 265.855 391.124C266.173 391.311 266.509 391.404 266.863 391.404C267.227 391.404 267.568 391.315 267.885 391.138C268.203 390.951 268.455 390.69 268.641 390.354C268.828 390.009 268.921 389.598 268.921 389.122ZM279.88 388.954C279.88 389.234 279.861 389.486 279.824 389.71H274.154C274.2 390.27 274.396 390.709 274.742 391.026C275.087 391.343 275.512 391.502 276.016 391.502C276.744 391.502 277.262 391.189 277.57 390.564H279.684C279.46 391.311 279.03 391.927 278.396 392.412C277.761 392.888 276.982 393.126 276.058 393.126C275.311 393.126 274.639 392.963 274.042 392.636C273.454 392.3 272.992 391.829 272.656 391.222C272.329 390.615 272.166 389.915 272.166 389.122C272.166 388.319 272.329 387.615 272.656 387.008C272.982 386.401 273.44 385.935 274.028 385.608C274.616 385.281 275.292 385.118 276.058 385.118C276.795 385.118 277.453 385.277 278.032 385.594C278.62 385.911 279.072 386.364 279.39 386.952C279.716 387.531 279.88 388.198 279.88 388.954ZM277.85 388.394C277.84 387.89 277.658 387.489 277.304 387.19C276.949 386.882 276.515 386.728 276.002 386.728C275.516 386.728 275.106 386.877 274.77 387.176C274.443 387.465 274.242 387.871 274.168 388.394H277.85ZM284.138 393.126C283.504 393.126 282.934 393.014 282.43 392.79C281.926 392.557 281.525 392.244 281.226 391.852C280.937 391.46 280.778 391.026 280.75 390.55H282.724C282.762 390.849 282.906 391.096 283.158 391.292C283.42 391.488 283.742 391.586 284.124 391.586C284.498 391.586 284.787 391.511 284.992 391.362C285.207 391.213 285.314 391.021 285.314 390.788C285.314 390.536 285.184 390.349 284.922 390.228C284.67 390.097 284.264 389.957 283.704 389.808C283.126 389.668 282.65 389.523 282.276 389.374C281.912 389.225 281.595 388.996 281.324 388.688C281.063 388.38 280.932 387.965 280.932 387.442C280.932 387.013 281.054 386.621 281.296 386.266C281.548 385.911 281.903 385.631 282.36 385.426C282.827 385.221 283.373 385.118 283.998 385.118C284.922 385.118 285.66 385.351 286.21 385.818C286.761 386.275 287.064 386.896 287.12 387.68H285.244C285.216 387.372 285.086 387.129 284.852 386.952C284.628 386.765 284.325 386.672 283.942 386.672C283.588 386.672 283.312 386.737 283.116 386.868C282.93 386.999 282.836 387.181 282.836 387.414C282.836 387.675 282.967 387.876 283.228 388.016C283.49 388.147 283.896 388.282 284.446 388.422C285.006 388.562 285.468 388.707 285.832 388.856C286.196 389.005 286.509 389.239 286.77 389.556C287.041 389.864 287.181 390.275 287.19 390.788C287.19 391.236 287.064 391.637 286.812 391.992C286.57 392.347 286.215 392.627 285.748 392.832C285.291 393.028 284.754 393.126 284.138 393.126ZM290.941 386.854V390.606C290.941 390.867 291.002 391.059 291.123 391.18C291.254 391.292 291.469 391.348 291.767 391.348H292.677V393H291.445C289.793 393 288.967 392.197 288.967 390.592V386.854H288.043V385.244H288.967V383.326H290.941V385.244H292.677V386.854H290.941ZM301.157 388.954C301.157 389.234 301.138 389.486 301.101 389.71H295.431C295.478 390.27 295.674 390.709 296.019 391.026C296.364 391.343 296.789 391.502 297.293 391.502C298.021 391.502 298.539 391.189 298.847 390.564H300.961C300.737 391.311 300.308 391.927 299.673 392.412C299.038 392.888 298.259 393.126 297.335 393.126C296.588 393.126 295.916 392.963 295.319 392.636C294.731 392.3 294.269 391.829 293.933 391.222C293.606 390.615 293.443 389.915 293.443 389.122C293.443 388.319 293.606 387.615 293.933 387.008C294.26 386.401 294.717 385.935 295.305 385.608C295.893 385.281 296.57 385.118 297.335 385.118C298.072 385.118 298.73 385.277 299.309 385.594C299.897 385.911 300.35 386.364 300.667 386.952C300.994 387.531 301.157 388.198 301.157 388.954ZM299.127 388.394C299.118 387.89 298.936 387.489 298.581 387.19C298.226 386.882 297.792 386.728 297.279 386.728C296.794 386.728 296.383 386.877 296.047 387.176C295.72 387.465 295.52 387.871 295.445 388.394H299.127ZM301.944 389.094C301.944 388.31 302.098 387.615 302.406 387.008C302.723 386.401 303.152 385.935 303.694 385.608C304.235 385.281 304.837 385.118 305.5 385.118C306.004 385.118 306.484 385.23 306.942 385.454C307.399 385.669 307.763 385.958 308.034 386.322V382.64H310.022V393H308.034V391.852C307.791 392.235 307.45 392.543 307.012 392.776C306.573 393.009 306.064 393.126 305.486 393.126C304.832 393.126 304.235 392.958 303.694 392.622C303.152 392.286 302.723 391.815 302.406 391.208C302.098 390.592 301.944 389.887 301.944 389.094ZM308.048 389.122C308.048 388.646 307.954 388.24 307.768 387.904C307.581 387.559 307.329 387.297 307.012 387.12C306.694 386.933 306.354 386.84 305.99 386.84C305.626 386.84 305.29 386.929 304.982 387.106C304.674 387.283 304.422 387.545 304.226 387.89C304.039 388.226 303.946 388.627 303.946 389.094C303.946 389.561 304.039 389.971 304.226 390.326C304.422 390.671 304.674 390.937 304.982 391.124C305.299 391.311 305.635 391.404 305.99 391.404C306.354 391.404 306.694 391.315 307.012 391.138C307.329 390.951 307.581 390.69 307.768 390.354C307.954 390.009 308.048 389.598 308.048 389.122ZM321.026 383.228V384.81H316.952V387.316H320.074V388.87H316.952V393H314.992V383.228H321.026ZM323.27 384.32C322.924 384.32 322.635 384.213 322.402 383.998C322.178 383.774 322.066 383.499 322.066 383.172C322.066 382.845 322.178 382.575 322.402 382.36C322.635 382.136 322.924 382.024 323.27 382.024C323.615 382.024 323.9 382.136 324.124 382.36C324.357 382.575 324.474 382.845 324.474 383.172C324.474 383.499 324.357 383.774 324.124 383.998C323.9 384.213 323.615 384.32 323.27 384.32ZM324.236 385.244V393H322.276V385.244H324.236ZM330.316 393L328.72 390.592L327.306 393H325.206L327.74 389.108L325.178 385.244H327.39L328.972 387.638L330.4 385.244H332.5L329.952 389.108L332.528 393H330.316ZM340.663 388.954C340.663 389.234 340.644 389.486 340.607 389.71H334.937C334.983 390.27 335.179 390.709 335.525 391.026C335.87 391.343 336.295 391.502 336.799 391.502C337.527 391.502 338.045 391.189 338.353 390.564H340.467C340.243 391.311 339.813 391.927 339.179 392.412C338.544 392.888 337.765 393.126 336.841 393.126C336.094 393.126 335.422 392.963 334.825 392.636C334.237 392.3 333.775 391.829 333.439 391.222C333.112 390.615 332.949 389.915 332.949 389.122C332.949 388.319 333.112 387.615 333.439 387.008C333.765 386.401 334.223 385.935 334.811 385.608C335.399 385.281 336.075 385.118 336.841 385.118C337.578 385.118 338.236 385.277 338.815 385.594C339.403 385.911 339.855 386.364 340.173 386.952C340.499 387.531 340.663 388.198 340.663 388.954ZM338.633 388.394C338.623 387.89 338.441 387.489 338.087 387.19C337.732 386.882 337.298 386.728 336.785 386.728C336.299 386.728 335.889 386.877 335.553 387.176C335.226 387.465 335.025 387.871 334.951 388.394H338.633ZM344.921 393.126C344.287 393.126 343.717 393.014 343.213 392.79C342.709 392.557 342.308 392.244 342.009 391.852C341.72 391.46 341.561 391.026 341.533 390.55H343.507C343.545 390.849 343.689 391.096 343.941 391.292C344.203 391.488 344.525 391.586 344.907 391.586C345.281 391.586 345.57 391.511 345.775 391.362C345.99 391.213 346.097 391.021 346.097 390.788C346.097 390.536 345.967 390.349 345.705 390.228C345.453 390.097 345.047 389.957 344.487 389.808C343.909 389.668 343.433 389.523 343.059 389.374C342.695 389.225 342.378 388.996 342.107 388.688C341.846 388.38 341.715 387.965 341.715 387.442C341.715 387.013 341.837 386.621 342.079 386.266C342.331 385.911 342.686 385.631 343.143 385.426C343.61 385.221 344.156 385.118 344.781 385.118C345.705 385.118 346.443 385.351 346.993 385.818C347.544 386.275 347.847 386.896 347.903 387.68H346.027C345.999 387.372 345.869 387.129 345.635 386.952C345.411 386.765 345.108 386.672 344.725 386.672C344.371 386.672 344.095 386.737 343.899 386.868C343.713 386.999 343.619 387.181 343.619 387.414C343.619 387.675 343.75 387.876 344.011 388.016C344.273 388.147 344.679 388.282 345.229 388.422C345.789 388.562 346.251 388.707 346.615 388.856C346.979 389.005 347.292 389.239 347.553 389.556C347.824 389.864 347.964 390.275 347.973 390.788C347.973 391.236 347.847 391.637 347.595 391.992C347.353 392.347 346.998 392.627 346.531 392.832C346.074 393.028 345.537 393.126 344.921 393.126Z" fill="black"/>
<mask id="path-25-inside-3_1270_24898" fill="white">
<path d="M211.5 411C211.5 407.686 214.186 405 217.5 405H582.5C585.814 405 588.5 407.686 588.5 411V491C588.5 494.314 585.814 497 582.5 497H217.5C214.186 497 211.5 494.314 211.5 491V411Z"/>
</mask>
<path d="M211.5 411C211.5 407.686 214.186 405 217.5 405H582.5C585.814 405 588.5 407.686 588.5 411V491C588.5 494.314 585.814 497 582.5 497H217.5C214.186 497 211.5 494.314 211.5 491V411Z" fill="#F8F8F8"/>
<path d="M211.5 405H588.5H211.5ZM588.5 497H211.5H588.5ZM217.5 497C210.873 497 205.5 491.627 205.5 485V417C205.5 410.373 210.873 405 217.5 405C217.5 405 217.5 407.686 217.5 411V491C217.5 494.314 217.5 497 217.5 497ZM588.5 405V497V405Z" fill="#FC871F" mask="url(#path-25-inside-3_1270_24898)"/>
<rect x="212" y="405.5" width="376" height="91" rx="7.5" stroke="#FC871F"/>
<rect x="231.5" y="425" width="93.0664" height="7" rx="3.5" fill="#D9D9D9"/>
<rect x="231.5" y="440" width="132.26" height="7" rx="3.5" fill="#D9D9D9"/>
<rect x="231.5" y="455" width="167.472" height="7" rx="3.5" fill="#D9D9D9"/>
<rect x="231.5" y="470" width="88.501" height="7" rx="3.5" fill="#D9D9D9"/>
</g>
<defs>
<filter id="filter0_dd_1270_24898" x="172.46" y="31.21" width="455.08" height="564.08" filterUnits="userSpaceOnUse" color-interpolation-filters="sRGB">
<feFlood flood-opacity="0" result="BackgroundImageFix"/>
<feColorMatrix in="SourceAlpha" type="matrix" values="0 0 0 0 0 0 0 0 0 0 0 0 0 0 0 0 0 0 127 0" result="hardAlpha"/>
<feOffset dy="0.897035"/>
<feGaussianBlur stdDeviation="1.79407"/>
<feComposite in2="hardAlpha" operator="out"/>
<feColorMatrix type="matrix" values="0 0 0 0 0 0 0 0 0 0 0 0 0 0 0 0 0 0 0.1 0"/>
<feBlend mode="normal" in2="BackgroundImageFix" result="effect1_dropShadow_1270_24898"/>
<feColorMatrix in="SourceAlpha" type="matrix" values="0 0 0 0 0 0 0 0 0 0 0 0 0 0 0 0 0 0 127 0" result="hardAlpha"/>
<feOffset dy="23.25"/>
<feGaussianBlur stdDeviation="13.52"/>
<feComposite in2="hardAlpha" operator="out"/>
<feColorMatrix type="matrix" values="0 0 0 0 0 0 0 0 0 0 0 0 0 0 0 0 0 0 0.15 0"/>
<feBlend mode="normal" in2="effect1_dropShadow_1270_24898" result="effect2_dropShadow_1270_24898"/>
<feBlend mode="normal" in="SourceGraphic" in2="effect2_dropShadow_1270_24898" result="shape"/>
</filter>
</defs>
</svg>
