<svg width="1111" height="600" viewBox="0 0 1111 600" fill="none" xmlns="http://www.w3.org/2000/svg">
<path d="M259.982 411.708L259.765 411.925L259.982 412.142L260.199 411.925L259.982 411.708ZM189.771 341.497L189.554 341.714H189.554L189.771 341.497ZM189.771 229.444L189.554 229.227H189.554L189.771 229.444ZM364.73 54.4845L364.947 54.7015L364.73 54.4845ZM470.104 369.74L469.887 369.957L470.104 369.74ZM491.319 390.955L491.102 391.172L491.319 390.955ZM491.319 517L491.536 517.217V517.217L491.319 517ZM484.323 523.996L484.106 523.779L484.106 523.779L484.323 523.996ZM372.27 523.996L372.487 523.779V523.779L372.27 523.996ZM288.033 439.758L287.816 439.541L287.599 439.758L287.816 439.975L288.033 439.758ZM358.051 369.74L358.268 369.957L358.051 369.74ZM490.968 54.4845L490.751 54.7015C525.49 89.4412 525.49 145.765 490.751 180.505L490.968 180.722L491.185 180.939C526.164 145.959 526.164 89.247 491.185 54.2675L490.968 54.4845ZM490.968 180.722L490.751 180.505L259.765 411.491L259.982 411.708L260.199 411.925L491.185 180.939L490.968 180.722ZM259.982 411.708L260.199 411.491L189.988 341.28L189.771 341.497L189.554 341.714L259.765 411.925L259.982 411.708ZM189.771 341.497L189.988 341.28C159.165 310.457 159.165 260.484 189.988 229.661L189.771 229.444L189.554 229.227C158.492 260.29 158.492 310.652 189.554 341.714L189.771 341.497ZM189.771 229.444L189.988 229.661L364.947 54.7015L364.73 54.4845L364.513 54.2675L189.554 229.227L189.771 229.444ZM364.73 54.4845L364.947 54.7015C399.687 19.9618 456.011 19.9618 490.751 54.7015L490.968 54.4845L491.185 54.2675C456.205 19.2881 399.493 19.2881 364.513 54.2675L364.73 54.4845ZM470.104 369.74L469.887 369.957L491.102 391.172L491.319 390.955L491.536 390.738L470.321 369.523L470.104 369.74ZM491.319 390.955L491.102 391.172C525.788 425.858 525.788 482.096 491.102 516.783L491.319 517L491.536 517.217C526.462 482.29 526.462 425.664 491.536 390.738L491.319 390.955ZM491.319 517L491.102 516.783L484.106 523.779L484.323 523.996L484.54 524.213L491.536 517.217L491.319 517ZM484.323 523.996L484.106 523.779C453.283 554.602 403.31 554.602 372.487 523.779L372.27 523.996L372.053 524.213C403.115 555.275 453.478 555.275 484.54 524.213L484.323 523.996ZM372.27 523.996L372.487 523.779L288.25 439.541L288.033 439.758L287.816 439.975L372.053 524.213L372.27 523.996ZM288.033 439.758L288.25 439.975L358.268 369.957L358.051 369.74L357.834 369.523L287.816 439.541L288.033 439.758ZM358.051 369.74L358.268 369.957C389.091 339.134 439.065 339.134 469.887 369.957L470.104 369.74L470.321 369.523C439.259 338.461 388.897 338.461 357.834 369.523L358.051 369.74Z" fill="white" fill-opacity="0.1"/>
<g filter="url(#filter0_i_1270_14873)">
<path d="M261.405 83.2994C264.039 73.9711 273.749 66.4098 283.588 66.024L485.181 58.1192C499.315 57.565 508.2 68.2749 504.725 81.6817L387.286 534.65C383.912 547.674 370.147 558.232 356.537 558.232H152.337C138.517 558.232 130.223 547.349 133.962 534.121L261.405 83.2994Z" fill="#F8F8F9"/>
</g>
<path d="M485.129 58.483C499.051 57.9371 507.776 68.4746 504.36 81.6543L386.922 534.623C383.599 547.45 370.026 557.869 356.603 557.869H152.403C138.794 557.869 130.648 547.163 134.324 534.157L261.768 83.3355C264.349 74.1943 273.878 66.7663 283.537 66.3876L485.129 58.483Z" stroke="#B8BDC7" stroke-width="0.741082"/>
<g filter="url(#filter1_d_1270_14873)">
<path d="M217.585 130.551C218.946 125.795 223.958 121.993 228.903 121.959L424.493 120.611C429.583 120.576 432.684 124.531 431.413 129.423L411.525 205.731C410.259 210.598 405.129 214.543 400.083 214.543H202.896C197.751 214.543 194.689 210.463 196.108 205.511L217.585 130.551Z" fill="#EE8E39"/>
</g>
<path d="M230.704 140.675C231.877 136.796 235.993 133.694 240.103 133.597L286.865 132.487C291.231 132.383 293.922 135.7 292.825 139.828L279.244 191.045C278.169 195.101 273.841 198.388 269.58 198.388H221.226C216.857 198.388 214.276 194.938 215.532 190.782L230.704 140.675Z" fill="#FADDC4"/>
<path d="M230.704 140.675C231.877 136.796 235.993 133.694 240.103 133.597L286.865 132.487C291.231 132.383 293.922 135.7 292.825 139.828L279.244 191.045C278.169 195.101 273.841 198.388 269.58 198.388H221.226C216.857 198.388 214.276 194.938 215.532 190.782L230.704 140.675Z" fill="#FADDC4"/>
<path d="M255.09 147.552C255.112 148.754 255.484 151.201 258.215 151.201C259.672 151.201 260.881 150.557 261.919 149.232C262.398 148.619 262.736 147.989 262.939 147.552H255.09Z" fill="#EE8E39"/>
<path d="M261.675 179.28H238.444L237.474 183.133H260.705L261.675 179.28Z" fill="#EE8E39"/>
<path d="M264.624 148.458L269.574 150.809L275.304 161.264L266.82 168.154L265.628 166.351L262.963 176.77H239.4L242.065 166.347L239.942 168.154L234.984 161.264L246.057 150.809L252.298 148.435C252.316 149.002 252.398 149.714 252.627 150.426C253.179 152.201 254.367 153.285 256.079 153.609L255.163 157.177H257.526L258.442 153.609C260.321 153.281 262.022 152.181 263.416 150.379C263.943 149.69 264.337 149.012 264.624 148.458Z" fill="#EE8E39"/>
<path fill-rule="evenodd" clip-rule="evenodd" d="M310.188 138.345C310.544 137.839 311.289 137.839 311.367 138.345L311.772 141.03C311.82 141.351 312.077 141.569 312.416 141.596L315.33 141.828C315.889 141.873 315.921 142.555 315.395 142.911L312.617 144.803C312.284 145.028 312.069 145.382 312.058 145.72L311.978 148.548C311.962 149.081 311.244 149.503 310.844 149.217L308.707 147.701C308.453 147.521 308.075 147.521 307.717 147.701L304.758 149.217C304.201 149.503 303.717 149.081 303.989 148.548L305.46 145.72C305.638 145.382 305.619 145.028 305.407 144.803L303.656 142.911C303.326 142.555 303.739 141.873 304.315 141.828L307.354 141.596C307.715 141.569 308.081 141.351 308.311 141.03L310.188 138.345ZM327.534 138.345C327.89 137.839 328.636 137.839 328.714 138.345L329.118 141.03C329.166 141.351 329.423 141.569 329.763 141.596L332.677 141.828C333.224 141.873 333.268 142.555 332.741 142.911L329.964 144.803C329.63 145.028 329.416 145.382 329.405 145.72L329.325 148.548C329.308 149.081 328.591 149.503 328.191 149.217L326.054 147.701C325.8 147.521 325.422 147.521 325.063 147.701L322.105 149.217C321.548 149.503 321.063 149.081 321.335 148.548L322.806 145.72C322.984 145.382 322.965 145.028 322.754 144.803L321.002 142.911C320.672 142.555 321.085 141.873 321.661 141.828L324.7 141.596C325.062 141.569 325.428 141.351 325.658 141.03L327.534 138.345ZM346.049 138.345C345.982 137.839 345.237 137.839 344.881 138.345L343.004 141.03C342.774 141.351 342.408 141.569 342.047 141.596L339.008 141.828C338.432 141.873 338.019 142.555 338.349 142.911L340.1 144.803C340.312 145.028 340.331 145.382 340.153 145.72L338.682 148.548C338.41 149.081 338.894 149.503 339.451 149.217L342.41 147.701C342.768 147.521 343.147 147.521 343.4 147.701L345.538 149.217C345.937 149.503 346.655 149.081 346.671 148.548L346.751 145.72C346.762 145.382 346.977 145.028 347.3 144.803L350.088 142.911C350.614 142.555 350.571 141.873 350.023 141.828L347.11 141.596C346.77 141.569 346.513 141.351 346.465 141.03L346.049 138.345ZM362.406 138.345C362.761 137.839 363.507 137.839 363.585 138.345L363.989 141.03C364.037 141.351 364.295 141.569 364.634 141.596L367.548 141.828C368.107 141.873 368.139 142.555 367.612 142.911L364.835 144.803C364.502 145.028 364.287 145.382 364.276 145.72L364.196 148.548C364.179 149.081 363.462 149.503 363.062 149.217L360.925 147.701C360.671 147.521 360.293 147.521 359.935 147.701L356.976 149.217C356.419 149.503 355.934 149.081 356.207 148.548L357.678 145.72C357.856 145.382 357.837 145.028 357.625 144.803L355.874 142.911C355.543 142.555 355.956 141.873 356.533 141.828L359.572 141.596C359.933 141.569 360.299 141.351 360.529 141.03L362.406 138.345ZM381.085 138.412C381.007 137.906 380.273 137.906 379.917 138.412L378.041 141.096C377.81 141.417 377.445 141.635 377.083 141.663L374.033 141.896C373.468 141.939 373.055 142.621 373.385 142.978L375.137 144.869C375.337 145.095 375.356 145.449 375.189 145.786L373.718 148.615C373.446 149.149 373.919 149.57 374.476 149.284L377.446 147.768C377.804 147.587 378.183 147.587 378.436 147.768L380.573 149.284C380.973 149.57 381.68 149.149 381.696 148.615L381.776 145.786C381.787 145.449 382.002 145.095 382.336 144.869L385.124 142.978C385.65 142.621 385.607 141.939 385.059 141.896L382.146 141.663C381.795 141.635 381.549 141.417 381.501 141.096L381.085 138.412Z" fill="white"/>
<path d="M406.393 160.154H300.164C298.5 160.154 296.79 161.469 296.345 163.092C295.9 164.714 296.888 166.029 298.553 166.029H404.782C406.446 166.029 408.156 164.714 408.601 163.092C409.046 161.469 408.057 160.154 406.393 160.154Z" fill="#FADDC4"/>
<path d="M402.439 173.832H296.21C294.546 173.832 292.836 175.147 292.391 176.769C291.946 178.392 292.934 179.707 294.599 179.707H400.828C402.492 179.707 404.202 178.392 404.647 176.769C405.092 175.147 404.103 173.832 402.439 173.832Z" fill="#FADDC4"/>
<path d="M364.84 187.511H292.265C290.6 187.511 288.889 188.826 288.444 190.448C287.999 192.07 288.988 193.385 290.653 193.385H363.228C364.893 193.385 366.603 192.07 367.048 190.448C367.493 188.826 366.505 187.511 364.84 187.511Z" fill="#FADDC4"/>
<path d="M243.524 253.202C244.697 249.322 248.813 246.221 252.922 246.124L299.685 245.013C304.05 244.909 306.741 248.226 305.645 252.354L292.064 303.571C290.989 307.627 286.661 310.914 282.4 310.914H234.046C229.677 310.914 227.096 307.465 228.352 303.308L243.524 253.202Z" fill="black" fill-opacity="0.15"/>
<path d="M267.911 260.079C267.933 261.281 268.305 263.729 271.035 263.729C272.492 263.729 273.702 263.084 274.739 261.76C275.219 261.146 275.556 260.517 275.759 260.079H267.911Z" fill="#FBFCFC"/>
<path d="M274.496 291.807H251.264L250.294 295.659H273.525L274.496 291.807Z" fill="#FBFCFC"/>
<path d="M277.444 260.984L282.394 263.334L288.124 273.79L279.639 280.679L278.447 278.877L275.783 289.295H252.22L254.885 278.872L252.762 280.679L247.804 273.79L258.877 263.334L265.118 260.96C265.136 261.528 265.218 262.24 265.446 262.951C265.999 264.727 267.186 265.81 268.899 266.134L267.983 269.702H270.346L271.262 266.134C273.141 265.807 274.842 264.707 276.235 262.904C276.762 262.215 277.157 261.537 277.444 260.984Z" fill="#FBFCFC"/>
<path fill-rule="evenodd" clip-rule="evenodd" d="M323.009 250.873C323.365 250.367 324.11 250.367 324.188 250.873L324.592 253.558C324.64 253.878 324.898 254.096 325.237 254.123L328.151 254.356C328.71 254.4 328.742 255.082 328.215 255.439L325.438 257.331C325.105 257.555 324.89 257.909 324.879 258.247L324.799 261.075C324.782 261.609 324.065 262.03 323.665 261.744L321.528 260.228C321.274 260.048 320.896 260.048 320.538 260.228L317.579 261.744C317.022 262.03 316.538 261.609 316.81 261.075L318.281 258.247C318.459 257.909 318.44 257.555 318.228 257.331L316.477 255.439C316.146 255.082 316.559 254.4 317.136 254.356L320.175 254.123C320.536 254.096 320.902 253.878 321.132 253.558L323.009 250.873ZM340.355 250.873C340.711 250.367 341.457 250.367 341.535 250.873L341.939 253.558C341.987 253.878 342.244 254.096 342.584 254.123L345.498 254.356C346.045 254.4 346.088 255.082 345.562 255.439L342.785 257.331C342.451 257.555 342.237 257.909 342.225 258.247L342.145 261.075C342.129 261.609 341.412 262.03 341.012 261.744L338.874 260.228C338.621 260.048 338.242 260.048 337.884 260.228L334.925 261.744C334.368 262.03 333.884 261.609 334.156 261.075L335.627 258.247C335.805 257.909 335.786 257.555 335.575 257.331L333.823 255.439C333.493 255.082 333.906 254.4 334.482 254.356L337.521 254.123C337.883 254.096 338.248 253.878 338.479 253.558L340.355 250.873ZM358.87 250.873C358.803 250.367 358.058 250.367 357.702 250.873L355.825 253.558C355.595 253.878 355.229 254.096 354.868 254.123L351.829 254.356C351.252 254.4 350.84 255.082 351.17 255.439L352.921 257.331C353.133 257.555 353.152 257.909 352.974 258.247L351.503 261.075C351.231 261.609 351.715 262.03 352.272 261.744L355.231 260.228C355.589 260.048 355.967 260.048 356.221 260.228L358.358 261.744C358.758 262.03 359.476 261.609 359.492 261.075L359.572 258.247C359.583 257.909 359.798 257.555 360.12 257.331L362.908 255.439C363.435 255.082 363.392 254.4 362.844 254.356L359.93 254.123C359.591 254.096 359.334 253.878 359.286 253.558L358.87 250.873ZM375.226 250.873C375.582 250.367 376.328 250.367 376.406 250.873L376.81 253.558C376.858 253.878 377.116 254.096 377.455 254.123L380.369 254.356C380.927 254.4 380.96 255.082 380.433 255.439L377.656 257.331C377.322 257.555 377.108 257.909 377.097 258.247L377.017 261.075C377 261.609 376.283 262.03 375.883 261.744L373.746 260.228C373.492 260.048 373.114 260.048 372.755 260.228L369.797 261.744C369.24 262.03 368.755 261.609 369.027 261.075L370.499 258.247C370.677 257.909 370.657 257.555 370.446 257.331L368.694 255.439C368.364 255.082 368.777 254.4 369.353 254.356L372.392 254.123C372.754 254.096 373.12 253.878 373.35 253.558L375.226 250.873ZM393.906 250.939C393.828 250.433 393.094 250.433 392.738 250.939L390.861 253.624C390.631 253.944 390.265 254.162 389.904 254.191L386.854 254.423C386.289 254.467 385.876 255.149 386.206 255.505L387.957 257.397C388.158 257.623 388.177 257.977 388.01 258.314L386.539 261.143C386.267 261.676 386.74 262.097 387.297 261.812L390.267 260.296C390.625 260.114 391.004 260.114 391.257 260.296L393.394 261.812C393.794 262.097 394.5 261.676 394.517 261.143L394.597 258.314C394.608 257.977 394.823 257.623 395.156 257.397L397.945 255.505C398.471 255.149 398.428 254.467 397.88 254.423L394.966 254.191C394.616 254.162 394.37 253.944 394.322 253.624L393.906 250.939Z" fill="#EE8E39"/>
<path d="M419.213 272.681H312.984C311.32 272.681 309.61 273.996 309.165 275.618C308.72 277.24 309.709 278.555 311.373 278.555H417.602C419.266 278.555 420.976 277.24 421.421 275.618C421.866 273.996 420.878 272.681 419.213 272.681Z" fill="#EAEBEE"/>
<path d="M415.259 286.359H309.03C307.366 286.359 305.656 287.674 305.211 289.297C304.766 290.919 305.755 292.234 307.419 292.234H413.648C415.312 292.234 417.022 290.919 417.467 289.297C417.912 287.674 416.924 286.359 415.259 286.359Z" fill="#EAEBEE"/>
<path d="M377.661 300.038H305.085C303.42 300.038 301.71 301.353 301.265 302.975C300.82 304.598 301.809 305.913 303.474 305.913H376.049C377.714 305.913 379.424 304.598 379.869 302.975C380.314 301.353 379.325 300.038 377.661 300.038Z" fill="#EAEBEE"/>
<path d="M211.991 358.532C213.165 354.666 217.28 351.633 221.389 351.611L268.147 351.351C272.512 351.327 275.203 354.699 274.107 358.816L260.529 409.896C259.454 413.941 255.127 417.156 250.866 417.079L202.517 416.196C198.148 416.117 195.567 412.612 196.823 408.47L211.991 358.532Z" fill="black" fill-opacity="0.15"/>
<path d="M236.377 365.843C236.4 367.046 236.771 369.502 239.502 369.553C240.958 369.58 242.168 368.957 243.205 367.651C243.685 367.045 244.022 366.422 244.225 365.988L236.377 365.843Z" fill="#FBFCFC"/>
<path d="M242.96 397.829L219.732 397.398L218.762 401.219L241.99 401.649L242.96 397.829Z" fill="#FBFCFC"/>
<path d="M245.909 366.954L250.858 369.399L256.588 379.977L248.105 386.722L246.913 384.895L244.249 395.281L220.689 394.849L223.353 384.458L221.23 386.229L216.272 379.237L227.344 368.967L233.584 366.704C233.602 367.273 233.684 367.988 233.913 368.704C234.465 370.493 235.653 371.6 237.365 371.956L236.449 375.513L238.812 375.557L239.728 372C241.607 371.706 243.307 370.635 244.701 368.855C245.227 368.175 245.622 367.503 245.909 366.954Z" fill="#FBFCFC"/>
<path fill-rule="evenodd" clip-rule="evenodd" d="M291.466 357.565C291.822 357.063 292.567 357.076 292.645 357.585L293.05 360.288C293.098 360.61 293.355 360.834 293.694 360.867L296.608 361.151C297.167 361.205 297.199 361.891 296.672 362.239L293.896 364.091C293.562 364.311 293.348 364.663 293.337 365.002L293.257 367.84C293.24 368.375 292.523 368.786 292.123 368.492L289.986 366.933C289.732 366.747 289.354 366.741 288.996 366.916L286.038 368.387C285.481 368.664 284.997 368.233 285.269 367.702L286.739 364.887C286.917 364.551 286.898 364.196 286.687 363.966L284.935 362.036C284.605 361.673 285.018 360.995 285.594 360.96L288.632 360.78C288.994 360.759 289.36 360.546 289.59 360.228L291.466 357.565ZM308.81 357.865C309.166 357.363 309.911 357.376 309.989 357.886L310.394 360.588C310.442 360.911 310.699 361.135 311.039 361.168L313.952 361.451C314.5 361.506 314.543 362.191 314.016 362.54L311.24 364.392C310.906 364.611 310.692 364.963 310.681 365.302L310.601 368.141C310.585 368.676 309.867 369.086 309.467 368.793L307.33 367.233C307.077 367.048 306.698 367.041 306.34 367.216L303.382 368.687C302.825 368.964 302.341 368.533 302.613 368.002L304.083 365.188C304.261 364.852 304.242 364.496 304.031 364.267L302.279 362.337C301.949 361.973 302.362 361.295 302.938 361.261L305.977 361.08C306.338 361.059 306.704 360.846 306.934 360.528L308.81 357.865ZM327.322 358.186C327.256 357.676 326.51 357.664 326.154 358.166L324.278 360.829C324.048 361.147 323.682 361.359 323.321 361.38L320.282 361.561C319.706 361.596 319.293 362.274 319.624 362.637L321.375 364.567C321.586 364.796 321.606 365.152 321.428 365.488L319.957 368.303C319.685 368.833 320.169 369.265 320.726 368.988L323.684 367.517C324.043 367.342 324.421 367.348 324.675 367.534L326.812 369.093C327.211 369.387 327.929 368.976 327.945 368.441L328.025 365.603C328.036 365.264 328.251 364.912 328.573 364.692L331.361 362.84C331.887 362.492 331.844 361.806 331.296 361.752L328.383 361.468C328.043 361.435 327.786 361.211 327.738 360.889L327.322 358.186ZM343.677 358.469C344.032 357.967 344.778 357.98 344.856 358.49L345.26 361.192C345.308 361.515 345.566 361.739 345.905 361.772L348.818 362.055C349.377 362.11 349.409 362.795 348.883 363.144L346.106 364.996C345.773 365.215 345.558 365.567 345.547 365.906L345.467 368.745C345.451 369.28 344.734 369.69 344.334 369.397L342.197 367.837C341.943 367.652 341.565 367.645 341.207 367.82L338.248 369.291C337.691 369.568 337.207 369.137 337.479 368.606L338.95 365.792C339.128 365.456 339.109 365.1 338.897 364.871L337.146 362.941C336.816 362.577 337.228 361.899 337.805 361.865L340.843 361.684C341.205 361.663 341.57 361.45 341.8 361.132L343.677 358.469ZM362.354 358.859C362.276 358.35 361.541 358.337 361.186 358.839L359.31 361.502C359.079 361.82 358.714 362.033 358.352 362.055L355.302 362.235C354.738 362.269 354.325 362.947 354.655 363.31L356.406 365.24C356.606 365.471 356.626 365.827 356.459 366.162L354.988 368.977C354.716 369.508 355.189 369.939 355.746 369.662L358.716 368.191C359.074 368.015 359.452 368.022 359.706 368.208L361.843 369.768C362.243 370.061 362.949 369.65 362.965 369.115L363.045 366.276C363.056 365.938 363.271 365.586 363.604 365.365L366.392 363.514C366.918 363.165 366.875 362.48 366.327 362.426L363.414 362.143C363.064 362.108 362.817 361.885 362.769 361.562L362.354 358.859Z" fill="#EE8E39"/>
<path d="M387.658 381.116L281.443 379.277C279.779 379.248 278.07 380.541 277.625 382.165C277.181 383.789 278.169 385.129 279.834 385.158L386.048 386.997C387.712 387.026 389.421 385.733 389.866 384.109C390.31 382.485 389.322 381.145 387.658 381.116Z" fill="#EAEBEE"/>
<path d="M383.703 394.776L277.489 392.937C275.825 392.908 274.116 394.201 273.671 395.825C273.227 397.449 274.215 398.789 275.879 398.818L382.094 400.657C383.758 400.686 385.467 399.393 385.912 397.769C386.356 396.145 385.368 394.805 383.703 394.776Z" fill="#EAEBEE"/>
<path d="M346.111 407.854L273.545 406.599C271.881 406.57 270.171 407.863 269.726 409.486C269.281 411.109 270.27 412.448 271.935 412.477L344.501 413.732C346.165 413.761 347.875 412.468 348.32 410.845C348.765 409.222 347.776 407.883 346.111 407.854Z" fill="#EAEBEE"/>
<path d="M180.577 467.3C181.75 463.434 185.865 460.401 189.974 460.379L236.733 460.119C241.098 460.095 243.789 463.468 242.692 467.585L229.115 518.664C228.04 522.709 223.712 525.925 219.452 525.847L171.103 524.964C166.734 524.885 164.153 521.38 165.409 517.238L180.577 467.3Z" fill="black" fill-opacity="0.15"/>
<path d="M204.962 474.611C204.984 475.814 205.356 478.27 208.086 478.321C209.543 478.348 210.752 477.725 211.79 476.419C212.269 475.814 212.607 475.19 212.809 474.756L204.962 474.611Z" fill="#FBFCFC"/>
<path d="M211.545 506.598L188.317 506.167L187.347 509.988L210.575 510.418L211.545 506.598Z" fill="#FBFCFC"/>
<path d="M214.494 475.722L219.443 478.168L225.173 488.746L216.69 495.491L215.498 493.664L212.834 504.05L189.274 503.617L191.938 493.226L189.815 494.997L184.857 488.005L195.928 477.736L202.169 475.473C202.187 476.042 202.269 476.756 202.498 477.473C203.05 479.261 204.238 480.369 205.95 480.725L205.034 484.282L207.397 484.325L208.313 480.768C210.192 480.475 211.892 479.404 213.286 477.624C213.812 476.944 214.207 476.272 214.494 475.722Z" fill="#FBFCFC"/>
<path fill-rule="evenodd" clip-rule="evenodd" d="M260.051 466.332C260.407 465.83 261.152 465.843 261.23 466.353L261.635 469.055C261.683 469.378 261.94 469.602 262.279 469.635L265.193 469.919C265.752 469.973 265.784 470.658 265.257 471.007L262.481 472.859C262.147 473.079 261.933 473.43 261.922 473.769L261.842 476.608C261.825 477.143 261.108 477.554 260.708 477.26L258.571 475.7C258.317 475.515 257.939 475.508 257.581 475.683L254.623 477.154C254.066 477.432 253.582 477 253.854 476.469L255.324 473.655C255.502 473.319 255.483 472.963 255.272 472.734L253.52 470.804C253.19 470.44 253.603 469.763 254.179 469.728L257.217 469.547C257.579 469.526 257.945 469.313 258.175 468.996L260.051 466.332ZM277.395 466.633C277.751 466.131 278.496 466.144 278.574 466.653L278.979 469.356C279.027 469.678 279.284 469.902 279.624 469.935L282.537 470.219C283.085 470.273 283.128 470.959 282.601 471.307L279.825 473.159C279.491 473.379 279.277 473.731 279.266 474.07L279.186 476.908C279.17 477.443 278.452 477.854 278.052 477.56L275.915 476.001C275.662 475.815 275.283 475.809 274.925 475.984L271.967 477.455C271.41 477.732 270.926 477.301 271.198 476.77L272.668 473.956C272.846 473.619 272.827 473.264 272.616 473.034L270.864 471.104C270.534 470.741 270.947 470.063 271.523 470.028L274.562 469.848C274.923 469.827 275.289 469.614 275.519 469.296L277.395 466.633ZM295.907 466.953C295.84 466.444 295.095 466.431 294.739 466.933L292.863 469.596C292.633 469.914 292.267 470.127 291.906 470.148L288.867 470.329C288.291 470.363 287.878 471.041 288.209 471.405L289.96 473.335C290.171 473.564 290.191 473.92 290.013 474.256L288.542 477.07C288.27 477.601 288.754 478.033 289.311 477.755L292.269 476.284C292.628 476.109 293.006 476.116 293.26 476.301L295.397 477.861C295.796 478.155 296.514 477.744 296.53 477.209L296.61 474.37C296.621 474.031 296.836 473.68 297.158 473.459L299.946 471.608C300.472 471.259 300.429 470.574 299.881 470.52L296.968 470.236C296.628 470.203 296.371 469.979 296.323 469.656L295.907 466.953ZM312.261 467.237C312.617 466.735 313.363 466.748 313.441 467.257L313.845 469.96C313.893 470.282 314.151 470.506 314.49 470.539L317.403 470.823C317.962 470.877 317.994 471.563 317.468 471.911L314.691 473.763C314.358 473.983 314.143 474.335 314.132 474.674L314.052 477.512C314.036 478.047 313.319 478.458 312.919 478.164L310.782 476.605C310.528 476.419 310.15 476.413 309.792 476.588L306.833 478.059C306.276 478.336 305.792 477.905 306.064 477.374L307.535 474.56C307.713 474.223 307.694 473.868 307.482 473.638L305.731 471.708C305.401 471.345 305.813 470.667 306.389 470.632L309.428 470.452C309.789 470.431 310.155 470.218 310.385 469.9L312.261 467.237ZM330.939 467.627C330.861 467.117 330.126 467.104 329.771 467.606L327.894 470.27C327.664 470.588 327.299 470.8 326.937 470.822L323.887 471.003C323.323 471.037 322.91 471.715 323.24 472.078L324.991 474.008C325.191 474.238 325.211 474.594 325.044 474.929L323.573 477.745C323.301 478.275 323.774 478.707 324.331 478.43L327.301 476.959C327.659 476.783 328.037 476.789 328.291 476.976L330.428 478.535C330.827 478.829 331.534 478.418 331.55 477.883L331.63 475.043C331.641 474.706 331.856 474.354 332.189 474.133L334.977 472.281C335.503 471.933 335.46 471.247 334.912 471.194L331.999 470.91C331.649 470.876 331.402 470.652 331.354 470.33L330.939 467.627Z" fill="#EE8E39"/>
<path d="M356.243 489.884L250.028 488.044C248.364 488.016 246.655 489.309 246.21 490.933C245.766 492.557 246.754 493.897 248.418 493.925L354.633 495.765C356.297 495.793 358.006 494.5 358.451 492.876C358.895 491.252 357.907 489.912 356.243 489.884Z" fill="#EAEBEE"/>
<path d="M352.288 503.544L246.074 501.705C244.41 501.676 242.701 502.969 242.256 504.593C241.812 506.217 242.8 507.557 244.464 507.586L350.679 509.425C352.343 509.454 354.052 508.161 354.497 506.537C354.941 504.913 353.953 503.573 352.288 503.544Z" fill="#EAEBEE"/>
<path d="M314.695 516.621L242.129 515.365C240.465 515.336 238.755 516.629 238.31 518.252C237.865 519.875 238.854 521.214 240.519 521.243L313.085 522.498C314.749 522.527 316.459 521.235 316.904 519.612C317.349 517.988 316.36 516.649 314.695 516.621Z" fill="#EAEBEE"/>
<path fill-rule="evenodd" clip-rule="evenodd" d="M482.428 72.8932L288.396 79.3504C283.918 79.4992 279.436 83.038 278.224 87.3782L274.384 101.126C273.108 105.678 275.906 109.371 280.571 109.306L473.715 106.605C478.259 106.541 482.876 102.931 484.068 98.4993L488.803 80.9949C490.041 76.4089 487.149 72.736 482.428 72.8932ZM288.57 78.6138C283.69 78.7762 278.799 82.6368 277.472 87.3715L273.633 101.12C272.246 106.085 275.295 110.114 280.383 110.043L473.526 107.341C478.486 107.273 483.513 103.334 484.821 98.4993L489.556 80.9949C490.905 75.992 487.754 71.9852 482.602 72.1567L288.57 78.6138Z" fill="white" fill-opacity="0.17"/>
<path d="M295.022 95.7332L295.636 93.4638H303.451C303.427 93.8591 303.336 94.3269 303.2 94.8339C302.741 96.5365 301.691 98.6427 299.758 100.144C297.852 101.663 295.73 102.474 293.2 102.474C288.525 102.474 285.591 98.7439 286.835 94.1658C288.071 89.587 293.012 85.8574 297.695 85.8574C300.284 85.8574 301.86 86.8512 302.896 88.1467L300.823 89.7488C300.074 88.8369 298.925 88.1275 297.08 88.1275C293.662 88.1275 290.255 90.8219 289.357 94.1658C288.451 97.509 290.397 100.203 293.815 100.203C296.028 100.203 297.53 99.3329 298.549 98.5414C299.382 97.9 300.057 96.9829 300.571 95.731L295.022 95.7332Z" fill="white" fill-opacity="0.17"/>
<path d="M317.266 92.3948C317.67 90.803 319.29 89.4987 320.935 89.4499L388.403 87.4155C390.116 87.3645 391.184 88.6976 390.767 90.3611C390.363 91.9522 388.736 93.2565 387.098 93.306L319.623 95.3397C317.909 95.3915 316.842 94.0576 317.266 92.3948Z" fill="white" fill-opacity="0.17"/>
<g filter="url(#filter2_i_1270_14873)">
<path d="M120.652 282.688C121.887 280.779 124.5 280.257 126.487 281.522L136.682 288.01C138.668 289.273 139.279 291.844 138.045 293.752L104.283 345.982C103.377 347.384 101.677 348.086 99.9827 347.759L94.1597 346.636C93.1201 346.436 92.1829 345.866 91.5314 345.037L87.2284 339.565C86.1269 338.165 86.0194 336.265 86.9584 334.812L120.652 282.688Z" fill="#0A0F3B"/>
<path d="M120.652 282.688C121.887 280.779 124.5 280.257 126.487 281.522L136.682 288.01C138.668 289.273 139.279 291.844 138.045 293.752L104.283 345.982C103.377 347.384 101.677 348.086 99.9827 347.759L94.1597 346.636C93.1201 346.436 92.1829 345.866 91.5314 345.037L87.2284 339.565C86.1269 338.165 86.0194 336.265 86.9584 334.812L120.652 282.688Z" fill="#242847"/>
</g>
<path d="M130.774 283.904L120.832 277.53C118.894 276.287 116.316 276.851 115.073 278.789L79.8992 333.655C78.6568 335.593 79.2207 338.171 81.1587 339.414L91.1009 345.787C93.0389 347.03 95.6172 346.466 96.8596 344.528L132.033 289.662C133.276 287.724 132.712 285.146 130.774 283.904Z" fill="#0A0F3B"/>
<path d="M130.774 283.904L120.832 277.53C118.894 276.287 116.316 276.851 115.073 278.789L79.8992 333.655C78.6568 335.593 79.2207 338.171 81.1587 339.414L91.1009 345.787C93.0389 347.03 95.6172 346.466 96.8596 344.528L132.033 289.662C133.276 287.724 132.712 285.146 130.774 283.904Z" fill="#2E3258"/>
<path d="M111.243 284.764L79.8992 333.655C78.6566 335.594 79.2208 338.172 81.1585 339.414L91.1009 345.788C93.0385 347.031 95.617 346.467 96.8595 344.529L107.613 327.755L111.243 284.764Z" fill="white" fill-opacity="0.08"/>
<path d="M111.243 284.764L79.8992 333.655C78.6566 335.594 79.2208 338.172 81.1585 339.414L91.1009 345.788C93.0385 347.031 95.617 346.467 96.8595 344.529L107.613 327.755L111.243 284.764Z" fill="url(#paint0_linear_1270_14873)"/>
<g filter="url(#filter3_i_1270_14873)">
<path fill-rule="evenodd" clip-rule="evenodd" d="M155.377 294.752C192.114 301.765 227.288 275.702 233.939 236.54C240.591 197.377 216.201 159.945 179.464 152.932C142.726 145.919 107.553 171.982 100.902 211.145C94.2503 250.307 118.639 287.74 155.377 294.752ZM157.671 281.246C187.52 286.943 216.083 265.862 221.467 234.159C226.852 202.456 207.019 172.136 177.17 166.439C147.321 160.741 118.759 181.822 113.374 213.525C107.99 245.228 127.822 275.548 157.671 281.246Z" fill="#0A0F3B"/>
<path fill-rule="evenodd" clip-rule="evenodd" d="M155.377 294.752C192.114 301.765 227.288 275.702 233.939 236.54C240.591 197.377 216.201 159.945 179.464 152.932C142.726 145.919 107.553 171.982 100.902 211.145C94.2503 250.307 118.639 287.74 155.377 294.752ZM157.671 281.246C187.52 286.943 216.083 265.862 221.467 234.159C226.852 202.456 207.019 172.136 177.17 166.439C147.321 160.741 118.759 181.822 113.374 213.525C107.99 245.228 127.822 275.548 157.671 281.246Z" fill="#252C4F"/>
</g>
<g filter="url(#filter4_ii_1270_14873)">
<path d="M153.912 280.562C183.949 286.296 212.663 265.246 218.047 233.547C223.431 201.847 203.445 171.501 173.408 165.768C143.371 160.034 114.657 181.083 109.273 212.783C103.889 244.483 123.874 274.829 153.912 280.562Z" fill="#B8BDC7"/>
</g>
<g filter="url(#filter5_i_1270_14873)">
<path fill-rule="evenodd" clip-rule="evenodd" d="M211.633 194.047C191.324 197.274 170.262 211.996 156.523 234.888C148.192 248.77 143.796 263.588 143.136 277.411C119.28 267.289 104.589 240.587 109.301 212.851C114.692 181.114 143.444 160.039 173.522 165.78C190.184 168.96 203.757 179.702 211.633 194.047Z" fill="white" fill-opacity="0.12"/>
</g>
<g filter="url(#filter6_i_1270_14873)">
<path fill-rule="evenodd" clip-rule="evenodd" d="M147.173 293.274C183.91 300.287 219.083 274.224 225.735 235.061C232.386 195.899 207.997 158.466 171.26 151.453C134.522 144.441 99.3487 170.503 92.6972 209.666C86.0457 248.829 110.435 286.261 147.173 293.274ZM149.467 279.767C179.315 285.465 207.878 264.383 213.263 232.68C218.647 200.977 198.815 170.658 168.966 164.96C139.117 159.262 110.554 180.344 105.169 212.047C99.785 243.75 119.618 274.069 149.467 279.767Z" fill="#0A0F3B"/>
<path fill-rule="evenodd" clip-rule="evenodd" d="M147.173 293.274C183.91 300.287 219.083 274.224 225.735 235.061C232.386 195.899 207.997 158.466 171.26 151.453C134.522 144.441 99.3487 170.503 92.6972 209.666C86.0457 248.829 110.435 286.261 147.173 293.274ZM149.467 279.767C179.315 285.465 207.878 264.383 213.263 232.68C218.647 200.977 198.815 170.658 168.966 164.96C139.117 159.262 110.554 180.344 105.169 212.047C99.785 243.75 119.618 274.069 149.467 279.767Z" fill="url(#paint1_linear_1270_14873)" fill-opacity="0.7"/>
</g>
<g filter="url(#filter7_dd_1270_14873)">
<rect x="526" y="355.4" width="294.075" height="148.824" rx="8.92942" fill="white" shape-rendering="crispEdges"/>
<rect x="540.585" y="367.604" width="264.906" height="124.417" rx="5.6553" stroke="#DBDEE3" stroke-width="0.595294"/>
<rect x="549.812" y="379.808" width="47.3929" height="2.38118" rx="1.19059" fill="#BCBDC1"/>
<rect x="762.389" y="374.748" width="33.5775" height="12.5012" rx="4.46471" stroke="#B8BDC7" stroke-width="0.595294"/>
<rect x="765.663" y="379.808" width="16.314" height="2.38118" rx="1.19059" fill="#B8BDC7"/>
<path d="M787.213 380.233C786.949 379.838 787.233 379.308 787.708 379.308H790.246C790.721 379.308 791.005 379.838 790.741 380.233L789.472 382.136C789.237 382.49 788.717 382.49 788.482 382.136L787.213 380.233Z" fill="#B8BDC7"/>
<path d="M551.907 416.473C551.609 416.473 551.342 416.418 551.108 416.308C550.876 416.198 550.691 416.047 550.554 415.854C550.418 415.661 550.347 415.44 550.341 415.19H551.229C551.239 415.358 551.309 415.494 551.44 415.598C551.571 415.702 551.727 415.755 551.907 415.755C552.051 415.755 552.178 415.723 552.288 415.659C552.399 415.595 552.486 415.505 552.548 415.391C552.611 415.275 552.643 415.143 552.643 414.993C552.643 414.841 552.611 414.707 552.546 414.592C552.482 414.476 552.394 414.386 552.281 414.321C552.169 414.256 552.04 414.223 551.895 414.222C551.768 414.222 551.644 414.248 551.525 414.3C551.406 414.352 551.314 414.423 551.248 414.514L550.434 414.368L550.639 412.085H553.286V412.833H551.394L551.282 413.917H551.307C551.383 413.81 551.498 413.722 551.652 413.651C551.805 413.581 551.977 413.545 552.167 413.545C552.428 413.545 552.661 413.607 552.865 413.729C553.069 413.852 553.231 414.02 553.349 414.235C553.467 414.447 553.526 414.693 553.525 414.97C553.526 415.262 553.458 415.521 553.322 415.748C553.186 415.974 552.997 416.151 552.753 416.281C552.511 416.409 552.229 416.473 551.907 416.473Z" fill="#5A5E73"/>
<line opacity="0.5" x1="556.193" y1="413.765" x2="796.264" y2="413.765" stroke="#B8BDC7" stroke-width="0.297647"/>
<path d="M551.063 429.797V429.076L552.87 426.228H553.492V427.226H553.124L551.985 429.029V429.063H554.553V429.797H551.063ZM553.141 430.558V429.577L553.158 429.258V426.228H554.016V430.558H553.141Z" fill="#5A5E73"/>
<line opacity="0.5" x1="557.193" y1="427.909" x2="796.264" y2="427.909" stroke="#B8BDC7" stroke-width="0.297647"/>
<path d="M551.839 444.76C551.523 444.76 551.242 444.706 550.996 444.598C550.75 444.488 550.557 444.337 550.414 444.145C550.273 443.952 550.201 443.729 550.197 443.477H551.118C551.124 443.583 551.158 443.676 551.222 443.756C551.287 443.835 551.373 443.896 551.48 443.94C551.587 443.984 551.707 444.006 551.841 444.006C551.981 444.006 552.104 443.981 552.211 443.932C552.318 443.882 552.402 443.814 552.463 443.727C552.523 443.639 552.554 443.538 552.554 443.424C552.554 443.309 552.521 443.207 552.456 443.118C552.393 443.028 552.301 442.957 552.182 442.906C552.063 442.856 551.922 442.83 551.759 442.83H551.355V442.158H551.759C551.897 442.158 552.019 442.134 552.125 442.086C552.232 442.038 552.315 441.972 552.374 441.887C552.433 441.802 552.463 441.701 552.463 441.587C552.463 441.479 552.437 441.384 552.385 441.302C552.334 441.219 552.262 441.154 552.169 441.107C552.077 441.061 551.97 441.038 551.848 441.038C551.724 441.038 551.61 441.06 551.507 441.105C551.404 441.149 551.322 441.212 551.26 441.293C551.198 441.375 551.165 441.471 551.161 441.581H550.283C550.287 441.332 550.359 441.112 550.497 440.921C550.635 440.731 550.821 440.582 551.055 440.475C551.29 440.367 551.556 440.313 551.852 440.313C552.151 440.313 552.412 440.367 552.636 440.475C552.86 440.584 553.034 440.73 553.158 440.915C553.284 441.098 553.346 441.304 553.344 441.532C553.346 441.775 553.27 441.977 553.118 442.139C552.967 442.301 552.771 442.404 552.528 442.448V442.482C552.847 442.522 553.089 442.633 553.256 442.813C553.423 442.992 553.506 443.216 553.505 443.486C553.506 443.732 553.435 443.951 553.291 444.143C553.149 444.335 552.953 444.486 552.702 444.595C552.451 444.705 552.163 444.76 551.839 444.76Z" fill="#5A5E73"/>
<line opacity="0.5" x1="556.193" y1="442.052" x2="796.264" y2="442.052" stroke="#B8BDC7" stroke-width="0.297647"/>
<path d="M550.413 458.845V458.185L551.954 456.758C552.085 456.631 552.195 456.517 552.284 456.416C552.374 456.314 552.443 456.215 552.489 456.118C552.536 456.019 552.559 455.913 552.559 455.798C552.559 455.672 552.53 455.562 552.472 455.471C552.415 455.378 552.336 455.307 552.236 455.257C552.135 455.207 552.022 455.181 551.895 455.181C551.763 455.181 551.647 455.208 551.548 455.262C551.45 455.315 551.374 455.392 551.32 455.492C551.267 455.592 551.24 455.711 551.24 455.849H550.371C550.371 455.566 550.435 455.32 550.563 455.111C550.692 454.903 550.871 454.742 551.102 454.627C551.334 454.513 551.6 454.456 551.902 454.456C552.212 454.456 552.481 454.511 552.711 454.621C552.942 454.73 553.122 454.88 553.25 455.073C553.378 455.266 553.443 455.488 553.443 455.737C553.443 455.901 553.41 456.062 553.345 456.221C553.282 456.381 553.168 456.557 553.005 456.752C552.842 456.945 552.611 457.177 552.314 457.447L551.682 458.067V458.096H553.5V458.845H550.413Z" fill="#5A5E73"/>
<line opacity="0.5" x1="556.193" y1="456.196" x2="796.264" y2="456.196" stroke="#B8BDC7" stroke-width="0.297647"/>
<path d="M552.134 468.659V472.988H551.219V469.528H551.193L550.202 470.149V469.337L551.274 468.659H552.134Z" fill="#5A5E73"/>
<line opacity="0.5" x1="555.193" y1="470.339" x2="796.264" y2="470.339" stroke="#B8BDC7" stroke-width="0.297647"/>
<path d="M575.378 475.244V477.391C575.378 477.629 575.304 477.821 575.157 477.966C575.01 478.107 574.815 478.178 574.573 478.178C574.329 478.178 574.133 478.106 573.986 477.961C573.839 477.814 573.765 477.614 573.765 477.361H574.144C574.147 477.503 574.183 477.618 574.253 477.707C574.325 477.796 574.432 477.841 574.573 477.841C574.715 477.841 574.821 477.799 574.89 477.716C574.96 477.629 574.994 477.521 574.994 477.391V475.244H575.378ZM575.941 476.999C575.941 476.765 575.989 476.561 576.083 476.386C576.178 476.208 576.307 476.071 576.471 475.974C576.637 475.876 576.822 475.828 577.025 475.828C577.225 475.828 577.399 475.871 577.546 475.957C577.693 476.043 577.803 476.152 577.875 476.282V475.865H578.258V478.149H577.875V477.724C577.8 477.857 577.687 477.968 577.537 478.057C577.39 478.143 577.218 478.186 577.021 478.186C576.818 478.186 576.635 478.136 576.471 478.036C576.307 477.936 576.178 477.796 576.083 477.616C575.989 477.435 575.941 477.229 575.941 476.999ZM577.875 477.003C577.875 476.831 577.84 476.681 577.771 476.553C577.701 476.425 577.607 476.328 577.487 476.261C577.371 476.192 577.242 476.157 577.1 476.157C576.958 476.157 576.829 476.19 576.712 476.257C576.596 476.324 576.503 476.421 576.433 476.549C576.364 476.677 576.329 476.827 576.329 476.999C576.329 477.174 576.364 477.327 576.433 477.457C576.503 477.585 576.596 477.684 576.712 477.753C576.829 477.82 576.958 477.853 577.1 477.853C577.242 477.853 577.371 477.82 577.487 477.753C577.607 477.684 577.701 477.585 577.771 477.457C577.84 477.327 577.875 477.175 577.875 477.003ZM579.97 475.824C580.248 475.824 580.473 475.908 580.645 476.078C580.817 476.245 580.903 476.486 580.903 476.803V478.149H580.528V476.857C580.528 476.629 580.472 476.456 580.358 476.336C580.244 476.214 580.088 476.153 579.891 476.153C579.691 476.153 579.531 476.215 579.412 476.34C579.295 476.465 579.237 476.647 579.237 476.886V478.149H578.857V475.865H579.237V476.19C579.312 476.074 579.413 475.983 579.541 475.92C579.671 475.856 579.814 475.824 579.97 475.824Z" fill="#5A5E73"/>
<path d="M594.786 475.244V475.553H593.524V476.532H594.549V476.84H593.524V478.149H593.145V475.244H594.786ZM597.286 476.92C597.286 476.992 597.282 477.068 597.274 477.149H595.449C595.462 477.374 595.539 477.55 595.678 477.678C595.819 477.803 595.99 477.866 596.19 477.866C596.354 477.866 596.49 477.828 596.599 477.753C596.71 477.675 596.788 477.572 596.832 477.445H597.24C597.179 477.664 597.057 477.843 596.874 477.982C596.69 478.118 596.463 478.186 596.19 478.186C595.974 478.186 595.779 478.138 595.607 478.041C595.437 477.943 595.304 477.806 595.207 477.628C595.11 477.447 595.061 477.239 595.061 477.003C595.061 476.767 595.108 476.56 595.203 476.382C595.297 476.204 595.429 476.068 595.599 475.974C595.771 475.876 595.968 475.828 596.19 475.828C596.407 475.828 596.599 475.875 596.765 475.97C596.932 476.064 597.06 476.195 597.149 476.361C597.24 476.525 597.286 476.711 597.286 476.92ZM596.895 476.84C596.895 476.696 596.863 476.572 596.799 476.47C596.735 476.364 596.647 476.285 596.536 476.232C596.428 476.177 596.307 476.149 596.174 476.149C595.982 476.149 595.818 476.21 595.682 476.332C595.549 476.454 595.472 476.624 595.453 476.84H596.895ZM598.124 476.29C598.202 476.154 598.316 476.043 598.466 475.957C598.616 475.871 598.787 475.828 598.979 475.828C599.184 475.828 599.369 475.876 599.533 475.974C599.697 476.071 599.826 476.208 599.92 476.386C600.015 476.561 600.062 476.765 600.062 476.999C600.062 477.229 600.015 477.435 599.92 477.616C599.826 477.796 599.695 477.936 599.529 478.036C599.365 478.136 599.181 478.186 598.979 478.186C598.781 478.186 598.608 478.143 598.458 478.057C598.31 477.971 598.199 477.861 598.124 477.728V478.149H597.745V475.065H598.124V476.29ZM599.674 476.999C599.674 476.827 599.64 476.677 599.57 476.549C599.501 476.421 599.406 476.324 599.287 476.257C599.17 476.19 599.041 476.157 598.899 476.157C598.761 476.157 598.631 476.192 598.512 476.261C598.395 476.328 598.301 476.427 598.229 476.557C598.159 476.685 598.124 476.834 598.124 477.003C598.124 477.175 598.159 477.327 598.229 477.457C598.301 477.585 598.395 477.684 598.512 477.753C598.631 477.82 598.761 477.853 598.899 477.853C599.041 477.853 599.17 477.82 599.287 477.753C599.406 477.684 599.501 477.585 599.57 477.457C599.64 477.327 599.674 477.174 599.674 476.999Z" fill="#5A5E73"/>
<path d="M615.321 475.265V478.149H614.941V475.999L613.983 478.149H613.716L612.754 475.995V478.149H612.375V475.265H612.783L613.85 477.649L614.916 475.265H615.321ZM615.78 476.999C615.78 476.765 615.828 476.561 615.922 476.386C616.017 476.208 616.146 476.071 616.31 475.974C616.476 475.876 616.661 475.828 616.864 475.828C617.064 475.828 617.238 475.871 617.385 475.957C617.532 476.043 617.642 476.152 617.714 476.282V475.865H618.097V478.149H617.714V477.724C617.639 477.857 617.526 477.968 617.376 478.057C617.229 478.143 617.057 478.186 616.86 478.186C616.657 478.186 616.474 478.136 616.31 478.036C616.146 477.936 616.017 477.796 615.922 477.616C615.828 477.435 615.78 477.229 615.78 476.999ZM617.714 477.003C617.714 476.831 617.679 476.681 617.61 476.553C617.54 476.425 617.446 476.328 617.326 476.261C617.21 476.192 617.081 476.157 616.939 476.157C616.797 476.157 616.668 476.19 616.551 476.257C616.435 476.324 616.342 476.421 616.272 476.549C616.203 476.677 616.168 476.827 616.168 476.999C616.168 477.174 616.203 477.327 616.272 477.457C616.342 477.585 616.435 477.684 616.551 477.753C616.668 477.82 616.797 477.853 616.939 477.853C617.081 477.853 617.21 477.82 617.326 477.753C617.446 477.684 617.54 477.585 617.61 477.457C617.679 477.327 617.714 477.175 617.714 477.003ZM619.076 476.236C619.142 476.106 619.237 476.004 619.359 475.932C619.484 475.86 619.635 475.824 619.813 475.824V476.215H619.713C619.288 476.215 619.076 476.446 619.076 476.907V478.149H618.696V475.865H619.076V476.236Z" fill="#5A5E73"/>
<path d="M633.321 477.503H632.054L631.821 478.149H631.421L632.471 475.261H632.908L633.954 478.149H633.554L633.321 477.503ZM633.213 477.195L632.688 475.728L632.162 477.195H633.213ZM634.749 476.286C634.824 476.156 634.936 476.047 635.083 475.961C635.233 475.872 635.406 475.828 635.604 475.828C635.807 475.828 635.99 475.876 636.154 475.974C636.32 476.071 636.451 476.208 636.545 476.386C636.64 476.561 636.687 476.765 636.687 476.999C636.687 477.229 636.64 477.435 636.545 477.616C636.451 477.796 636.32 477.936 636.154 478.036C635.99 478.136 635.807 478.186 635.604 478.186C635.409 478.186 635.237 478.143 635.087 478.057C634.94 477.968 634.827 477.859 634.749 477.728V479.232H634.37V475.865H634.749V476.286ZM636.3 476.999C636.3 476.827 636.265 476.677 636.195 476.549C636.126 476.421 636.032 476.324 635.912 476.257C635.795 476.19 635.666 476.157 635.525 476.157C635.386 476.157 635.256 476.192 635.137 476.261C635.02 476.328 634.926 476.427 634.854 476.557C634.784 476.685 634.749 476.834 634.749 477.003C634.749 477.175 634.784 477.327 634.854 477.457C634.926 477.585 635.02 477.684 635.137 477.753C635.256 477.82 635.386 477.853 635.525 477.853C635.666 477.853 635.795 477.82 635.912 477.753C636.032 477.684 636.126 477.585 636.195 477.457C636.265 477.327 636.3 477.174 636.3 476.999ZM637.524 476.236C637.591 476.106 637.685 476.004 637.807 475.932C637.932 475.86 638.084 475.824 638.261 475.824V476.215H638.161C637.736 476.215 637.524 476.446 637.524 476.907V478.149H637.145V475.865H637.524V476.236Z" fill="#5A5E73"/>
<path d="M653.28 475.265V478.149H652.9V475.999L651.942 478.149H651.675L650.713 475.995V478.149H650.334V475.265H650.742L651.809 477.649L652.875 475.265H653.28ZM653.739 476.999C653.739 476.765 653.787 476.561 653.881 476.386C653.976 476.208 654.105 476.071 654.269 475.974C654.435 475.876 654.62 475.828 654.823 475.828C655.023 475.828 655.196 475.871 655.344 475.957C655.491 476.043 655.601 476.152 655.673 476.282V475.865H656.056V478.149H655.673V477.724C655.598 477.857 655.485 477.968 655.335 478.057C655.188 478.143 655.016 478.186 654.819 478.186C654.616 478.186 654.433 478.136 654.269 478.036C654.105 477.936 653.976 477.796 653.881 477.616C653.787 477.435 653.739 477.229 653.739 476.999ZM655.673 477.003C655.673 476.831 655.638 476.681 655.569 476.553C655.499 476.425 655.405 476.328 655.285 476.261C655.169 476.192 655.04 476.157 654.898 476.157C654.756 476.157 654.627 476.19 654.51 476.257C654.394 476.324 654.301 476.421 654.231 476.549C654.162 476.677 654.127 476.827 654.127 476.999C654.127 477.174 654.162 477.327 654.231 477.457C654.301 477.585 654.394 477.684 654.51 477.753C654.627 477.82 654.756 477.853 654.898 477.853C655.04 477.853 655.169 477.82 655.285 477.753C655.405 477.684 655.499 477.585 655.569 477.457C655.638 477.327 655.673 477.175 655.673 477.003ZM658.622 475.865L657.247 479.224H656.855L657.306 478.124L656.385 475.865H656.805L657.522 477.716L658.231 475.865H658.622Z" fill="#5A5E73"/>
<path d="M671.526 475.244V477.391C671.526 477.629 671.452 477.821 671.305 477.966C671.158 478.107 670.963 478.178 670.721 478.178C670.477 478.178 670.281 478.106 670.134 477.961C669.987 477.814 669.913 477.614 669.913 477.361H670.292C670.295 477.503 670.331 477.618 670.401 477.707C670.473 477.796 670.58 477.841 670.721 477.841C670.863 477.841 670.969 477.799 671.038 477.716C671.108 477.629 671.142 477.521 671.142 477.391V475.244H671.526ZM674.256 475.865V478.149H673.877V477.811C673.805 477.928 673.703 478.02 673.573 478.086C673.445 478.15 673.303 478.182 673.148 478.182C672.97 478.182 672.81 478.146 672.669 478.074C672.527 477.999 672.414 477.888 672.331 477.741C672.251 477.593 672.21 477.414 672.21 477.203V475.865H672.585V477.153C672.585 477.378 672.642 477.552 672.756 477.674C672.87 477.793 673.026 477.853 673.223 477.853C673.426 477.853 673.585 477.791 673.702 477.666C673.819 477.541 673.877 477.359 673.877 477.12V475.865H674.256ZM675.967 475.824C676.245 475.824 676.47 475.908 676.643 476.078C676.815 476.245 676.901 476.486 676.901 476.803V478.149H676.526V476.857C676.526 476.629 676.469 476.456 676.355 476.336C676.241 476.214 676.086 476.153 675.888 476.153C675.688 476.153 675.529 476.215 675.409 476.34C675.292 476.465 675.234 476.647 675.234 476.886V478.149H674.855V475.865H675.234V476.19C675.309 476.074 675.41 475.983 675.538 475.92C675.669 475.856 675.812 475.824 675.967 475.824Z" fill="#5A5E73"/>
<path d="M691.756 475.244V477.391C691.756 477.629 691.682 477.821 691.535 477.966C691.388 478.107 691.193 478.178 690.951 478.178C690.707 478.178 690.511 478.106 690.364 477.961C690.217 477.814 690.143 477.614 690.143 477.361H690.522C690.525 477.503 690.561 477.618 690.631 477.707C690.703 477.796 690.81 477.841 690.951 477.841C691.093 477.841 691.199 477.799 691.268 477.716C691.338 477.629 691.372 477.521 691.372 477.391V475.244H691.756ZM694.486 475.865V478.149H694.107V477.811C694.035 477.928 693.933 478.02 693.803 478.086C693.675 478.15 693.533 478.182 693.378 478.182C693.2 478.182 693.04 478.146 692.899 478.074C692.757 477.999 692.644 477.888 692.561 477.741C692.48 477.593 692.44 477.414 692.44 477.203V475.865H692.815V477.153C692.815 477.378 692.872 477.552 692.986 477.674C693.1 477.793 693.256 477.853 693.453 477.853C693.656 477.853 693.815 477.791 693.932 477.666C694.049 477.541 694.107 477.359 694.107 477.12V475.865H694.486ZM695.464 475.065V478.149H695.085V475.065H695.464Z" fill="#5A5E73"/>
<path d="M709.739 477.503H708.473L708.239 478.149H707.839L708.889 475.261H709.327L710.373 478.149H709.973L709.739 477.503ZM709.631 477.195L709.106 475.728L708.581 477.195H709.631ZM712.814 475.865V478.149H712.435V477.811C712.362 477.928 712.261 478.02 712.131 478.086C712.003 478.15 711.861 478.182 711.705 478.182C711.528 478.182 711.368 478.146 711.226 478.074C711.085 477.999 710.972 477.888 710.889 477.741C710.808 477.593 710.768 477.414 710.768 477.203V475.865H711.143V477.153C711.143 477.378 711.2 477.552 711.314 477.674C711.428 477.793 711.583 477.853 711.78 477.853C711.983 477.853 712.143 477.791 712.26 477.666C712.376 477.541 712.435 477.359 712.435 477.12V475.865H712.814ZM714.354 475.828C714.552 475.828 714.724 475.871 714.871 475.957C715.021 476.043 715.132 476.152 715.204 476.282V475.865H715.588V478.199C715.588 478.407 715.543 478.592 715.454 478.753C715.365 478.917 715.238 479.045 715.071 479.137C714.907 479.228 714.715 479.274 714.496 479.274C714.196 479.274 713.946 479.203 713.746 479.062C713.546 478.92 713.428 478.727 713.392 478.482H713.767C713.808 478.621 713.895 478.732 714.025 478.816C714.156 478.902 714.313 478.945 714.496 478.945C714.704 478.945 714.874 478.88 715.004 478.749C715.138 478.618 715.204 478.435 715.204 478.199V477.72C715.129 477.853 715.018 477.964 714.871 478.053C714.724 478.142 714.552 478.186 714.354 478.186C714.151 478.186 713.967 478.136 713.8 478.036C713.636 477.936 713.507 477.796 713.413 477.616C713.318 477.435 713.271 477.229 713.271 476.999C713.271 476.765 713.318 476.561 713.413 476.386C713.507 476.208 713.636 476.071 713.8 475.974C713.967 475.876 714.151 475.828 714.354 475.828ZM715.204 477.003C715.204 476.831 715.17 476.681 715.1 476.553C715.031 476.425 714.936 476.328 714.817 476.261C714.7 476.192 714.571 476.157 714.429 476.157C714.288 476.157 714.158 476.19 714.042 476.257C713.925 476.324 713.832 476.421 713.763 476.549C713.693 476.677 713.658 476.827 713.658 476.999C713.658 477.174 713.693 477.327 713.763 477.457C713.832 477.585 713.925 477.684 714.042 477.753C714.158 477.82 714.288 477.853 714.429 477.853C714.571 477.853 714.7 477.82 714.817 477.753C714.936 477.684 715.031 477.585 715.1 477.457C715.17 477.327 715.204 477.175 715.204 477.003Z" fill="#5A5E73"/>
<path d="M728.673 478.178C728.481 478.178 728.309 478.145 728.156 478.078C728.006 478.009 727.888 477.914 727.802 477.795C727.716 477.672 727.671 477.532 727.669 477.374H728.073C728.087 477.51 728.142 477.625 728.24 477.72C728.34 477.811 728.484 477.857 728.673 477.857C728.854 477.857 728.995 477.813 729.098 477.724C729.204 477.632 729.256 477.516 729.256 477.374C729.256 477.263 729.226 477.172 729.165 477.103C729.104 477.034 729.027 476.981 728.935 476.945C728.844 476.909 728.72 476.87 728.565 476.828C728.373 476.778 728.219 476.728 728.102 476.678C727.988 476.628 727.89 476.55 727.806 476.445C727.726 476.336 727.685 476.192 727.685 476.011C727.685 475.853 727.726 475.713 727.806 475.59C727.887 475.468 727.999 475.374 728.144 475.307C728.291 475.24 728.459 475.207 728.648 475.207C728.92 475.207 729.142 475.275 729.315 475.411C729.49 475.547 729.588 475.728 729.611 475.953H729.194C729.18 475.842 729.122 475.745 729.019 475.661C728.916 475.575 728.78 475.532 728.61 475.532C728.452 475.532 728.323 475.574 728.223 475.657C728.123 475.738 728.073 475.851 728.073 475.999C728.073 476.104 728.102 476.19 728.16 476.257C728.222 476.324 728.295 476.375 728.381 476.411C728.47 476.445 728.594 476.483 728.752 476.528C728.944 476.581 729.098 476.634 729.215 476.686C729.331 476.736 729.431 476.815 729.515 476.924C729.598 477.029 729.64 477.174 729.64 477.357C729.64 477.499 729.602 477.632 729.527 477.757C729.452 477.882 729.341 477.984 729.194 478.061C729.047 478.139 728.873 478.178 728.673 478.178ZM732.24 476.92C732.24 476.992 732.235 477.068 732.227 477.149H730.402C730.416 477.374 730.492 477.55 730.631 477.678C730.773 477.803 730.944 477.866 731.144 477.866C731.308 477.866 731.444 477.828 731.552 477.753C731.663 477.675 731.741 477.572 731.785 477.445H732.194C732.133 477.664 732.01 477.843 731.827 477.982C731.644 478.118 731.416 478.186 731.144 478.186C730.927 478.186 730.732 478.138 730.56 478.041C730.391 477.943 730.257 477.806 730.16 477.628C730.063 477.447 730.014 477.239 730.014 477.003C730.014 476.767 730.062 476.56 730.156 476.382C730.251 476.204 730.382 476.068 730.552 475.974C730.724 475.876 730.921 475.828 731.144 475.828C731.36 475.828 731.552 475.875 731.719 475.97C731.885 476.064 732.013 476.195 732.102 476.361C732.194 476.525 732.24 476.711 732.24 476.92ZM731.848 476.84C731.848 476.696 731.816 476.572 731.752 476.47C731.688 476.364 731.601 476.285 731.49 476.232C731.381 476.177 731.26 476.149 731.127 476.149C730.935 476.149 730.771 476.21 730.635 476.332C730.502 476.454 730.426 476.624 730.406 476.84H731.848ZM733.078 476.286C733.153 476.156 733.264 476.047 733.411 475.961C733.561 475.872 733.735 475.828 733.932 475.828C734.135 475.828 734.318 475.876 734.482 475.974C734.649 476.071 734.779 476.208 734.874 476.386C734.968 476.561 735.015 476.765 735.015 476.999C735.015 477.229 734.968 477.435 734.874 477.616C734.779 477.796 734.649 477.936 734.482 478.036C734.318 478.136 734.135 478.186 733.932 478.186C733.737 478.186 733.565 478.143 733.415 478.057C733.268 477.968 733.155 477.859 733.078 477.728V479.232H732.698V475.865H733.078V476.286ZM734.628 476.999C734.628 476.827 734.593 476.677 734.524 476.549C734.454 476.421 734.36 476.324 734.24 476.257C734.124 476.19 733.994 476.157 733.853 476.157C733.714 476.157 733.585 476.192 733.465 476.261C733.349 476.328 733.254 476.427 733.182 476.557C733.112 476.685 733.078 476.834 733.078 477.003C733.078 477.175 733.112 477.327 733.182 477.457C733.254 477.585 733.349 477.684 733.465 477.753C733.585 477.82 733.714 477.853 733.853 477.853C733.994 477.853 734.124 477.82 734.24 477.753C734.36 477.684 734.454 477.585 734.524 477.457C734.593 477.327 734.628 477.174 734.628 476.999Z" fill="#5A5E73"/>
<path d="M748.799 478.178C748.529 478.178 748.283 478.116 748.061 477.991C747.839 477.863 747.663 477.686 747.532 477.461C747.404 477.234 747.34 476.978 747.34 476.695C747.34 476.411 747.404 476.157 747.532 475.932C747.663 475.704 747.839 475.528 748.061 475.403C748.283 475.275 748.529 475.211 748.799 475.211C749.071 475.211 749.318 475.275 749.541 475.403C749.763 475.528 749.938 475.703 750.066 475.928C750.193 476.153 750.257 476.408 750.257 476.695C750.257 476.981 750.193 477.236 750.066 477.461C749.938 477.686 749.763 477.863 749.541 477.991C749.318 478.116 749.071 478.178 748.799 478.178ZM748.799 477.849C749.002 477.849 749.184 477.802 749.345 477.707C749.509 477.613 749.636 477.478 749.728 477.303C749.822 477.128 749.87 476.925 749.87 476.695C749.87 476.461 749.822 476.258 749.728 476.086C749.636 475.911 749.51 475.776 749.349 475.682C749.188 475.588 749.004 475.54 748.799 475.54C748.593 475.54 748.41 475.588 748.249 475.682C748.088 475.776 747.96 475.911 747.865 476.086C747.774 476.258 747.728 476.461 747.728 476.695C747.728 476.925 747.774 477.128 747.865 477.303C747.96 477.478 748.088 477.613 748.249 477.707C748.413 477.802 748.596 477.849 748.799 477.849ZM751.991 478.149L751.095 477.14V478.149H750.716V475.065H751.095V476.878L751.975 475.865H752.504L751.429 477.003L752.508 478.149H751.991ZM753.282 476.178V477.524C753.282 477.635 753.305 477.714 753.352 477.761C753.4 477.806 753.482 477.828 753.598 477.828H753.878V478.149H753.536C753.325 478.149 753.166 478.1 753.061 478.003C752.955 477.906 752.902 477.746 752.902 477.524V476.178H752.607V475.865H752.902V475.29H753.282V475.865H753.878V476.178H753.282Z" fill="#5A5E73"/>
<path d="M768.495 478.149H768.116L766.591 475.836V478.149H766.211V475.24H766.591L768.116 477.549V475.24H768.495V478.149ZM770.096 478.186C769.882 478.186 769.687 478.138 769.512 478.041C769.34 477.943 769.204 477.806 769.104 477.628C769.007 477.447 768.958 477.239 768.958 477.003C768.958 476.77 769.008 476.564 769.108 476.386C769.211 476.206 769.35 476.068 769.525 475.974C769.7 475.876 769.896 475.828 770.112 475.828C770.329 475.828 770.525 475.876 770.7 475.974C770.875 476.068 771.012 476.204 771.112 476.382C771.215 476.56 771.267 476.767 771.267 477.003C771.267 477.239 771.214 477.447 771.108 477.628C771.006 477.806 770.865 477.943 770.687 478.041C770.51 478.138 770.312 478.186 770.096 478.186ZM770.096 477.853C770.232 477.853 770.36 477.821 770.479 477.757C770.599 477.693 770.694 477.597 770.767 477.47C770.842 477.342 770.879 477.186 770.879 477.003C770.879 476.82 770.843 476.664 770.771 476.536C770.699 476.408 770.604 476.314 770.487 476.253C770.371 476.189 770.244 476.157 770.108 476.157C769.969 476.157 769.842 476.189 769.725 476.253C769.611 476.314 769.519 476.408 769.45 476.536C769.38 476.664 769.346 476.82 769.346 477.003C769.346 477.189 769.379 477.346 769.446 477.474C769.515 477.602 769.607 477.697 769.721 477.761C769.835 477.823 769.96 477.853 770.096 477.853ZM772.574 477.799L773.282 475.865H773.686L772.79 478.149H772.349L771.453 475.865H771.861L772.574 477.799Z" fill="#5A5E73"/>
<path d="M786.345 475.244C786.662 475.244 786.936 475.304 787.166 475.424C787.399 475.54 787.577 475.708 787.7 475.928C787.825 476.147 787.887 476.406 787.887 476.703C787.887 477 787.825 477.259 787.7 477.478C787.577 477.695 787.399 477.861 787.166 477.978C786.936 478.092 786.662 478.149 786.345 478.149H785.441V475.244H786.345ZM786.345 477.836C786.72 477.836 787.006 477.738 787.204 477.541C787.401 477.341 787.5 477.061 787.5 476.703C787.5 476.342 787.399 476.06 787.199 475.857C787.002 475.654 786.717 475.553 786.345 475.553H785.82V477.836H786.345ZM790.429 476.92C790.429 476.992 790.425 477.068 790.417 477.149H788.591C788.605 477.374 788.682 477.55 788.821 477.678C788.962 477.803 789.133 477.866 789.333 477.866C789.497 477.866 789.633 477.828 789.742 477.753C789.853 477.675 789.93 477.572 789.975 477.445H790.383C790.322 477.664 790.2 477.843 790.017 477.982C789.833 478.118 789.605 478.186 789.333 478.186C789.116 478.186 788.922 478.138 788.75 478.041C788.58 477.943 788.447 477.806 788.35 477.628C788.252 477.447 788.204 477.239 788.204 477.003C788.204 476.767 788.251 476.56 788.346 476.382C788.44 476.204 788.572 476.068 788.741 475.974C788.914 475.876 789.111 475.828 789.333 475.828C789.55 475.828 789.742 475.875 789.908 475.97C790.075 476.064 790.203 476.195 790.292 476.361C790.383 476.525 790.429 476.711 790.429 476.92ZM790.037 476.84C790.037 476.696 790.005 476.572 789.942 476.47C789.878 476.364 789.79 476.285 789.679 476.232C789.571 476.177 789.45 476.149 789.316 476.149C789.125 476.149 788.961 476.21 788.825 476.332C788.691 476.454 788.615 476.624 788.596 476.84H790.037ZM790.746 477.003C790.746 476.767 790.793 476.561 790.888 476.386C790.982 476.208 791.113 476.071 791.28 475.974C791.449 475.876 791.642 475.828 791.859 475.828C792.139 475.828 792.37 475.896 792.551 476.032C792.734 476.168 792.855 476.357 792.913 476.599H792.505C792.466 476.46 792.389 476.35 792.276 476.27C792.164 476.189 792.026 476.149 791.859 476.149C791.642 476.149 791.467 476.224 791.334 476.374C791.2 476.521 791.134 476.731 791.134 477.003C791.134 477.278 791.2 477.491 791.334 477.641C791.467 477.791 791.642 477.866 791.859 477.866C792.026 477.866 792.164 477.827 792.276 477.749C792.387 477.671 792.463 477.56 792.505 477.416H792.913C792.852 477.649 792.73 477.836 792.546 477.978C792.363 478.117 792.134 478.186 791.859 478.186C791.642 478.186 791.449 478.138 791.28 478.041C791.113 477.943 790.982 477.806 790.888 477.628C790.793 477.45 790.746 477.242 790.746 477.003Z" fill="#5A5E73"/>
<path d="M555.422 470.485C555.422 470.485 582.937 449.658 603.172 443.244C646.143 429.622 682.378 458.802 719.272 443.172C739.467 434.616 752.493 417.381 752.493 417.381" stroke="#EE8E39" stroke-width="1.78588" stroke-linecap="round"/>
<g filter="url(#filter8_d_1270_14873)">
<circle cx="753.472" cy="415.949" r="2.23065" fill="#EE8E39"/>
</g>
</g>
<g filter="url(#filter9_dd_1270_14873)">
<rect x="735.964" y="148.753" width="294.075" height="148.824" rx="8.92942" fill="#EE8E39" shape-rendering="crispEdges"/>
<rect x="750.549" y="160.957" width="264.906" height="124.417" rx="5.6553" stroke="#F3B074" stroke-width="0.595294"/>
<rect x="759.776" y="173.42" width="47.3929" height="2.38118" rx="1.19059" fill="#F7C79C"/>
<rect x="972.353" y="168.36" width="33.5775" height="12.5012" rx="4.46471" stroke="#FADDC4" stroke-width="0.595294"/>
<rect x="975.627" y="173.42" width="16.314" height="2.38118" rx="1.19059" fill="#FADDC4"/>
<path d="M997.177 173.845C996.913 173.45 997.197 172.92 997.672 172.92H1000.21C1000.69 172.92 1000.97 173.45 1000.71 173.845L999.436 175.749C999.201 176.102 998.681 176.102 998.446 175.749L997.177 173.845Z" fill="#FADDC4"/>
<path d="M761.871 209.827C761.572 209.827 761.306 209.772 761.072 209.662C760.84 209.552 760.655 209.4 760.518 209.207C760.382 209.014 760.31 208.793 760.305 208.544H761.193C761.202 208.711 761.273 208.847 761.404 208.952C761.535 209.056 761.691 209.108 761.871 209.108C762.015 209.108 762.142 209.076 762.252 209.013C762.363 208.948 762.45 208.859 762.512 208.744C762.575 208.629 762.607 208.496 762.607 208.347C762.607 208.195 762.574 208.061 762.51 207.945C762.446 207.83 762.358 207.74 762.245 207.675C762.133 207.61 762.004 207.577 761.859 207.575C761.732 207.575 761.608 207.601 761.489 207.654C761.37 207.706 761.278 207.777 761.212 207.867L760.398 207.721L760.603 205.438H763.25V206.187H761.357L761.245 207.271H761.271C761.347 207.164 761.462 207.075 761.615 207.005C761.769 206.934 761.941 206.899 762.131 206.899C762.392 206.899 762.624 206.96 762.829 207.083C763.033 207.205 763.195 207.374 763.313 207.588C763.431 207.801 763.49 208.046 763.488 208.324C763.49 208.615 763.422 208.875 763.285 209.102C763.15 209.327 762.961 209.505 762.717 209.634C762.474 209.763 762.193 209.827 761.871 209.827Z" fill="#FADDC4"/>
<line opacity="0.5" x1="766.157" y1="207.119" x2="1006.23" y2="207.119" stroke="#F3B074" stroke-width="0.297647"/>
<path d="M761.027 223.15V222.429L762.834 219.582H763.456V220.58H763.088L761.948 222.383V222.417H764.517V223.15H761.027ZM763.105 223.911V222.93L763.122 222.611V219.582H763.98V223.911H763.105Z" fill="#FADDC4"/>
<line opacity="0.5" x1="767.157" y1="221.262" x2="1006.23" y2="221.262" stroke="#F3B074" stroke-width="0.297647"/>
<path d="M761.803 238.114C761.487 238.114 761.206 238.06 760.96 237.951C760.714 237.841 760.521 237.69 760.378 237.499C760.237 237.306 760.165 237.083 760.16 236.831H761.082C761.088 236.936 761.122 237.029 761.186 237.11C761.251 237.189 761.337 237.25 761.444 237.294C761.551 237.337 761.671 237.359 761.805 237.359C761.945 237.359 762.068 237.335 762.175 237.285C762.282 237.236 762.366 237.168 762.427 237.08C762.487 236.993 762.518 236.892 762.518 236.778C762.518 236.662 762.485 236.56 762.42 236.471C762.357 236.381 762.265 236.311 762.145 236.26C762.027 236.209 761.886 236.184 761.723 236.184H761.319V235.512H761.723C761.861 235.512 761.983 235.488 762.088 235.44C762.196 235.392 762.279 235.326 762.338 235.241C762.397 235.155 762.427 235.055 762.427 234.941C762.427 234.832 762.401 234.737 762.348 234.655C762.298 234.572 762.226 234.507 762.133 234.461C762.041 234.414 761.934 234.391 761.811 234.391C761.687 234.391 761.574 234.414 761.471 234.459C761.368 234.503 761.286 234.565 761.224 234.647C761.162 234.729 761.129 234.825 761.124 234.934H760.247C760.251 234.685 760.323 234.465 760.461 234.275C760.599 234.085 760.785 233.936 761.019 233.829C761.254 233.72 761.52 233.666 761.816 233.666C762.114 233.666 762.376 233.72 762.6 233.829C762.824 233.937 762.998 234.084 763.122 234.269C763.248 234.452 763.31 234.658 763.308 234.886C763.31 235.128 763.234 235.33 763.082 235.493C762.931 235.655 762.735 235.758 762.492 235.801V235.835C762.811 235.876 763.053 235.987 763.219 236.167C763.387 236.346 763.47 236.57 763.469 236.839C763.47 237.086 763.399 237.305 763.255 237.497C763.113 237.688 762.916 237.839 762.666 237.949C762.415 238.059 762.127 238.114 761.803 238.114Z" fill="#FADDC4"/>
<line opacity="0.5" x1="766.157" y1="235.406" x2="1006.23" y2="235.406" stroke="#F3B074" stroke-width="0.297647"/>
<path d="M760.377 252.198V251.539L761.918 250.112C762.049 249.985 762.159 249.871 762.248 249.769C762.338 249.668 762.407 249.568 762.453 249.471C762.5 249.373 762.523 249.266 762.523 249.152C762.523 249.025 762.494 248.916 762.436 248.824C762.378 248.731 762.299 248.66 762.199 248.611C762.099 248.56 761.986 248.535 761.859 248.535C761.727 248.535 761.611 248.562 761.512 248.615C761.414 248.669 761.338 248.745 761.284 248.845C761.23 248.946 761.204 249.065 761.204 249.203H760.335C760.335 248.919 760.399 248.674 760.527 248.465C760.655 248.256 760.835 248.095 761.066 247.981C761.297 247.867 761.564 247.81 761.865 247.81C762.175 247.81 762.445 247.865 762.675 247.975C762.906 248.083 763.086 248.234 763.214 248.427C763.342 248.62 763.406 248.841 763.406 249.091C763.406 249.254 763.374 249.416 763.309 249.575C763.246 249.734 763.132 249.911 762.969 250.105C762.805 250.298 762.575 250.53 762.278 250.801L761.646 251.42V251.45H763.464V252.198H760.377Z" fill="#FADDC4"/>
<line opacity="0.5" x1="766.157" y1="249.549" x2="1006.23" y2="249.549" stroke="#F3B074" stroke-width="0.297647"/>
<path d="M762.098 262.012V266.342H761.182V262.881H761.157L760.166 263.503V262.691L761.237 262.012H762.098Z" fill="#FADDC4"/>
<line opacity="0.5" x1="765.157" y1="263.693" x2="1006.23" y2="263.693" stroke="#F3B074" stroke-width="0.297647"/>
<rect x="776.391" y="251.216" width="3.28524" height="11.8385" rx="1.64262" fill="#F7C79C"/>
<path d="M775.817 270.317V272.463C775.817 272.702 775.743 272.894 775.596 273.038C775.449 273.18 775.254 273.251 775.012 273.251C774.768 273.251 774.572 273.179 774.425 273.034C774.278 272.887 774.204 272.687 774.204 272.434H774.583C774.586 272.576 774.622 272.691 774.692 272.78C774.764 272.869 774.871 272.913 775.012 272.913C775.154 272.913 775.26 272.872 775.329 272.788C775.399 272.702 775.433 272.594 775.433 272.463V270.317H775.817ZM776.38 272.072C776.38 271.838 776.428 271.634 776.522 271.459C776.617 271.281 776.746 271.144 776.91 271.046C777.076 270.949 777.261 270.901 777.464 270.901C777.664 270.901 777.837 270.944 777.985 271.03C778.132 271.116 778.242 271.224 778.314 271.355V270.938H778.697V273.222H778.314V272.797C778.239 272.93 778.126 273.041 777.976 273.13C777.829 273.216 777.657 273.259 777.46 273.259C777.257 273.259 777.074 273.209 776.91 273.109C776.746 273.009 776.617 272.869 776.522 272.688C776.428 272.508 776.38 272.302 776.38 272.072ZM778.314 272.076C778.314 271.903 778.279 271.753 778.21 271.626C778.14 271.498 778.046 271.401 777.926 271.334C777.81 271.265 777.681 271.23 777.539 271.23C777.397 271.23 777.268 271.263 777.151 271.33C777.035 271.397 776.942 271.494 776.872 271.622C776.803 271.749 776.768 271.899 776.768 272.072C776.768 272.247 776.803 272.399 776.872 272.53C776.942 272.658 777.035 272.756 777.151 272.826C777.268 272.892 777.397 272.926 777.539 272.926C777.681 272.926 777.81 272.892 777.926 272.826C778.046 272.756 778.14 272.658 778.21 272.53C778.279 272.399 778.314 272.248 778.314 272.076ZM780.409 270.896C780.687 270.896 780.912 270.981 781.084 271.151C781.256 271.317 781.342 271.559 781.342 271.876V273.222H780.967V271.93C780.967 271.702 780.91 271.528 780.797 271.409C780.683 271.287 780.527 271.226 780.33 271.226C780.13 271.226 779.97 271.288 779.851 271.413C779.734 271.538 779.676 271.72 779.676 271.959V273.222H779.296V270.938H779.676V271.263C779.751 271.146 779.852 271.056 779.98 270.992C780.11 270.928 780.253 270.896 780.409 270.896Z" fill="#FADDC4"/>
<rect x="795.62" y="241.17" width="3.28524" height="21.8847" rx="1.64262" fill="#F7C79C"/>
<path d="M795.225 270.317V270.626H793.963V271.605H794.988V271.913H793.963V273.222H793.584V270.317H795.225ZM797.725 271.992C797.725 272.065 797.721 272.141 797.713 272.222H795.888C795.901 272.447 795.978 272.623 796.117 272.751C796.258 272.876 796.429 272.938 796.629 272.938C796.793 272.938 796.929 272.901 797.038 272.826C797.149 272.748 797.227 272.645 797.271 272.517H797.679C797.618 272.737 797.496 272.916 797.313 273.055C797.129 273.191 796.902 273.259 796.629 273.259C796.413 273.259 796.218 273.211 796.046 273.113C795.876 273.016 795.743 272.879 795.646 272.701C795.549 272.52 795.5 272.312 795.5 272.076C795.5 271.84 795.547 271.633 795.642 271.455C795.736 271.277 795.868 271.141 796.038 271.046C796.21 270.949 796.407 270.901 796.629 270.901C796.846 270.901 797.038 270.948 797.204 271.042C797.371 271.137 797.499 271.267 797.588 271.434C797.679 271.598 797.725 271.784 797.725 271.992ZM797.334 271.913C797.334 271.769 797.302 271.645 797.238 271.542C797.174 271.437 797.086 271.358 796.975 271.305C796.867 271.249 796.746 271.221 796.613 271.221C796.421 271.221 796.257 271.283 796.121 271.405C795.988 271.527 795.911 271.697 795.892 271.913H797.334ZM798.563 271.363C798.641 271.227 798.755 271.116 798.905 271.03C799.055 270.944 799.226 270.901 799.418 270.901C799.623 270.901 799.808 270.949 799.972 271.046C800.136 271.144 800.265 271.281 800.359 271.459C800.454 271.634 800.501 271.838 800.501 272.072C800.501 272.302 800.454 272.508 800.359 272.688C800.265 272.869 800.134 273.009 799.968 273.109C799.804 273.209 799.62 273.259 799.418 273.259C799.22 273.259 799.047 273.216 798.897 273.13C798.749 273.044 798.638 272.934 798.563 272.801V273.222H798.184V270.138H798.563V271.363ZM800.113 272.072C800.113 271.899 800.079 271.749 800.009 271.622C799.94 271.494 799.845 271.397 799.726 271.33C799.609 271.263 799.48 271.23 799.338 271.23C799.199 271.23 799.07 271.265 798.951 271.334C798.834 271.401 798.74 271.499 798.667 271.63C798.598 271.758 798.563 271.906 798.563 272.076C798.563 272.248 798.598 272.399 798.667 272.53C798.74 272.658 798.834 272.756 798.951 272.826C799.07 272.892 799.199 272.926 799.338 272.926C799.48 272.926 799.609 272.892 799.726 272.826C799.845 272.756 799.94 272.658 800.009 272.53C800.079 272.399 800.113 272.247 800.113 272.072Z" fill="#FADDC4"/>
<rect x="814.85" y="236.749" width="3.28524" height="26.3049" rx="1.64262" fill="#F7C79C"/>
<path d="M815.76 270.337V273.221H815.38V271.07L814.422 273.221H814.155L813.193 271.066V273.221H812.814V270.337H813.222L814.289 272.721L815.355 270.337H815.76ZM816.219 272.071C816.219 271.837 816.267 271.633 816.361 271.458C816.456 271.28 816.585 271.143 816.749 271.045C816.915 270.948 817.1 270.9 817.303 270.9C817.503 270.9 817.676 270.943 817.824 271.029C817.971 271.115 818.081 271.223 818.153 271.354V270.937H818.536V273.221H818.153V272.796C818.078 272.929 817.965 273.04 817.815 273.129C817.668 273.215 817.496 273.258 817.299 273.258C817.096 273.258 816.913 273.208 816.749 273.108C816.585 273.008 816.456 272.868 816.361 272.687C816.267 272.507 816.219 272.301 816.219 272.071ZM818.153 272.075C818.153 271.903 818.118 271.753 818.049 271.625C817.979 271.497 817.885 271.4 817.765 271.333C817.649 271.264 817.52 271.229 817.378 271.229C817.236 271.229 817.107 271.262 816.99 271.329C816.874 271.396 816.781 271.493 816.711 271.621C816.642 271.748 816.607 271.898 816.607 272.071C816.607 272.246 816.642 272.398 816.711 272.529C816.781 272.657 816.874 272.755 816.99 272.825C817.107 272.892 817.236 272.925 817.378 272.925C817.52 272.925 817.649 272.892 817.765 272.825C817.885 272.755 817.979 272.657 818.049 272.529C818.118 272.398 818.153 272.247 818.153 272.075ZM819.515 271.308C819.581 271.177 819.676 271.076 819.798 271.004C819.923 270.932 820.074 270.895 820.252 270.895V271.287H820.152C819.727 271.287 819.515 271.518 819.515 271.979V273.221H819.135V270.937H819.515V271.308Z" fill="#FADDC4"/>
<rect x="834.08" y="246.317" width="3.28524" height="16.7371" rx="1.64262" fill="#F7C79C"/>
<path d="M833.76 272.576H832.493L832.26 273.222H831.86L832.91 270.334H833.347L834.393 273.222H833.993L833.76 272.576ZM833.652 272.267L833.126 270.801L832.601 272.267H833.652ZM835.188 271.359C835.263 271.228 835.375 271.12 835.522 271.034C835.672 270.945 835.845 270.901 836.043 270.901C836.245 270.901 836.429 270.949 836.593 271.046C836.759 271.144 836.89 271.281 836.984 271.459C837.079 271.634 837.126 271.838 837.126 272.072C837.126 272.302 837.079 272.508 836.984 272.688C836.89 272.869 836.759 273.009 836.593 273.109C836.429 273.209 836.245 273.259 836.043 273.259C835.848 273.259 835.676 273.216 835.526 273.13C835.379 273.041 835.266 272.931 835.188 272.801V274.305H834.809V270.938H835.188V271.359ZM836.739 272.072C836.739 271.899 836.704 271.749 836.634 271.622C836.565 271.494 836.471 271.397 836.351 271.33C836.234 271.263 836.105 271.23 835.964 271.23C835.825 271.23 835.695 271.265 835.576 271.334C835.459 271.401 835.365 271.499 835.293 271.63C835.223 271.758 835.188 271.906 835.188 272.076C835.188 272.248 835.223 272.399 835.293 272.53C835.365 272.658 835.459 272.756 835.576 272.826C835.695 272.892 835.825 272.926 835.964 272.926C836.105 272.926 836.234 272.892 836.351 272.826C836.471 272.756 836.565 272.658 836.634 272.53C836.704 272.399 836.739 272.247 836.739 272.072ZM837.963 271.309C838.029 271.178 838.124 271.077 838.246 271.005C838.371 270.933 838.523 270.896 838.7 270.896V271.288H838.6C838.175 271.288 837.963 271.519 837.963 271.98V273.222H837.584V270.938H837.963V271.309Z" fill="#FADDC4"/>
<rect x="853.309" y="233.538" width="3.28524" height="29.5162" rx="1.64262" fill="#F7C79C"/>
<path d="M853.719 270.338V273.222H853.339V271.071L852.381 273.222H852.114L851.152 271.067V273.222H850.773V270.338H851.181L852.248 272.722L853.314 270.338H853.719ZM854.178 272.072C854.178 271.838 854.226 271.634 854.32 271.459C854.415 271.281 854.544 271.144 854.708 271.046C854.874 270.949 855.059 270.901 855.262 270.901C855.462 270.901 855.635 270.944 855.783 271.03C855.93 271.116 856.04 271.224 856.112 271.355V270.938H856.495V273.222H856.112V272.797C856.037 272.93 855.924 273.041 855.774 273.13C855.627 273.216 855.455 273.259 855.258 273.259C855.055 273.259 854.872 273.209 854.708 273.109C854.544 273.009 854.415 272.869 854.32 272.688C854.226 272.508 854.178 272.302 854.178 272.072ZM856.112 272.076C856.112 271.903 856.077 271.753 856.008 271.626C855.938 271.498 855.844 271.401 855.724 271.334C855.608 271.265 855.479 271.23 855.337 271.23C855.195 271.23 855.066 271.263 854.949 271.33C854.833 271.397 854.74 271.494 854.67 271.622C854.601 271.749 854.566 271.899 854.566 272.072C854.566 272.247 854.601 272.399 854.67 272.53C854.74 272.658 854.833 272.756 854.949 272.826C855.066 272.892 855.195 272.926 855.337 272.926C855.479 272.926 855.608 272.892 855.724 272.826C855.844 272.756 855.938 272.658 856.008 272.53C856.077 272.399 856.112 272.248 856.112 272.076ZM859.061 270.938L857.686 274.297H857.294L857.744 273.197L856.824 270.938H857.244L857.961 272.788L858.67 270.938H859.061Z" fill="#FADDC4"/>
<rect x="872.539" y="242.777" width="3.28524" height="20.2773" rx="1.64262" fill="#F7C79C"/>
<path d="M871.965 270.317V272.463C871.965 272.702 871.891 272.894 871.744 273.038C871.597 273.18 871.402 273.251 871.16 273.251C870.916 273.251 870.72 273.179 870.573 273.034C870.426 272.887 870.352 272.687 870.352 272.434H870.731C870.734 272.576 870.77 272.691 870.84 272.78C870.912 272.869 871.019 272.913 871.16 272.913C871.302 272.913 871.408 272.872 871.477 272.788C871.547 272.702 871.581 272.594 871.581 272.463V270.317H871.965ZM874.695 270.938V273.222H874.316V272.884C874.244 273.001 874.142 273.093 874.012 273.159C873.884 273.223 873.742 273.255 873.587 273.255C873.409 273.255 873.249 273.219 873.108 273.147C872.966 273.072 872.853 272.961 872.77 272.813C872.689 272.666 872.649 272.487 872.649 272.276V270.938H873.024V272.226C873.024 272.451 873.081 272.624 873.195 272.747C873.309 272.866 873.465 272.926 873.662 272.926C873.865 272.926 874.024 272.863 874.141 272.738C874.258 272.613 874.316 272.431 874.316 272.192V270.938H874.695ZM876.406 270.896C876.684 270.896 876.909 270.981 877.081 271.151C877.254 271.317 877.34 271.559 877.34 271.876V273.222H876.965V271.93C876.965 271.702 876.908 271.528 876.794 271.409C876.68 271.287 876.524 271.226 876.327 271.226C876.127 271.226 875.967 271.288 875.848 271.413C875.731 271.538 875.673 271.72 875.673 271.959V273.222H875.294V270.938H875.673V271.263C875.748 271.146 875.849 271.056 875.977 270.992C876.108 270.928 876.251 270.896 876.406 270.896Z" fill="#FADDC4"/>
<rect x="891.769" y="229.516" width="3.28524" height="33.5382" rx="1.64262" fill="#F6F2B4"/>
<path d="M892.195 270.316V272.462C892.195 272.701 892.121 272.893 891.974 273.037C891.827 273.179 891.632 273.25 891.39 273.25C891.146 273.25 890.95 273.178 890.803 273.033C890.656 272.886 890.582 272.686 890.582 272.433H890.961C890.964 272.575 891 272.69 891.07 272.779C891.142 272.868 891.249 272.912 891.39 272.912C891.532 272.912 891.638 272.871 891.707 272.787C891.777 272.701 891.811 272.593 891.811 272.462V270.316H892.195ZM894.925 270.937V273.221H894.546V272.883C894.474 273 894.372 273.092 894.242 273.158C894.114 273.222 893.972 273.254 893.817 273.254C893.639 273.254 893.479 273.218 893.338 273.146C893.196 273.071 893.083 272.96 893 272.812C892.919 272.665 892.879 272.486 892.879 272.275V270.937H893.254V272.225C893.254 272.45 893.311 272.623 893.425 272.746C893.539 272.865 893.695 272.925 893.892 272.925C894.095 272.925 894.254 272.862 894.371 272.737C894.488 272.612 894.546 272.43 894.546 272.191V270.937H894.925ZM895.903 270.137V273.221H895.524V270.137H895.903Z" fill="#FADDC4"/>
<rect x="910.998" y="229.336" width="3.28524" height="33.7187" rx="1.64262" fill="#F7C79C"/>
<path d="M910.178 272.576H908.912L908.678 273.222H908.278L909.328 270.334H909.766L910.812 273.222H910.412L910.178 272.576ZM910.07 272.267L909.545 270.801L909.02 272.267H910.07ZM913.253 270.938V273.222H912.874V272.884C912.801 273.001 912.7 273.093 912.569 273.159C912.442 273.223 912.3 273.255 912.144 273.255C911.967 273.255 911.807 273.219 911.665 273.147C911.524 273.072 911.411 272.961 911.328 272.813C911.247 272.666 911.207 272.487 911.207 272.276V270.938H911.582V272.226C911.582 272.451 911.639 272.624 911.753 272.747C911.867 272.866 912.022 272.926 912.219 272.926C912.422 272.926 912.582 272.863 912.699 272.738C912.815 272.613 912.874 272.431 912.874 272.192V270.938H913.253ZM914.793 270.901C914.99 270.901 915.163 270.944 915.31 271.03C915.46 271.116 915.571 271.224 915.643 271.355V270.938H916.027V273.272C916.027 273.48 915.982 273.665 915.893 273.826C915.804 273.99 915.677 274.118 915.51 274.209C915.346 274.301 915.154 274.347 914.935 274.347C914.635 274.347 914.385 274.276 914.185 274.134C913.985 273.993 913.867 273.8 913.831 273.555H914.206C914.247 273.694 914.333 273.805 914.464 273.888C914.595 273.975 914.752 274.018 914.935 274.018C915.143 274.018 915.313 273.952 915.443 273.822C915.577 273.691 915.643 273.508 915.643 273.272V272.792C915.568 272.926 915.457 273.037 915.31 273.126C915.163 273.215 914.99 273.259 914.793 273.259C914.59 273.259 914.406 273.209 914.239 273.109C914.075 273.009 913.946 272.869 913.851 272.688C913.757 272.508 913.71 272.302 913.71 272.072C913.71 271.838 913.757 271.634 913.851 271.459C913.946 271.281 914.075 271.144 914.239 271.046C914.406 270.949 914.59 270.901 914.793 270.901ZM915.643 272.076C915.643 271.903 915.609 271.753 915.539 271.626C915.47 271.498 915.375 271.401 915.256 271.334C915.139 271.265 915.01 271.23 914.868 271.23C914.727 271.23 914.597 271.263 914.481 271.33C914.364 271.397 914.271 271.494 914.202 271.622C914.132 271.749 914.097 271.899 914.097 272.072C914.097 272.247 914.132 272.399 914.202 272.53C914.271 272.658 914.364 272.756 914.481 272.826C914.597 272.892 914.727 272.926 914.868 272.926C915.01 272.926 915.139 272.892 915.256 272.826C915.375 272.756 915.47 272.658 915.539 272.53C915.609 272.399 915.643 272.248 915.643 272.076Z" fill="#FADDC4"/>
<rect x="930.228" y="221.024" width="3.28524" height="42.0295" rx="1.64262" fill="#F7C79C"/>
<path d="M929.112 273.25C928.92 273.25 928.748 273.217 928.595 273.15C928.445 273.08 928.327 272.986 928.241 272.867C928.155 272.744 928.11 272.604 928.108 272.446H928.512C928.526 272.582 928.581 272.697 928.679 272.791C928.779 272.883 928.923 272.929 929.112 272.929C929.292 272.929 929.434 272.885 929.537 272.796C929.643 272.704 929.695 272.587 929.695 272.446C929.695 272.335 929.665 272.244 929.604 272.175C929.542 272.105 929.466 272.053 929.374 272.016C929.283 271.98 929.159 271.941 929.004 271.9C928.812 271.85 928.658 271.8 928.541 271.75C928.427 271.7 928.328 271.622 928.245 271.516C928.165 271.408 928.124 271.264 928.124 271.083C928.124 270.925 928.165 270.784 928.245 270.662C928.326 270.54 928.438 270.445 928.583 270.379C928.73 270.312 928.898 270.279 929.087 270.279C929.359 270.279 929.581 270.347 929.754 270.483C929.929 270.619 930.027 270.8 930.049 271.025H929.633C929.619 270.914 929.561 270.816 929.458 270.733C929.355 270.647 929.219 270.604 929.049 270.604C928.891 270.604 928.762 270.645 928.662 270.729C928.562 270.809 928.512 270.923 928.512 271.07C928.512 271.176 928.541 271.262 928.599 271.329C928.66 271.396 928.734 271.447 928.82 271.483C928.909 271.516 929.033 271.555 929.191 271.6C929.383 271.652 929.537 271.705 929.654 271.758C929.77 271.808 929.87 271.887 929.954 271.996C930.037 272.101 930.079 272.246 930.079 272.429C930.079 272.571 930.041 272.704 929.966 272.829C929.891 272.954 929.78 273.055 929.633 273.133C929.486 273.211 929.312 273.25 929.112 273.25ZM932.679 271.991C932.679 272.064 932.674 272.14 932.666 272.221H930.841C930.855 272.446 930.931 272.622 931.07 272.75C931.212 272.875 931.383 272.937 931.583 272.937C931.747 272.937 931.883 272.9 931.991 272.825C932.102 272.747 932.18 272.644 932.224 272.516H932.633C932.572 272.736 932.449 272.915 932.266 273.054C932.083 273.19 931.855 273.258 931.583 273.258C931.366 273.258 931.171 273.21 930.999 273.112C930.83 273.015 930.696 272.878 930.599 272.7C930.502 272.519 930.453 272.311 930.453 272.075C930.453 271.839 930.501 271.632 930.595 271.454C930.689 271.276 930.821 271.14 930.991 271.045C931.163 270.948 931.36 270.9 931.583 270.9C931.799 270.9 931.991 270.947 932.158 271.041C932.324 271.136 932.452 271.266 932.541 271.433C932.633 271.597 932.679 271.783 932.679 271.991ZM932.287 271.912C932.287 271.768 932.255 271.644 932.191 271.541C932.127 271.436 932.04 271.357 931.928 271.304C931.82 271.248 931.699 271.221 931.566 271.221C931.374 271.221 931.21 271.282 931.074 271.404C930.941 271.526 930.864 271.696 930.845 271.912H932.287ZM933.517 271.358C933.592 271.227 933.703 271.119 933.85 271.033C934 270.944 934.174 270.9 934.371 270.9C934.574 270.9 934.757 270.948 934.921 271.045C935.088 271.143 935.218 271.28 935.313 271.458C935.407 271.633 935.454 271.837 935.454 272.071C935.454 272.301 935.407 272.507 935.313 272.687C935.218 272.868 935.088 273.008 934.921 273.108C934.757 273.208 934.574 273.258 934.371 273.258C934.176 273.258 934.004 273.215 933.854 273.129C933.707 273.04 933.594 272.93 933.517 272.8V274.304H933.137V270.937H933.517V271.358ZM935.067 272.071C935.067 271.898 935.032 271.748 934.963 271.621C934.893 271.493 934.799 271.396 934.679 271.329C934.563 271.262 934.433 271.229 934.292 271.229C934.153 271.229 934.024 271.264 933.904 271.333C933.787 271.4 933.693 271.498 933.621 271.629C933.551 271.757 933.517 271.905 933.517 272.075C933.517 272.247 933.551 272.398 933.621 272.529C933.693 272.657 933.787 272.755 933.904 272.825C934.024 272.892 934.153 272.925 934.292 272.925C934.433 272.925 934.563 272.892 934.679 272.825C934.799 272.755 934.893 272.657 934.963 272.529C935.032 272.398 935.067 272.246 935.067 272.071Z" fill="#FADDC4"/>
<rect x="949.458" y="225.096" width="3.28524" height="37.9584" rx="1.64262" fill="#F7C79C"/>
<path d="M949.238 273.251C948.968 273.251 948.722 273.188 948.5 273.063C948.278 272.936 948.102 272.759 947.971 272.534C947.843 272.306 947.779 272.051 947.779 271.767C947.779 271.484 947.843 271.23 947.971 271.005C948.102 270.777 948.278 270.601 948.5 270.476C948.722 270.348 948.968 270.284 949.238 270.284C949.51 270.284 949.757 270.348 949.979 270.476C950.202 270.601 950.377 270.776 950.505 271.001C950.632 271.226 950.696 271.481 950.696 271.767C950.696 272.054 950.632 272.309 950.505 272.534C950.377 272.759 950.202 272.936 949.979 273.063C949.757 273.188 949.51 273.251 949.238 273.251ZM949.238 272.922C949.441 272.922 949.623 272.874 949.784 272.78C949.948 272.686 950.075 272.551 950.167 272.376C950.261 272.201 950.309 271.998 950.309 271.767C950.309 271.534 950.261 271.331 950.167 271.159C950.075 270.984 949.949 270.849 949.788 270.755C949.627 270.66 949.443 270.613 949.238 270.613C949.032 270.613 948.849 270.66 948.688 270.755C948.527 270.849 948.399 270.984 948.304 271.159C948.213 271.331 948.167 271.534 948.167 271.767C948.167 271.998 948.213 272.201 948.304 272.376C948.399 272.551 948.527 272.686 948.688 272.78C948.852 272.874 949.035 272.922 949.238 272.922ZM952.43 273.222L951.534 272.213V273.222H951.155V270.138H951.534V271.951L952.414 270.938H952.943L951.868 272.076L952.947 273.222H952.43ZM953.721 271.251V272.597C953.721 272.708 953.744 272.787 953.791 272.834C953.839 272.879 953.921 272.901 954.037 272.901H954.316V273.222H953.975C953.764 273.222 953.605 273.173 953.5 273.076C953.394 272.979 953.341 272.819 953.341 272.597V271.251H953.046V270.938H953.341V270.363H953.721V270.938H954.316V271.251H953.721Z" fill="#FADDC4"/>
<rect x="968.687" y="220.027" width="3.28524" height="43.0268" rx="1.64262" fill="#F6F2B4"/>
<path d="M968.934 273.221H968.555L967.03 270.908V273.221H966.65V270.312H967.03L968.555 272.621V270.312H968.934V273.221ZM970.535 273.258C970.321 273.258 970.126 273.21 969.951 273.112C969.779 273.015 969.643 272.878 969.543 272.7C969.446 272.519 969.397 272.311 969.397 272.075C969.397 271.841 969.447 271.636 969.547 271.458C969.65 271.277 969.789 271.14 969.964 271.045C970.139 270.948 970.335 270.9 970.551 270.9C970.768 270.9 970.964 270.948 971.139 271.045C971.314 271.14 971.451 271.276 971.551 271.454C971.654 271.632 971.706 271.839 971.706 272.075C971.706 272.311 971.653 272.519 971.547 272.7C971.444 272.878 971.304 273.015 971.126 273.112C970.949 273.21 970.751 273.258 970.535 273.258ZM970.535 272.925C970.671 272.925 970.799 272.893 970.918 272.829C971.038 272.765 971.133 272.669 971.206 272.541C971.281 272.414 971.318 272.258 971.318 272.075C971.318 271.891 971.282 271.736 971.21 271.608C971.138 271.48 971.043 271.386 970.926 271.325C970.81 271.261 970.683 271.229 970.547 271.229C970.408 271.229 970.28 271.261 970.164 271.325C970.05 271.386 969.958 271.48 969.889 271.608C969.819 271.736 969.785 271.891 969.785 272.075C969.785 272.261 969.818 272.418 969.885 272.546C969.954 272.673 970.046 272.769 970.16 272.833C970.274 272.894 970.399 272.925 970.535 272.925ZM973.013 272.871L973.721 270.937H974.125L973.229 273.221H972.788L971.892 270.937H972.3L973.013 272.871Z" fill="#FADDC4"/>
<rect x="987.917" y="211.329" width="3.28524" height="51.725" rx="1.64262" fill="#F6F2B4"/>
<path d="M986.784 270.316C987.101 270.316 987.375 270.376 987.605 270.495C987.838 270.612 988.016 270.78 988.138 271C988.264 271.219 988.326 271.477 988.326 271.775C988.326 272.072 988.264 272.33 988.138 272.55C988.016 272.766 987.838 272.933 987.605 273.05C987.375 273.164 987.101 273.221 986.784 273.221H985.88V270.316H986.784ZM986.784 272.908C987.159 272.908 987.445 272.81 987.643 272.612C987.84 272.412 987.938 272.133 987.938 271.775C987.938 271.414 987.838 271.132 987.638 270.929C987.441 270.726 987.156 270.625 986.784 270.625H986.259V272.908H986.784ZM990.868 271.991C990.868 272.064 990.864 272.14 990.856 272.221H989.03C989.044 272.446 989.121 272.622 989.26 272.75C989.401 272.875 989.572 272.937 989.772 272.937C989.936 272.937 990.072 272.9 990.18 272.825C990.292 272.747 990.369 272.644 990.414 272.516H990.822C990.761 272.736 990.639 272.915 990.456 273.054C990.272 273.19 990.044 273.258 989.772 273.258C989.555 273.258 989.361 273.21 989.189 273.112C989.019 273.015 988.886 272.878 988.789 272.7C988.691 272.519 988.643 272.311 988.643 272.075C988.643 271.839 988.69 271.632 988.785 271.454C988.879 271.276 989.011 271.14 989.18 271.045C989.353 270.948 989.55 270.9 989.772 270.9C989.989 270.9 990.18 270.947 990.347 271.041C990.514 271.136 990.642 271.266 990.731 271.433C990.822 271.597 990.868 271.783 990.868 271.991ZM990.476 271.912C990.476 271.768 990.444 271.644 990.381 271.541C990.317 271.436 990.229 271.357 990.118 271.304C990.01 271.248 989.889 271.221 989.755 271.221C989.564 271.221 989.4 271.282 989.264 271.404C989.13 271.526 989.054 271.696 989.035 271.912H990.476ZM991.185 272.075C991.185 271.839 991.232 271.633 991.327 271.458C991.421 271.28 991.552 271.143 991.719 271.045C991.888 270.948 992.081 270.9 992.298 270.9C992.578 270.9 992.809 270.968 992.99 271.104C993.173 271.24 993.294 271.429 993.352 271.671H992.944C992.905 271.532 992.828 271.422 992.715 271.341C992.603 271.261 992.465 271.221 992.298 271.221C992.081 271.221 991.906 271.296 991.773 271.446C991.639 271.593 991.573 271.803 991.573 272.075C991.573 272.35 991.639 272.562 991.773 272.712C991.906 272.862 992.081 272.937 992.298 272.937C992.465 272.937 992.603 272.898 992.715 272.821C992.826 272.743 992.902 272.632 992.944 272.487H993.352C993.291 272.721 993.169 272.908 992.985 273.05C992.802 273.189 992.573 273.258 992.298 273.258C992.081 273.258 991.888 273.21 991.719 273.112C991.552 273.015 991.421 272.878 991.327 272.7C991.232 272.522 991.185 272.314 991.185 272.075Z" fill="#FADDC4"/>
</g>
<defs>
<filter id="filter0_i_1270_14873" x="133.064" y="58.0986" width="372.414" height="502.357" filterUnits="userSpaceOnUse" color-interpolation-filters="sRGB">
<feFlood flood-opacity="0" result="BackgroundImageFix"/>
<feBlend mode="normal" in="SourceGraphic" in2="BackgroundImageFix" result="shape"/>
<feColorMatrix in="SourceAlpha" type="matrix" values="0 0 0 0 0 0 0 0 0 0 0 0 0 0 0 0 0 0 127 0" result="hardAlpha"/>
<feOffset dy="2.22325"/>
<feGaussianBlur stdDeviation="7.41082"/>
<feComposite in2="hardAlpha" operator="arithmetic" k2="-1" k3="1"/>
<feColorMatrix type="matrix" values="0 0 0 0 1 0 0 0 0 1 0 0 0 0 1 0 0 0 0.1 0"/>
<feBlend mode="normal" in2="shape" result="effect1_innerShadow_1270_14873"/>
</filter>
<filter id="filter1_d_1270_14873" x="195.761" y="120.61" width="289.216" height="167.191" filterUnits="userSpaceOnUse" color-interpolation-filters="sRGB">
<feFlood flood-opacity="0" result="BackgroundImageFix"/>
<feColorMatrix in="SourceAlpha" type="matrix" values="0 0 0 0 0 0 0 0 0 0 0 0 0 0 0 0 0 0 127 0" result="hardAlpha"/>
<feOffset dx="33.2992" dy="53.2788"/>
<feGaussianBlur stdDeviation="9.98977"/>
<feComposite in2="hardAlpha" operator="out"/>
<feColorMatrix type="matrix" values="0 0 0 0 0 0 0 0 0 0 0 0 0 0 0 0 0 0 0.15 0"/>
<feBlend mode="normal" in2="BackgroundImageFix" result="effect1_dropShadow_1270_14873"/>
<feBlend mode="normal" in="SourceGraphic" in2="effect1_dropShadow_1270_14873" result="shape"/>
</filter>
<filter id="filter2_i_1270_14873" x="85.5536" y="280.832" width="53.129" height="70.0787" filterUnits="userSpaceOnUse" color-interpolation-filters="sRGB">
<feFlood flood-opacity="0" result="BackgroundImageFix"/>
<feBlend mode="normal" in="SourceGraphic" in2="BackgroundImageFix" result="shape"/>
<feColorMatrix in="SourceAlpha" type="matrix" values="0 0 0 0 0 0 0 0 0 0 0 0 0 0 0 0 0 0 127 0" result="hardAlpha"/>
<feOffset dx="-0.768207" dy="3.07283"/>
<feGaussianBlur stdDeviation="5.37745"/>
<feComposite in2="hardAlpha" operator="arithmetic" k2="-1" k3="1"/>
<feColorMatrix type="matrix" values="0 0 0 0 1 0 0 0 0 1 0 0 0 0 1 0 0 0 0.06 0"/>
<feBlend mode="normal" in2="shape" result="effect1_innerShadow_1270_14873"/>
</filter>
<filter id="filter3_i_1270_14873" x="97.504" y="151.792" width="137.529" height="144.101" filterUnits="userSpaceOnUse" color-interpolation-filters="sRGB">
<feFlood flood-opacity="0" result="BackgroundImageFix"/>
<feBlend mode="normal" in="SourceGraphic" in2="BackgroundImageFix" result="shape"/>
<feColorMatrix in="SourceAlpha" type="matrix" values="0 0 0 0 0 0 0 0 0 0 0 0 0 0 0 0 0 0 127 0" result="hardAlpha"/>
<feOffset dx="-2.30462"/>
<feGaussianBlur stdDeviation="1.53641"/>
<feComposite in2="hardAlpha" operator="arithmetic" k2="-1" k3="1"/>
<feColorMatrix type="matrix" values="0 0 0 0 0.0519444 0 0 0 0 0.211933 0 0 0 0 0.779167 0 0 0 0.19 0"/>
<feBlend mode="normal" in2="shape" result="effect1_innerShadow_1270_14873"/>
</filter>
<filter id="filter4_ii_1270_14873" x="108.397" y="164.826" width="133.572" height="119.751" filterUnits="userSpaceOnUse" color-interpolation-filters="sRGB">
<feFlood flood-opacity="0" result="BackgroundImageFix"/>
<feBlend mode="normal" in="SourceGraphic" in2="BackgroundImageFix" result="shape"/>
<feColorMatrix in="SourceAlpha" type="matrix" values="0 0 0 0 0 0 0 0 0 0 0 0 0 0 0 0 0 0 127 0" result="hardAlpha"/>
<feOffset dx="23.0462" dy="3.07283"/>
<feGaussianBlur stdDeviation="13.0595"/>
<feComposite in2="hardAlpha" operator="arithmetic" k2="-1" k3="1"/>
<feColorMatrix type="matrix" values="0 0 0 0 1 0 0 0 0 0.991667 0 0 0 0 0.991667 0 0 0 0.06 0"/>
<feBlend mode="normal" in2="shape" result="effect1_innerShadow_1270_14873"/>
<feColorMatrix in="SourceAlpha" type="matrix" values="0 0 0 0 0 0 0 0 0 0 0 0 0 0 0 0 0 0 127 0" result="hardAlpha"/>
<feOffset dy="3.07283"/>
<feGaussianBlur stdDeviation="1.53641"/>
<feComposite in2="hardAlpha" operator="arithmetic" k2="-1" k3="1"/>
<feColorMatrix type="matrix" values="0 0 0 0 0.219583 0 0 0 0 0.358275 0 0 0 0 0.85 0 0 0 0.25 0"/>
<feBlend mode="normal" in2="effect1_innerShadow_1270_14873" result="effect2_innerShadow_1270_14873"/>
</filter>
<filter id="filter5_i_1270_14873" x="108.423" y="164.837" width="126.256" height="115.647" filterUnits="userSpaceOnUse" color-interpolation-filters="sRGB">
<feFlood flood-opacity="0" result="BackgroundImageFix"/>
<feBlend mode="normal" in="SourceGraphic" in2="BackgroundImageFix" result="shape"/>
<feColorMatrix in="SourceAlpha" type="matrix" values="0 0 0 0 0 0 0 0 0 0 0 0 0 0 0 0 0 0 127 0" result="hardAlpha"/>
<feOffset dx="23.0462" dy="3.07283"/>
<feGaussianBlur stdDeviation="13.0595"/>
<feComposite in2="hardAlpha" operator="arithmetic" k2="-1" k3="1"/>
<feColorMatrix type="matrix" values="0 0 0 0 1 0 0 0 0 0.991667 0 0 0 0 0.991667 0 0 0 0.06 0"/>
<feBlend mode="normal" in2="shape" result="effect1_innerShadow_1270_14873"/>
</filter>
<filter id="filter6_i_1270_14873" x="91.604" y="150.313" width="135.224" height="147.173" filterUnits="userSpaceOnUse" color-interpolation-filters="sRGB">
<feFlood flood-opacity="0" result="BackgroundImageFix"/>
<feBlend mode="normal" in="SourceGraphic" in2="BackgroundImageFix" result="shape"/>
<feColorMatrix in="SourceAlpha" type="matrix" values="0 0 0 0 0 0 0 0 0 0 0 0 0 0 0 0 0 0 127 0" result="hardAlpha"/>
<feOffset dy="3.07283"/>
<feGaussianBlur stdDeviation="1.53641"/>
<feComposite in2="hardAlpha" operator="arithmetic" k2="-1" k3="1"/>
<feColorMatrix type="matrix" values="0 0 0 0 0.24175 0 0 0 0 0.252231 0 0 0 0 0.272575 0 0 0 0.1 0"/>
<feBlend mode="normal" in2="shape" result="effect1_innerShadow_1270_14873"/>
</filter>
<filter id="filter7_dd_1270_14873" x="499.807" y="343.495" width="346.461" height="201.21" filterUnits="userSpaceOnUse" color-interpolation-filters="sRGB">
<feFlood flood-opacity="0" result="BackgroundImageFix"/>
<feColorMatrix in="SourceAlpha" type="matrix" values="0 0 0 0 0 0 0 0 0 0 0 0 0 0 0 0 0 0 127 0" result="hardAlpha"/>
<feOffset dy="2.38118"/>
<feGaussianBlur stdDeviation="3.57177"/>
<feComposite in2="hardAlpha" operator="out"/>
<feColorMatrix type="matrix" values="0 0 0 0 0 0 0 0 0 0 0 0 0 0 0 0 0 0 0.04 0"/>
<feBlend mode="normal" in2="BackgroundImageFix" result="effect1_dropShadow_1270_14873"/>
<feColorMatrix in="SourceAlpha" type="matrix" values="0 0 0 0 0 0 0 0 0 0 0 0 0 0 0 0 0 0 127 0" result="hardAlpha"/>
<feOffset dy="14.2871"/>
<feGaussianBlur stdDeviation="13.0965"/>
<feComposite in2="hardAlpha" operator="out"/>
<feColorMatrix type="matrix" values="0 0 0 0 0 0 0 0 0 0 0 0 0 0 0 0 0 0 0.25 0"/>
<feBlend mode="normal" in2="effect1_dropShadow_1270_14873" result="effect2_dropShadow_1270_14873"/>
<feBlend mode="normal" in="SourceGraphic" in2="effect2_dropShadow_1270_14873" result="shape"/>
</filter>
<filter id="filter8_d_1270_14873" x="748.861" y="411.933" width="9.22378" height="9.22329" filterUnits="userSpaceOnUse" color-interpolation-filters="sRGB">
<feFlood flood-opacity="0" result="BackgroundImageFix"/>
<feColorMatrix in="SourceAlpha" type="matrix" values="0 0 0 0 0 0 0 0 0 0 0 0 0 0 0 0 0 0 127 0" result="hardAlpha"/>
<feOffset dy="0.595294"/>
<feGaussianBlur stdDeviation="1.19059"/>
<feComposite in2="hardAlpha" operator="out"/>
<feColorMatrix type="matrix" values="0 0 0 0 0.933333 0 0 0 0 0.556863 0 0 0 0 0.223529 0 0 0 1 0"/>
<feBlend mode="normal" in2="BackgroundImageFix" result="effect1_dropShadow_1270_14873"/>
<feBlend mode="normal" in="SourceGraphic" in2="effect1_dropShadow_1270_14873" result="shape"/>
</filter>
<filter id="filter9_dd_1270_14873" x="709.771" y="136.847" width="346.461" height="201.209" filterUnits="userSpaceOnUse" color-interpolation-filters="sRGB">
<feFlood flood-opacity="0" result="BackgroundImageFix"/>
<feColorMatrix in="SourceAlpha" type="matrix" values="0 0 0 0 0 0 0 0 0 0 0 0 0 0 0 0 0 0 127 0" result="hardAlpha"/>
<feOffset dy="2.38118"/>
<feGaussianBlur stdDeviation="3.57177"/>
<feComposite in2="hardAlpha" operator="out"/>
<feColorMatrix type="matrix" values="0 0 0 0 0 0 0 0 0 0 0 0 0 0 0 0 0 0 0.04 0"/>
<feBlend mode="normal" in2="BackgroundImageFix" result="effect1_dropShadow_1270_14873"/>
<feColorMatrix in="SourceAlpha" type="matrix" values="0 0 0 0 0 0 0 0 0 0 0 0 0 0 0 0 0 0 127 0" result="hardAlpha"/>
<feOffset dy="14.2871"/>
<feGaussianBlur stdDeviation="13.0965"/>
<feComposite in2="hardAlpha" operator="out"/>
<feColorMatrix type="matrix" values="0 0 0 0 0 0 0 0 0 0 0 0 0 0 0 0 0 0 0.25 0"/>
<feBlend mode="normal" in2="effect1_dropShadow_1270_14873" result="effect2_dropShadow_1270_14873"/>
<feBlend mode="normal" in="SourceGraphic" in2="effect2_dropShadow_1270_14873" result="shape"/>
</filter>
<linearGradient id="paint0_linear_1270_14873" x1="129.957" y1="284.554" x2="122.055" y2="293.898" gradientUnits="userSpaceOnUse">
<stop stop-color="#303665"/>
<stop offset="1" stop-color="#303665" stop-opacity="0"/>
</linearGradient>
<linearGradient id="paint1_linear_1270_14873" x1="198.415" y1="232.909" x2="212.537" y2="306.247" gradientUnits="userSpaceOnUse">
<stop stop-color="white" stop-opacity="0.4"/>
<stop offset="1" stop-color="white" stop-opacity="0"/>
</linearGradient>
</defs>
</svg>
