<svg width="26" height="26" viewBox="0 0 26 26" fill="none" xmlns="http://www.w3.org/2000/svg">
<path d="M1.54443 6.39187C1.54443 7.06703 1.81264 7.71453 2.29005 8.19194C2.76745 8.66935 3.41496 8.93755 4.09012 8.93755C4.76527 8.93755 5.41278 8.66935 5.89018 8.19194C6.36759 7.71453 6.6358 7.06703 6.6358 6.39187C6.6358 5.71672 6.36759 5.06921 5.89018 4.5918C5.41278 4.1144 4.76527 3.84619 4.09012 3.84619C3.41496 3.84619 2.76745 4.1144 2.29005 4.5918C1.81264 5.06921 1.54443 5.71672 1.54443 6.39187Z" stroke="#EE8E39" stroke-width="2.5" stroke-linecap="round" stroke-linejoin="round"/>
<path d="M15.5457 16.5745C15.5457 17.2496 15.8139 17.8972 16.2913 18.3746C16.7687 18.852 17.4162 19.1202 18.0913 19.1202C18.7665 19.1202 19.414 18.852 19.8914 18.3746C20.3688 17.8972 20.637 17.2496 20.637 16.5745C20.637 15.8993 20.3688 15.2518 19.8914 14.7744C19.414 14.297 18.7665 14.0288 18.0913 14.0288C17.4162 14.0288 16.7687 14.297 16.2913 14.7744C15.8139 15.2518 15.5457 15.8993 15.5457 16.5745Z" stroke="#EE8E39" stroke-width="2.5" stroke-linecap="round" stroke-linejoin="round"/>
<path d="M16.8185 5.11882C16.8185 6.13155 17.2208 7.10281 17.9369 7.81892C18.653 8.53503 19.6243 8.93734 20.637 8.93734C21.6497 8.93734 22.621 8.53503 23.3371 7.81892C24.0532 7.10281 24.4555 6.13155 24.4555 5.11882C24.4555 4.10608 24.0532 3.13482 23.3371 2.41871C22.621 1.7026 21.6497 1.30029 20.637 1.30029C19.6243 1.30029 18.653 1.7026 17.9369 2.41871C17.2208 3.13482 16.8185 4.10608 16.8185 5.11882Z" stroke="#EE8E39" stroke-width="2.5" stroke-linecap="round" stroke-linejoin="round"/>
<path d="M1.54443 20.3927C1.54443 21.4055 1.94674 22.3767 2.66285 23.0928C3.37896 23.809 4.35022 24.2113 5.36296 24.2113C6.37569 24.2113 7.34695 23.809 8.06306 23.0928C8.77917 22.3767 9.18148 21.4055 9.18148 20.3927C9.18148 19.38 8.77917 18.4087 8.06306 17.6926C7.34695 16.9765 6.37569 16.5742 5.36296 16.5742C4.35022 16.5742 3.37896 16.9765 2.66285 17.6926C1.94674 18.4087 1.54443 19.38 1.54443 20.3927Z" stroke="#EE8E39" stroke-width="2.5" stroke-linecap="round" stroke-linejoin="round"/>
<path d="M9.18152 19.1202L15.5457 17.2109" stroke="#EE8E39" stroke-width="2.5" stroke-linecap="round" stroke-linejoin="round"/>
<path d="M5.99939 8.30078L15.9403 15.1359" stroke="#EE8E39" stroke-width="2.5" stroke-linecap="round" stroke-linejoin="round"/>
<path d="M6.63574 6.39149L16.8185 5.11865" stroke="#EE8E39" stroke-width="2.5" stroke-linecap="round" stroke-linejoin="round"/>
</svg>
