<svg width="32" height="33" viewBox="0 0 32 33" fill="none" xmlns="http://www.w3.org/2000/svg">
<path d="M26.6667 4.67871H5.33333C4.97971 4.67871 4.64057 4.81919 4.39052 5.06924C4.14048 5.31928 4 5.65842 4 6.01204V27.3454C4 27.699 4.14048 28.0381 4.39052 28.2882C4.64057 28.5382 4.97971 28.6787 5.33333 28.6787H26.6667C27.0203 28.6787 27.3594 28.5382 27.6095 28.2882C27.8595 28.0381 28 27.699 28 27.3454V6.01204C28 5.65842 27.8595 5.31928 27.6095 5.06924C27.3594 4.81919 27.0203 4.67871 26.6667 4.67871ZM11.1187 25.128H7.556V13.6747H11.1187V25.128ZM9.33733 12.1107C8.78993 12.1107 8.26494 11.8933 7.87786 11.5062C7.49079 11.1191 7.27333 10.5941 7.27333 10.0467C7.27333 9.4993 7.49079 8.97432 7.87786 8.58724C8.26494 8.20017 8.78993 7.98271 9.33733 7.98271C9.88474 7.98271 10.4097 8.20017 10.7968 8.58724C11.1839 8.97432 11.4013 9.4993 11.4013 10.0467C11.4013 10.5941 11.1839 11.1191 10.7968 11.5062C10.4097 11.8933 9.88474 12.1107 9.33733 12.1107ZM24.4507 25.128H20.892V19.5587C20.892 18.2307 20.868 16.5227 19.0413 16.5227C17.188 16.5227 16.9067 17.9707 16.9067 19.4654V25.1294H13.3507V13.676H16.764V15.2414H16.8133C17.2867 14.3414 18.4493 13.392 20.1787 13.392C23.784 13.392 24.4493 15.7627 24.4493 18.848L24.4507 25.128Z" fill="white"/>
</svg>
