<svg width="25" height="24" viewBox="0 0 25 24" fill="none" xmlns="http://www.w3.org/2000/svg">
<path d="M13.6309 5.37402C17.6568 5.37428 20.9209 8.63807 20.9209 12.6641C20.9209 13.4788 20.7847 14.2616 20.5381 14.9932L22.4453 18.2969L19.0518 17.5361C17.7174 19.0198 15.7834 19.954 13.6309 19.9541C9.60478 19.9541 6.34093 16.6901 6.34082 12.6641C6.34082 8.63791 9.60471 5.37402 13.6309 5.37402ZM9.62305 3.14844C10.8322 3.14844 11.9731 3.44034 12.9814 3.9541C8.31911 4.06214 4.57227 7.87322 4.57227 12.5615C4.57228 14.1791 5.01919 15.6923 5.79492 16.9854L2.00391 17.8359L3.66406 14.959C2.7535 13.7283 2.21485 12.2051 2.21484 10.5566C2.21508 6.46537 5.5318 3.14877 9.62305 3.14844ZM13.917 9.05859C13.7036 8.93627 13.431 9.00946 13.3086 9.22266L12.3672 10.8652C12.304 10.9754 12.1966 11.0539 12.0723 11.0801L10.2188 11.4678C10.1414 11.484 10.0693 11.5212 10.0107 11.5742C9.82886 11.7394 9.81546 12.0209 9.98047 12.2031L11.251 13.6064C11.3362 13.7007 11.3769 13.8268 11.3633 13.9531L11.1602 15.835C11.1517 15.9135 11.164 15.9933 11.1963 16.0654C11.297 16.2898 11.5607 16.3897 11.7852 16.2891L13.5127 15.5146C13.6287 15.4625 13.7619 15.4625 13.8779 15.5146L15.6045 16.2891C15.6766 16.3215 15.7564 16.3347 15.835 16.3262C16.0796 16.2997 16.2568 16.0795 16.2305 15.835L16.0264 13.9531C16.0127 13.8267 16.0543 13.7007 16.1396 13.6064L17.4102 12.2031C17.4633 12.1445 17.4994 12.0725 17.5156 11.9951C17.566 11.7544 17.4117 11.5182 17.1709 11.4678L15.3184 11.0801C15.1939 11.054 15.0867 10.9755 15.0234 10.8652L14.0811 9.22266C14.0418 9.15441 13.9852 9.09782 13.917 9.05859Z" fill="#EE8E39"/>
</svg>
