<svg width="32" height="33" viewBox="0 0 32 33" fill="none" xmlns="http://www.w3.org/2000/svg">
<path d="M26.6667 4.67871H5.33333C4.97971 4.67871 4.64057 4.81919 4.39052 5.06924C4.14048 5.31928 4 5.65842 4 6.01204V27.3454C4 27.699 4.14048 28.0381 4.39052 28.2882C4.64057 28.5382 4.97971 28.6787 5.33333 28.6787H16.82V19.3987H13.7027V15.7654H16.82V13.0987C16.82 9.99871 18.7133 8.30938 21.4867 8.30938C22.4187 8.30671 23.352 8.35471 24.28 8.45204V11.6787H22.3667C20.8627 11.6787 20.5693 12.396 20.5693 13.4454V15.7587H24.1653L23.6987 19.392H20.568V28.6787H26.6667C27.0203 28.6787 27.3594 28.5382 27.6095 28.2882C27.8595 28.0381 28 27.699 28 27.3454V6.01204C28 5.65842 27.8595 5.31928 27.6095 5.06924C27.3594 4.81919 27.0203 4.67871 26.6667 4.67871Z" fill="white"/>
</svg>
