<svg width="36" height="36" viewBox="0 0 36 36" fill="none" xmlns="http://www.w3.org/2000/svg">
<path d="M15.0909 23.998H6.3636C5.97783 23.998 5.60786 23.8448 5.33508 23.572C5.0623 23.2992 4.90906 22.9292 4.90906 22.5435V7.998C4.90906 7.61223 5.0623 7.24226 5.33508 6.96948C5.60786 6.6967 5.97783 6.54346 6.3636 6.54346H29.6363C30.0221 6.54346 30.3921 6.6967 30.6649 6.96948C30.9376 7.24226 31.0909 7.61223 31.0909 7.998V17.4525" stroke="#EE8E39" stroke-width="2.18182" stroke-linecap="round" stroke-linejoin="round"/>
<path d="M10.7272 29.8164H15.8181" stroke="#EE8E39" stroke-width="2.18182" stroke-linecap="round" stroke-linejoin="round"/>
<path d="M13.6363 23.998V29.8162" stroke="#EE8E39" stroke-width="2.18182" stroke-linecap="round" stroke-linejoin="round"/>
<path d="M26.4338 31.0054L23.2746 32.6607C23.1808 32.7095 23.0753 32.7313 22.9699 32.7236C22.8645 32.7159 22.7633 32.6791 22.6776 32.6172C22.5919 32.5554 22.5251 32.4709 22.4846 32.3733C22.4441 32.2756 22.4316 32.1687 22.4484 32.0643L23.052 28.5574L20.4964 26.0745C20.4201 26.0008 20.3661 25.9071 20.3405 25.8041C20.3149 25.7011 20.3188 25.593 20.3517 25.4922C20.3846 25.3913 20.4453 25.3017 20.5266 25.2337C20.608 25.1656 20.7069 25.1218 20.812 25.1072L24.3436 24.5952L25.9233 21.4054C25.9705 21.3104 26.0433 21.2305 26.1335 21.1746C26.2237 21.1187 26.3277 21.0891 26.4338 21.0891C26.5399 21.0891 26.6439 21.1187 26.7341 21.1746C26.8243 21.2305 26.8971 21.3104 26.9444 21.4054L28.524 24.5952L32.0556 25.1072C32.1604 25.1223 32.2589 25.1664 32.3399 25.2345C32.421 25.3027 32.4813 25.3921 32.5142 25.4928C32.547 25.5934 32.551 25.7012 32.5258 25.804C32.5005 25.9068 32.447 26.0005 32.3713 26.0745L29.8156 28.5574L30.4178 32.0629C30.4359 32.1674 30.4243 32.2749 30.3843 32.3732C30.3444 32.4715 30.2777 32.5566 30.1918 32.6188C30.1059 32.6811 30.0043 32.718 29.8984 32.7254C29.7926 32.7328 29.6868 32.7104 29.5931 32.6607L26.4338 31.0054Z" stroke="#EE8E39" stroke-width="2.18182" stroke-linecap="round" stroke-linejoin="round"/>
</svg>
