<svg width="32" height="33" viewBox="0 0 32 33" fill="none" xmlns="http://www.w3.org/2000/svg">
<path d="M6.14761 27.7603L12.7159 26.2134L13.2541 22.4265C13.6227 23.3771 14.2729 24.1909 15.1167 24.7578C15.9606 25.3248 16.9573 25.6175 17.9721 25.5963C19.4772 25.5675 20.9107 24.9451 21.9632 23.8635C23.0158 22.7818 23.6031 21.3276 23.5984 19.8146C23.5932 18.7626 23.2485 17.7407 22.6162 16.9024C21.9838 16.0641 21.0979 15.4547 20.0915 15.1656H24.2965L25.8523 4.59961L19.3345 6.14647L18.7963 9.93332C18.4267 8.98348 17.7763 8.17036 16.9327 7.60358C16.089 7.0368 15.0928 6.7436 14.0783 6.76352C12.5739 6.79452 11.1417 7.41759 10.0896 8.49876C9.03745 9.57994 8.44944 11.0329 8.45196 12.5452C8.44105 13.6069 8.77755 14.6428 9.40968 15.4935C10.0418 16.3442 10.9346 16.9626 11.9505 17.2534H7.74552L6.14761 27.7603Z" fill="#20222F"/>
</svg>
