<svg width="32" height="33" viewBox="0 0 32 33" fill="none" xmlns="http://www.w3.org/2000/svg">
<path d="M16 4.71216C22.3333 4.71216 27.4678 9.84659 27.4678 16.1799C27.4678 22.5133 22.3333 27.6477 16 27.6477C9.66666 27.6477 4.53223 22.5133 4.53223 16.1799C4.53223 9.84659 9.66666 4.71216 16 4.71216ZM17.9355 13.9368C17.9355 13.9368 17.8263 14.1037 17.5811 14.2512C17.4226 14.3404 17.2717 14.4039 17.1074 14.4836C16.8351 14.6157 16.7578 14.7689 16.7578 14.9944V19.51C16.7578 19.51 17.1986 19.5634 17.4785 19.4202C17.8457 19.2299 17.9278 19.0467 17.9346 18.2161L17.9355 13.9368ZM24.4355 12.8704C24.4355 12.8704 23.5112 12.7089 23.0518 13.136C22.7568 13.4062 22.4297 13.8948 22.4297 13.8948L21.627 15.0833C21.5824 15.1423 21.5396 15.212 21.459 15.2122C21.3755 15.2122 21.3226 15.1476 21.2881 15.0833L20.4775 13.8977C20.4694 13.8856 20.149 13.4074 19.8535 13.1399C19.4031 12.7168 18.4903 12.8709 18.4707 12.8743L20.665 16.1887L18.4707 19.4963C18.4893 19.4987 19.4411 19.6203 19.8936 19.1965C20.1885 18.9264 20.4736 18.4788 20.4736 18.4788L21.2744 17.2932C21.319 17.235 21.3617 17.1674 21.4424 17.1672C21.5267 17.1672 21.5787 17.2315 21.6133 17.2932L22.416 18.4788C22.4211 18.4862 22.7175 18.9185 23.0059 19.1965C23.4594 19.6244 24.4111 19.4963 24.4111 19.4963L22.2441 16.1936L24.4355 12.8704ZM7.56445 12.8508L9.29102 19.509C9.29102 19.509 9.86152 19.5532 10.1465 19.4006C10.5182 19.2085 10.7021 19.0564 10.9297 18.1458C11.1329 17.3393 11.6987 14.9695 11.751 14.7971C11.7754 14.7128 11.8102 14.5129 11.9541 14.5129C12.1047 14.513 12.1345 14.7086 12.1572 14.7971C12.2112 14.9643 12.7722 17.3394 12.9805 18.1458C13.2063 19.0501 13.3853 19.1984 13.7627 19.4006C14.0476 19.5533 14.6191 19.509 14.6191 19.509L16.3447 12.8557C16.3259 12.8536 15.6739 12.7761 15.2363 13.1653C14.9669 13.4106 14.8848 13.7991 14.8848 13.7991L13.9756 17.3499L13.2266 14.4387C13.1532 14.1344 13.0184 13.7459 12.8086 13.4895C12.5473 13.1654 12.013 13.1448 11.9531 13.1448C11.8953 13.1448 11.355 13.1653 11.0879 13.4944C10.8807 13.7542 10.7462 14.1386 10.6729 14.4446L9.92285 17.3557L9.02441 13.7991C9.0215 13.7847 8.94151 13.4009 8.67188 13.1653C8.22594 12.767 7.56445 12.8508 7.56445 12.8508ZM17.9355 12.845C17.9355 12.845 17.4689 12.8318 17.2168 12.969C16.8798 13.1508 16.7578 13.4506 16.7578 14.2805C16.7578 14.2805 16.9284 14.1142 17.1787 14.0208C17.3331 13.9638 17.4785 13.8839 17.6104 13.7844C17.8952 13.5726 17.9355 13.3028 17.9355 12.845Z" fill="#20222F"/>
</svg>
