<svg width="32" height="33" viewBox="0 0 32 33" fill="none" xmlns="http://www.w3.org/2000/svg">
<path d="M27.9293 11.752C27.9159 10.7422 27.7268 9.74235 27.3706 8.79732C27.0618 8.00019 26.59 7.27625 25.9855 6.67176C25.381 6.06727 24.6571 5.59552 23.86 5.28665C22.9271 4.93646 21.9415 4.74711 20.9453 4.72665C19.6626 4.66932 19.256 4.65332 16 4.65332C12.744 4.65332 12.3266 4.65332 11.0533 4.72665C10.0575 4.74726 9.07244 4.93661 8.13997 5.28665C7.34272 5.59531 6.61867 6.06698 6.01415 6.6715C5.40963 7.27602 4.93796 8.00006 4.6293 8.79732C4.27841 9.7295 4.08947 10.7148 4.07064 11.7107C4.01331 12.9947 3.99597 13.4013 3.99597 16.6573C3.99597 19.9133 3.99597 20.3293 4.07064 21.604C4.09064 22.6013 4.27864 23.5853 4.6293 24.52C4.93848 25.317 5.4105 26.0408 6.01522 26.645C6.61994 27.2493 7.34406 27.7208 8.14131 28.0293C9.07122 28.3936 10.0565 28.5965 11.0546 28.6293C12.3386 28.6867 12.7453 28.704 16.0013 28.704C19.2573 28.704 19.6746 28.704 20.948 28.6293C21.9442 28.6097 22.9298 28.4208 23.8626 28.0707C24.6596 27.7614 25.3833 27.2896 25.9878 26.6851C26.5922 26.0807 27.0641 25.3569 27.3733 24.56C27.724 23.6267 27.912 22.6427 27.932 21.644C27.9893 20.3613 28.0066 19.9547 28.0066 16.6973C28.004 13.4413 28.004 13.028 27.9293 11.752ZM15.992 22.8147C12.5866 22.8147 9.82797 20.056 9.82797 16.6507C9.82797 13.2453 12.5866 10.4867 15.992 10.4867C17.6268 10.4867 19.1946 11.1361 20.3506 12.292C21.5066 13.448 22.156 15.0159 22.156 16.6507C22.156 18.2854 21.5066 19.8533 20.3506 21.0093C19.1946 22.1652 17.6268 22.8147 15.992 22.8147ZM22.4013 11.696C22.2125 11.6962 22.0255 11.6591 21.8511 11.5869C21.6766 11.5148 21.5181 11.4089 21.3846 11.2754C21.2511 11.1419 21.1452 10.9834 21.073 10.8089C21.0009 10.6344 20.9638 10.4475 20.964 10.2587C20.964 10.07 21.0011 9.88317 21.0733 9.70887C21.1455 9.53456 21.2514 9.37618 21.3848 9.24278C21.5182 9.10937 21.6765 9.00355 21.8509 8.93135C22.0252 8.85915 22.212 8.82199 22.4006 8.82199C22.5893 8.82199 22.7761 8.85915 22.9504 8.93135C23.1247 9.00355 23.2831 9.10937 23.4165 9.24278C23.5499 9.37618 23.6557 9.53456 23.7279 9.70887C23.8001 9.88317 23.8373 10.07 23.8373 10.2587C23.8373 11.0533 23.1946 11.696 22.4013 11.696Z" fill="white"/>
<path d="M15.992 20.6545C18.2034 20.6545 19.996 18.8618 19.996 16.6505C19.996 14.4391 18.2034 12.6465 15.992 12.6465C13.7807 12.6465 11.988 14.4391 11.988 16.6505C11.988 18.8618 13.7807 20.6545 15.992 20.6545Z" fill="white"/>
</svg>
