<svg width="36" height="36" viewBox="0 0 36 36" fill="none" xmlns="http://www.w3.org/2000/svg">
<path d="M19.8269 30.5044C18.5832 31.8237 16.0698 31.4397 15.5636 29.3553C15.4706 28.9716 15.2884 28.6152 15.0317 28.3153C14.7749 28.0153 14.451 27.7802 14.0863 27.6291C13.7215 27.478 13.3263 27.4151 12.9326 27.4457C12.539 27.4762 12.1582 27.5992 11.8211 27.8047C9.57669 29.172 7.00651 26.6033 8.37378 24.3575C8.57902 24.0205 8.70186 23.6399 8.73231 23.2465C8.76276 22.8532 8.69996 22.4582 8.54902 22.0936C8.39808 21.7291 8.16325 21.4054 7.86364 21.1487C7.56402 20.892 7.20806 20.7096 6.82469 20.6164C4.27051 19.9967 4.27051 16.3633 6.82469 15.7437C7.2084 15.6507 7.56474 15.4684 7.86469 15.2117C8.16465 14.955 8.39975 14.6311 8.55087 14.2663C8.70199 13.9016 8.76484 13.5063 8.73432 13.1127C8.7038 12.7191 8.58077 12.3382 8.37524 12.0011C7.00797 9.75675 9.57669 7.18657 11.8225 8.55384C13.2771 9.4382 15.1621 8.65566 15.5636 7.00475C16.1832 4.45057 19.8167 4.45057 20.4363 7.00475C20.5293 7.38846 20.7116 7.74479 20.9683 8.04475C21.225 8.3447 21.5489 8.57981 21.9136 8.73092C22.2784 8.88204 22.6737 8.94489 23.0673 8.91438C23.4609 8.88386 23.8418 8.76082 24.1789 8.55529C26.4232 7.18802 28.9934 9.75675 27.6261 12.0026C27.4209 12.3395 27.2981 12.7201 27.2676 13.1135C27.2372 13.5069 27.3 13.9019 27.4509 14.2664C27.6019 14.6309 27.8367 14.9547 28.1363 15.2114C28.4359 15.4681 28.7919 15.6504 29.1752 15.7437C30.7316 16.1218 31.3396 17.62 30.9992 18.8709" stroke="#EE8E39" stroke-width="2.18182" stroke-linecap="round" stroke-linejoin="round"/>
<path d="M28.1818 23.998L25.2727 28.3617H31.0909L28.1818 32.7253" stroke="#EE8E39" stroke-width="2.18182" stroke-linecap="round" stroke-linejoin="round"/>
<path d="M13.6364 18.18C13.6364 19.3374 14.0961 20.4473 14.9144 21.2656C15.7328 22.0839 16.8427 22.5437 18 22.5437C19.1573 22.5437 20.2672 22.0839 21.0855 21.2656C21.9039 20.4473 22.3636 19.3374 22.3636 18.18C22.3636 17.0227 21.9039 15.9128 21.0855 15.0945C20.2672 14.2761 19.1573 13.8164 18 13.8164C16.8427 13.8164 15.7328 14.2761 14.9144 15.0945C14.0961 15.9128 13.6364 17.0227 13.6364 18.18Z" stroke="#EE8E39" stroke-width="2.18182" stroke-linecap="round" stroke-linejoin="round"/>
</svg>
