<svg width="34" height="35" viewBox="0 0 34 35" fill="none" xmlns="http://www.w3.org/2000/svg">
<path d="M29.7279 18.2738C29.8834 15.5603 29.2167 12.8639 27.8198 10.5571C26.4229 8.25038 24.3646 6.447 21.9293 5.39607C19.4941 4.34515 16.8019 4.09851 14.2246 4.69024C11.6473 5.28196 9.31202 6.68285 7.54133 8.69943C5.77064 10.716 4.65187 13.2488 4.33952 15.948C4.02717 18.6472 4.53666 21.3796 5.79762 23.768C7.05858 26.1563 9.0088 28.0827 11.3789 29.2811C13.7491 30.4795 16.4222 30.8908 19.0292 30.4582" stroke="#EE8E39" stroke-width="2.5" stroke-linecap="round" stroke-linejoin="round"/>
<path d="M17 10.209V17.5007L21.25 21.8757" stroke="#EE8E39" stroke-width="2.5" stroke-linecap="round" stroke-linejoin="round"/>
<path d="M26.9166 23.334L24.0833 27.709H29.75L26.9166 32.084" stroke="#EE8E39" stroke-width="2.5" stroke-linecap="round" stroke-linejoin="round"/>
</svg>
