<svg width="36" height="36" viewBox="0 0 36 36" fill="none" xmlns="http://www.w3.org/2000/svg">
<path d="M7.81818 15.2709C7.81818 16.0424 8.12467 16.7824 8.67023 17.3279C9.21579 17.8735 9.95573 18.18 10.7273 18.18C11.4988 18.18 12.2387 17.8735 12.7843 17.3279C13.3299 16.7824 13.6364 16.0424 13.6364 15.2709C13.6364 14.4994 13.3299 13.7594 12.7843 13.2139C12.2387 12.6683 11.4988 12.3618 10.7273 12.3618C9.95573 12.3618 9.21579 12.6683 8.67023 13.2139C8.12467 13.7594 7.81818 14.4994 7.81818 15.2709Z" stroke="#EE8E39" stroke-width="2.18182" stroke-linecap="round" stroke-linejoin="round"/>
<path d="M22.3636 12.3617C22.3636 13.1333 22.6701 13.8732 23.2157 14.4188C23.7613 14.9643 24.5012 15.2708 25.2727 15.2708C26.0443 15.2708 26.7842 14.9643 27.3298 14.4188C27.8753 13.8732 28.1818 13.1333 28.1818 12.3617C28.1818 11.5902 27.8753 10.8502 27.3298 10.3047C26.7842 9.75913 26.0443 9.45264 25.2727 9.45264C24.5012 9.45264 23.7613 9.75913 23.2157 10.3047C22.6701 10.8502 22.3636 11.5902 22.3636 12.3617Z" stroke="#EE8E39" stroke-width="2.18182" stroke-linecap="round" stroke-linejoin="round"/>
<path d="M15.0909 23.9982C15.0909 24.7697 15.3974 25.5097 15.9429 26.0552C16.4885 26.6008 17.2284 26.9073 18 26.9073C18.7715 26.9073 19.5114 26.6008 20.057 26.0552C20.6026 25.5097 20.9091 24.7697 20.9091 23.9982C20.9091 23.2267 20.6026 22.4867 20.057 21.9412C19.5114 21.3956 18.7715 21.0891 18 21.0891C17.2284 21.0891 16.4885 21.3956 15.9429 21.9412C15.3974 22.4867 15.0909 23.2267 15.0909 23.9982Z" stroke="#EE8E39" stroke-width="2.18182" stroke-linecap="round" stroke-linejoin="round"/>
<path d="M12.4144 17.6274L15.8181 21.8165" stroke="#EE8E39" stroke-width="2.18182" stroke-linecap="round" stroke-linejoin="round"/>
<path d="M19.5852 21.5663L23.7117 14.8958" stroke="#EE8E39" stroke-width="2.18182" stroke-linecap="round" stroke-linejoin="round"/>
</svg>
