<svg width="25" height="24" viewBox="0 0 25 24" fill="none" xmlns="http://www.w3.org/2000/svg">
<path d="M17.4971 4.79297C19.7061 4.7931 21.4971 6.58391 21.4971 8.79297V15.207C21.4971 17.4161 19.7061 19.2069 17.4971 19.207H14.2422L12.3271 21.1221L10.4121 19.207H7.15723C4.94823 19.2069 3.15723 17.4161 3.15723 15.207V8.79297C3.15723 6.58393 4.94823 4.79313 7.15723 4.79297H17.4971ZM12.5488 8.39453C12.3354 8.27215 12.0628 8.34616 11.9404 8.55957L10.999 10.2012C10.9358 10.3114 10.8285 10.3899 10.7041 10.416L8.85059 10.8037C8.7733 10.8199 8.70209 10.8571 8.64355 10.9102C8.46121 11.0753 8.44715 11.3567 8.6123 11.5391L9.88281 12.9424C9.96814 13.0366 10.0097 13.1627 9.99609 13.2891L9.79199 15.1709C9.78349 15.2495 9.79674 15.3292 9.8291 15.4014C9.92983 15.6258 10.1935 15.7267 10.418 15.626L12.1445 14.8506C12.2606 14.7985 12.3937 14.7985 12.5098 14.8506L14.2363 15.626C14.3084 15.6583 14.3883 15.6706 14.4668 15.6621C14.7114 15.6356 14.8887 15.4155 14.8623 15.1709L14.6582 13.2891C14.6445 13.1627 14.6862 13.0366 14.7715 12.9424L16.042 11.5391C16.0952 11.4804 16.1322 11.4085 16.1484 11.3311C16.1986 11.0905 16.0442 10.8542 15.8037 10.8037L13.9502 10.416C13.8258 10.3899 13.7185 10.3114 13.6553 10.2012L12.7139 8.55957C12.6746 8.49101 12.6173 8.43387 12.5488 8.39453Z" fill="#EE8E39"/>
</svg>
