<svg width="36" height="36" viewBox="0 0 36 36" fill="none" xmlns="http://www.w3.org/2000/svg">
<path d="M20.9287 10.6087C21.3191 10.2182 21.9522 10.2184 22.3428 10.6087L28.707 16.9729C29.0976 17.3634 29.0976 17.9965 28.707 18.387L22.3428 24.7512C21.9522 25.1415 21.3191 25.1417 20.9287 24.7512C20.5383 24.3608 20.5385 23.7277 20.9287 23.3372L26.333 17.9329V17.427L20.9287 12.0227C20.5385 11.6322 20.5383 10.9991 20.9287 10.6087ZM9.66699 16.68V18.68H8V16.68H9.66699ZM16.333 16.68V18.68H13V16.68H16.333ZM23 16.68V18.68H19.667V16.68H23Z" fill="#B8BDC7"/>
</svg>
