<svg width="30" height="31" viewBox="0 0 30 31" fill="none" xmlns="http://www.w3.org/2000/svg">
<path d="M8.97007 26.9481L14.4238 24.5009C14.7902 24.3363 15.2094 24.3363 15.5758 24.5009L21.0296 26.9481C21.2572 27.0504 21.5084 27.0902 21.7565 27.0633C22.5289 26.9798 23.0872 26.2861 23.0039 25.5139L22.3616 19.5707C22.3183 19.1714 22.4479 18.7729 22.7173 18.4751L26.7303 14.0446C26.8981 13.8595 27.0133 13.6331 27.0645 13.3887C27.2237 12.6284 26.7366 11.8829 25.9763 11.7237L20.1255 10.498C19.7325 10.4156 19.3935 10.1693 19.1938 9.821L16.2199 4.63528C16.0958 4.41868 15.9161 4.23902 15.6996 4.11481C15.0256 3.72838 14.1661 3.96141 13.7797 4.63528L10.8058 9.821C10.6061 10.1693 10.267 10.4156 9.87413 10.498L4.02331 11.7237C3.77891 11.7749 3.55257 11.8902 3.36749 12.0578C2.79173 12.5793 2.74772 13.4688 3.2692 14.0446L7.28218 18.4751C7.55172 18.7729 7.68124 19.1714 7.6381 19.5707L6.99578 25.5139C6.96894 25.762 7.00869 26.0129 7.11092 26.2408C7.42897 26.9494 8.26134 27.2661 8.97007 26.9481Z" fill="#EE8E39"/>
</svg>
