<svg width="36" height="36" viewBox="0 0 36 36" fill="none" xmlns="http://www.w3.org/2000/svg">
<path d="M12.1818 13.8164H23.8182" stroke="#EE8E39" stroke-width="2.18182" stroke-linecap="round" stroke-linejoin="round"/>
<path d="M12.1818 19.6345H18.7273" stroke="#EE8E39" stroke-width="2.18182" stroke-linecap="round" stroke-linejoin="round"/>
<path d="M15.5636 29.2416L12.1818 31.2707V26.9071H9.27272C8.11542 26.9071 7.00551 26.4474 6.18717 25.629C5.36883 24.8107 4.90909 23.7008 4.90909 22.5435V10.9071C4.90909 9.74978 5.36883 8.63988 6.18717 7.82154C7.00551 7.0032 8.11542 6.54346 9.27272 6.54346H26.7273C27.8846 6.54346 28.9945 7.0032 29.8128 7.82154C30.6312 8.63988 31.0909 9.74978 31.0909 10.9071V17.4525" stroke="#EE8E39" stroke-width="2.18182" stroke-linecap="round" stroke-linejoin="round"/>
<path d="M26.4339 31.0054L23.2746 32.6607C23.1808 32.7095 23.0754 32.7313 22.97 32.7236C22.8645 32.7159 22.7633 32.6791 22.6776 32.6172C22.5919 32.5554 22.5251 32.4709 22.4846 32.3733C22.4442 32.2756 22.4316 32.1687 22.4484 32.0643L23.0521 28.5574L20.4964 26.0745C20.4201 26.0008 20.3661 25.9071 20.3406 25.8041C20.315 25.7011 20.3189 25.593 20.3518 25.4922C20.3847 25.3913 20.4453 25.3017 20.5267 25.2337C20.6081 25.1656 20.707 25.1218 20.8121 25.1072L24.3437 24.5952L25.9233 21.4054C25.9706 21.3104 26.0434 21.2305 26.1336 21.1746C26.2238 21.1187 26.3278 21.0891 26.4339 21.0891C26.54 21.0891 26.644 21.1187 26.7342 21.1746C26.8244 21.2305 26.8972 21.3104 26.9444 21.4054L28.5241 24.5952L32.0557 25.1072C32.1605 25.1223 32.259 25.1664 32.34 25.2345C32.421 25.3027 32.4814 25.3921 32.5142 25.4928C32.547 25.5934 32.5511 25.7012 32.5258 25.804C32.5006 25.9068 32.4471 26.0005 32.3713 26.0745L29.8157 28.5574L30.4179 32.0629C30.4359 32.1674 30.4243 32.2749 30.3844 32.3732C30.3444 32.4715 30.2777 32.5566 30.1918 32.6188C30.1059 32.6811 30.0043 32.718 29.8985 32.7254C29.7927 32.7328 29.6869 32.7104 29.5931 32.6607L26.4339 31.0054Z" stroke="#EE8E39" stroke-width="2.18182" stroke-linecap="round" stroke-linejoin="round"/>
</svg>
