<svg width="25" height="24" viewBox="0 0 25 24" fill="none" xmlns="http://www.w3.org/2000/svg">
<path d="M19.8371 5.85L13.8971 2.42C12.9271 1.86 11.7271 1.86 10.7471 2.42L4.81707 5.85C3.84707 6.41 3.24707 7.45 3.24707 8.58V15.42C3.24707 16.54 3.84707 17.58 4.81707 18.15L10.7571 21.58C11.7271 22.14 12.9271 22.14 13.9071 21.58L19.8471 18.15C20.8171 17.59 21.4171 16.55 21.4171 15.42V8.58C21.4071 7.45 20.8071 6.42 19.8371 5.85ZM14.5771 13.4L13.5371 14L12.4971 14.6C11.1671 15.37 10.0771 14.74 10.0771 13.2V12V10.8C10.0771 9.26 11.1671 8.63 12.4971 9.4L13.5371 10L14.5771 10.6C15.9071 11.37 15.9071 12.63 14.5771 13.4Z" fill="#EE8E39"/>
</svg>
