<svg width="32" height="33" viewBox="0 0 32 33" fill="none" xmlns="http://www.w3.org/2000/svg">
<path d="M28.7906 10.2826C28.6387 9.71909 28.342 9.20523 27.9298 8.79211C27.5176 8.379 27.0044 8.08104 26.4413 7.92789C24.3533 7.35456 16 7.34522 16 7.34522C16 7.34522 7.64795 7.33589 5.55862 7.88389C4.99585 8.04409 4.48371 8.34626 4.07137 8.7614C3.65903 9.17655 3.36033 9.69072 3.20395 10.2546C2.65328 12.3426 2.64795 16.6732 2.64795 16.6732C2.64795 16.6732 2.64262 21.0252 3.18928 23.0919C3.49595 24.2346 4.39595 25.1372 5.53995 25.4452C7.64929 26.0186 15.98 26.0279 15.98 26.0279C15.98 26.0279 24.3333 26.0372 26.4213 25.4906C26.9846 25.3377 27.4983 25.0404 27.9115 24.6281C28.3247 24.2159 28.6231 23.7029 28.7773 23.1399C29.3293 21.0532 29.3333 16.7239 29.3333 16.7239C29.3333 16.7239 29.36 12.3706 28.7906 10.2826ZM13.328 20.6852L13.3346 12.6852L20.2773 16.6919L13.328 20.6852Z" fill="white"/>
</svg>
