<svg width="30" height="31" viewBox="0 0 30 31" fill="none" xmlns="http://www.w3.org/2000/svg">
<path fill-rule="evenodd" clip-rule="evenodd" d="M2.03699 10.995C2.03699 7.22696 5.09159 4.17236 8.85963 4.17236H21.1402C24.9082 4.17236 27.9628 7.22696 27.9628 10.995V25.4631C27.9628 26.2172 27.3511 26.8283 26.5971 26.8276L8.85358 26.8119C5.08791 26.8086 2.03699 23.755 2.03699 19.9893V10.995ZM12.6447 19.5034L14.7749 18.5475C14.918 18.4832 15.0817 18.4832 15.2248 18.5475L17.3551 19.5034C17.444 19.5433 17.5421 19.5589 17.639 19.5484C17.9407 19.5157 18.1588 19.2448 18.1262 18.9431L17.8753 16.6217C17.8584 16.4658 17.9091 16.3101 18.0143 16.1938L19.5817 14.4633C19.6473 14.391 19.6923 14.3026 19.7123 14.2071C19.7745 13.9101 19.5842 13.6189 19.2872 13.5567L17.0019 13.078C16.8484 13.0458 16.716 12.9496 16.638 12.8136L15.4764 10.788C15.428 10.7034 15.3577 10.6332 15.2732 10.5847C15.0099 10.4338 14.6742 10.5248 14.5233 10.788L13.3617 12.8136C13.2837 12.9496 13.1513 13.0458 12.9978 13.078L10.7125 13.5567C10.617 13.5767 10.5286 13.6218 10.4563 13.6872C10.2314 13.8909 10.2142 14.2384 10.4179 14.4633L11.9854 16.1938C12.0907 16.3101 12.1412 16.4658 12.1244 16.6217L11.8735 18.9431C11.863 19.0401 11.8785 19.1381 11.9185 19.2271C12.0427 19.5039 12.3678 19.6276 12.6447 19.5034Z" fill="#EE8E39"/>
</svg>
