<svg width="32" height="33" viewBox="0 0 32 33" fill="none" xmlns="http://www.w3.org/2000/svg">
<path d="M19.32 28.0959L26.4947 26.5413C26.4947 26.5413 23.9067 9.02392 23.8853 8.90792C23.864 8.79325 23.7707 8.71592 23.6747 8.71592C23.5787 8.71592 21.756 8.58125 21.756 8.58125C21.756 8.58125 20.4907 7.31592 20.3373 7.18125C20.3013 7.14258 20.2613 7.12392 20.2227 7.10392L19.32 28.0959ZM19.9147 7.06658C19.8933 7.06658 19.8573 7.08525 19.8387 7.08525C19.8173 7.08525 19.5493 7.16392 19.128 7.29592C18.704 6.07058 17.956 4.93858 16.6333 4.93858H16.5187C16.1333 4.45725 15.6747 4.24658 15.2707 4.24658C12.1827 4.24658 10.7027 8.10258 10.244 10.0586C9.05466 10.4252 8.19333 10.6932 8.09333 10.7319C7.42133 10.9426 7.40399 10.9612 7.32799 11.5959C7.25199 12.0546 5.50533 25.5813 5.50533 25.5813L18.9947 28.1133L19.9147 7.06658ZM16.4013 8.00525V8.14125C15.656 8.37192 14.8307 8.62125 14.024 8.87058C14.4853 7.10658 15.3467 6.24125 16.0947 5.91458C16.2893 6.41458 16.4013 7.08525 16.4013 8.00525ZM15.1747 5.07192C15.308 5.07192 15.4427 5.10925 15.5787 5.20792C14.6027 5.66658 13.5267 6.83725 13.084 9.17858C12.4593 9.3784 11.8321 9.57042 11.2027 9.75458C11.7213 7.96925 12.9693 5.07192 15.1747 5.07192ZM15.7107 15.4879C15.7107 15.4879 14.9053 15.0679 13.948 15.0679C12.508 15.0679 12.4507 15.9692 12.4507 16.1999C12.4507 17.4279 15.6747 17.9066 15.6747 20.8039C15.6747 23.0866 14.2347 24.5452 12.2787 24.5452C9.93732 24.5452 8.74799 23.0866 8.74799 23.0866L9.38132 21.0146C9.38132 21.0146 10.6107 22.0706 11.644 22.0706C11.7681 22.0756 11.892 22.0555 12.0081 22.0116C12.1243 21.9677 12.2304 21.9008 12.3202 21.8149C12.4099 21.729 12.4814 21.6259 12.5304 21.5118C12.5794 21.3976 12.6049 21.2748 12.6053 21.1506C12.6053 19.5386 9.95732 19.4599 9.95732 16.8146C9.95732 14.5892 11.5507 12.4212 14.7933 12.4212C16.0413 12.4212 16.6533 12.7839 16.6533 12.7839L15.7107 15.4879ZM16.94 5.77992C17.6307 5.85992 18.0733 6.64392 18.3587 7.52792C18.0147 7.64392 17.6293 7.75858 17.208 7.89192V7.64258C17.208 6.89458 17.112 6.27992 16.94 5.77992Z" fill="#20222F"/>
</svg>
