<svg width="32" height="33" viewBox="0 0 32 33" fill="none" xmlns="http://www.w3.org/2000/svg">
<path d="M16.5886 17.6978H19.351C20.1367 17.6978 20.634 17.2652 20.634 16.5707C20.634 15.9164 20.1367 15.4446 19.351 15.4446H16.5886C16.4974 15.4446 16.418 15.5231 16.418 15.6016V17.5408C16.4317 17.6321 16.4965 17.6978 16.5886 17.6978ZM16.5886 22.1657H19.4431C20.3201 22.1657 20.8439 21.7203 20.8439 20.9337C20.8439 20.2529 20.3466 19.7017 19.4431 19.7017H16.5886C16.4974 19.7017 16.418 19.7811 16.418 19.8596V21.995C16.4317 22.1 16.4965 22.1657 16.5886 22.1657ZM26.6953 5.27779L18.5251 13.427H19.8611C21.9426 13.427 23.1737 14.7365 23.1737 16.1647C23.1737 17.2917 22.4144 18.1175 21.6022 18.4835C21.4718 18.5364 21.4718 18.7198 21.615 18.7718C22.5577 19.1387 23.2257 20.1224 23.2257 21.2741C23.2257 22.8984 22.1397 24.1961 20.0317 24.1961H14.2443C14.153 24.1961 14.0736 24.1176 14.0736 24.0391V17.8684L5.10588 26.8024C4.98724 26.921 5.06664 27.13 5.23637 27.13H26.8011C26.8392 27.1295 26.8756 27.1142 26.9025 27.0872C26.9295 27.0603 26.9448 27.0239 26.9453 26.9858V5.39551C26.9845 5.25133 26.8011 5.17285 26.6962 5.27688L26.6953 5.27779Z" fill="#20222F"/>
</svg>
