<svg width="28" height="29" viewBox="0 0 28 29" fill="none" xmlns="http://www.w3.org/2000/svg">
<path d="M25.3554 13.1361C25.1676 10.761 24.2807 8.49479 22.8066 6.62314C21.3325 4.75149 19.3372 3.35825 17.0723 2.61913C14.8074 1.88 12.3743 1.82809 10.08 2.46995C7.78559 3.1118 5.73266 4.41867 4.18006 6.22574C2.62746 8.03282 1.64472 10.2592 1.35578 12.624C1.06683 14.9889 1.48463 17.3864 2.55647 19.5141C3.62831 21.6419 5.3062 23.4046 7.37853 24.5799C9.45087 25.7553 11.8248 26.2907 14.2011 26.1187" stroke="#EE8E39" stroke-width="2.5" stroke-linecap="round" stroke-linejoin="round"/>
<path d="M2.073 10.0649H24.5908" stroke="#EE8E39" stroke-width="2.5" stroke-linecap="round" stroke-linejoin="round"/>
<path d="M2.073 18.1069H14.0021" stroke="#EE8E39" stroke-width="2.5" stroke-linecap="round" stroke-linejoin="round"/>
<path d="M12.6592 2.02246C10.4012 5.64088 9.2041 9.82042 9.2041 14.0856C9.2041 18.3508 10.4012 22.5303 12.6592 26.1487" stroke="#EE8E39" stroke-width="2.5" stroke-linecap="round" stroke-linejoin="round"/>
<path d="M14 2.02246C16.2634 5.64739 17.4609 9.83618 17.4554 14.1097" stroke="#EE8E39" stroke-width="2.5" stroke-linecap="round" stroke-linejoin="round"/>
<path d="M25.5551 24.9702C26.1176 24.4079 26.5006 23.6915 26.6559 22.9114C26.8111 22.1314 26.7316 21.3228 26.4273 20.588C26.123 19.8532 25.6076 19.2251 24.9463 18.7832C24.285 18.3413 23.5075 18.1055 22.7122 18.1055C21.9169 18.1055 21.1394 18.3413 20.4781 18.7832C19.8168 19.2251 19.3014 19.8532 18.9971 20.588C18.6928 21.3228 18.6133 22.1314 18.7685 22.9114C18.9238 23.6915 19.3069 24.4079 19.8693 24.9702C20.4296 25.5319 21.3772 26.3709 22.7122 27.4888C24.1209 26.2959 25.0699 25.4568 25.5551 24.9702Z" stroke="#EE8E39" stroke-width="2.5" stroke-linecap="round" stroke-linejoin="round"/>
<path d="M22.7123 22.1279V22.1413" stroke="#EE8E39" stroke-width="2.5" stroke-linecap="round" stroke-linejoin="round"/>
</svg>
