<svg width="34" height="36" viewBox="0 0 34 36" fill="none" xmlns="http://www.w3.org/2000/svg">
<g clip-path="url(#clip0_842_9864)">
<path d="M25.2143 28.1565L22.1373 29.8161C22.0459 29.865 21.9432 29.8868 21.8406 29.8791C21.7379 29.8714 21.6393 29.8345 21.5558 29.7725C21.4724 29.7105 21.4073 29.6258 21.3679 29.5279C21.3285 29.43 21.3162 29.3228 21.3326 29.2182L21.9205 25.7021L19.4314 23.2127C19.3571 23.1388 19.3045 23.0449 19.2796 22.9416C19.2547 22.8384 19.2585 22.73 19.2906 22.6289C19.3226 22.5278 19.3816 22.438 19.4609 22.3697C19.5402 22.3015 19.6365 22.2575 19.7388 22.2429L23.1785 21.7296L24.717 18.5315C24.763 18.4362 24.8339 18.3561 24.9218 18.3001C25.0096 18.244 25.1109 18.2144 25.2143 18.2144C25.3176 18.2144 25.4189 18.244 25.5067 18.3001C25.5946 18.3561 25.6655 18.4362 25.7115 18.5315L27.25 21.7296L30.6897 22.2429C30.7917 22.2581 30.8876 22.3023 30.9666 22.3706C31.0455 22.4389 31.1043 22.5286 31.1362 22.6295C31.1682 22.7304 31.1722 22.8385 31.1476 22.9416C31.123 23.0446 31.0708 23.1386 30.9971 23.2127L28.508 25.7021L29.0945 29.2167C29.1121 29.3215 29.1008 29.4293 29.0619 29.5278C29.023 29.6263 28.958 29.7117 28.8743 29.7741C28.7907 29.8365 28.6917 29.8735 28.5886 29.881C28.4856 29.8884 28.3825 29.8659 28.2913 29.8161L25.2143 28.1565Z" stroke="#EE8E39" stroke-width="2.18" stroke-linecap="round" stroke-linejoin="round"/>
<path d="M8.7842 28.1565L5.7072 29.8161C5.61589 29.865 5.51317 29.8868 5.4105 29.8791C5.30783 29.8714 5.20926 29.8345 5.12579 29.7725C5.04232 29.7105 4.97724 29.6258 4.93782 29.5279C4.8984 29.43 4.88618 29.3228 4.90254 29.2182L5.49045 25.7021L3.00137 23.2127C2.92708 23.1388 2.87447 23.0449 2.84956 22.9416C2.82465 22.8384 2.82844 22.73 2.8605 22.6289C2.89256 22.5278 2.95159 22.438 3.03085 22.3697C3.11012 22.3015 3.20643 22.2575 3.30879 22.2429L6.74845 21.7296L8.28695 18.5315C8.33296 18.4362 8.40388 18.3561 8.49173 18.3001C8.57957 18.244 8.68086 18.2144 8.7842 18.2144C8.88754 18.2144 8.98883 18.244 9.07668 18.3001C9.16452 18.3561 9.23544 18.4362 9.28145 18.5315L10.82 21.7296L14.2596 22.2429C14.3617 22.2581 14.4576 22.3023 14.5365 22.3706C14.6154 22.4389 14.6742 22.5286 14.7062 22.6295C14.7382 22.7304 14.7421 22.8385 14.7175 22.9416C14.6929 23.0446 14.6408 23.1386 14.567 23.2127L12.078 25.7021L12.6645 29.2167C12.6821 29.3215 12.6708 29.4293 12.6318 29.5278C12.5929 29.6263 12.5279 29.7117 12.4443 29.7741C12.3606 29.8365 12.2617 29.8735 12.1586 29.881C12.0555 29.8884 11.9525 29.8659 11.8612 29.8161L8.7842 28.1565Z" stroke="#EE8E39" stroke-width="2.18" stroke-linecap="round" stroke-linejoin="round"/>
<path d="M17.002 13.573L13.925 15.2326C13.8337 15.2815 13.7309 15.3033 13.6283 15.2956C13.5256 15.2879 13.427 15.251 13.3436 15.189C13.2601 15.127 13.195 15.0423 13.1556 14.9444C13.1162 14.8465 13.104 14.7393 13.1203 14.6347L13.7082 11.1186L11.2191 8.62924C11.1448 8.55531 11.0922 8.46136 11.0673 8.35812C11.0424 8.25489 11.0462 8.14652 11.0783 8.0454C11.1103 7.94427 11.1694 7.85446 11.2486 7.78622C11.3279 7.71797 11.4242 7.67405 11.5266 7.65945L14.9662 7.14612L16.5047 3.94799C16.5507 3.85274 16.6217 3.77259 16.7095 3.71657C16.7973 3.66054 16.8986 3.63086 17.002 3.63086C17.1053 3.63086 17.2066 3.66054 17.2945 3.71657C17.3823 3.77259 17.4532 3.85274 17.4992 3.94799L19.0377 7.14612L22.4774 7.65945C22.5795 7.67457 22.6754 7.71878 22.7543 7.78708C22.8332 7.85539 22.892 7.94507 22.924 8.04597C22.956 8.14688 22.9599 8.25498 22.9353 8.35806C22.9107 8.46114 22.8586 8.55507 22.7848 8.62924L20.2957 11.1186L20.8822 14.6332C20.8998 14.738 20.8885 14.8458 20.8496 14.9443C20.8107 15.0428 20.7457 15.1282 20.6621 15.1906C20.5784 15.253 20.4794 15.29 20.3764 15.2975C20.2733 15.3049 20.1703 15.2824 20.079 15.2326L17.002 13.573Z" stroke="#EE8E39" stroke-width="2.18" stroke-linecap="round" stroke-linejoin="round"/>
</g>
<defs>
<clipPath id="clip0_842_9864">
<rect width="34" height="35" fill="white" transform="translate(0 0.255859)"/>
</clipPath>
</defs>
</svg>
