<svg width="25" height="24" viewBox="0 0 25 24" fill="none" xmlns="http://www.w3.org/2000/svg">
<path d="M7.10132 5.75624C7.5041 5.62306 7.89635 6.02734 7.78198 6.43593C7.7253 6.63842 7.67021 6.84958 7.61694 7.06972L6.63745 11.2601C5.53748 15.9701 7.1472 18.5698 11.8572 19.6898L13.0046 19.9574C13.2794 20.0213 13.3045 20.3809 13.0369 20.4701L11.4568 20.9896C7.48692 22.2695 5.39715 21.1998 4.10718 17.2299L2.8269 13.2797C1.54711 9.30999 2.60721 7.21004 6.5769 5.93007L7.10132 5.75624ZM9.3269 5.09999C10.4969 2.68006 12.4871 2.02983 15.8269 2.81972L17.4968 3.21034C21.6868 4.19033 22.967 6.25993 21.9871 10.4398L21.0076 14.6195C20.1676 18.2294 18.5073 19.6899 15.3875 19.39C14.8875 19.35 14.3473 19.2595 13.7673 19.1195L12.0876 18.7201C7.91765 17.7301 6.62718 15.6696 7.60718 11.4896L8.58765 7.30019C8.78764 6.45023 9.02692 5.70997 9.3269 5.09999ZM12.157 11.6801C11.757 11.5802 11.3468 11.8202 11.2468 12.2201C11.147 12.62 11.3871 13.0302 11.7869 13.1303L14.697 13.8695C14.767 13.8795 14.8275 13.89 14.8875 13.89C15.2272 13.8899 15.5268 13.6701 15.6169 13.3305C15.7169 12.9305 15.4771 12.5203 15.0671 12.4203L12.157 11.6801ZM13.1472 7.80995C12.7472 7.70995 12.3371 7.94999 12.2371 8.34999C12.1371 8.74998 12.3771 9.16014 12.7771 9.26015L17.6267 10.4896C17.6967 10.4996 17.7571 10.5101 17.8171 10.5101C18.1571 10.5101 18.4576 10.2896 18.5476 9.9496C18.6473 9.53976 18.4067 9.13039 17.9968 9.04042L13.1472 7.80995Z" fill="#EE8E39"/>
</svg>
